<svg aria-roledescription="flowchart-v2" role="graphics-document document" viewBox="-55.20100021362305 -8 975.7839965820312 1053.666748046875" height="100%" xmlns="http://www.w3.org/2000/svg" width="975.7839965820312" id="graph-div" style="max-width: 100%;" xmlns:xlink="http://www.w3.org/1999/xlink"><style>@import url("https://cdnjs.cloudflare.com/ajax/libs/font-awesome/6.5.1/css/all.min.css");'</style><style>#graph-div{font-family:Consolas;font-size:16px;fill:#000000;}#graph-div .error-icon{fill:#552222;}#graph-div .error-text{fill:#552222;stroke:#552222;}#graph-div .edge-thickness-normal{stroke-width:2px;}#graph-div .edge-thickness-thick{stroke-width:3.5px;}#graph-div .edge-pattern-solid{stroke-dasharray:0;}#graph-div .edge-pattern-dashed{stroke-dasharray:3;}#graph-div .edge-pattern-dotted{stroke-dasharray:2;}#graph-div .marker{fill:#000000ff;stroke:#000000ff;}#graph-div .marker.cross{stroke:#000000ff;}#graph-div svg{font-family:Consolas;font-size:16px;}#graph-div .label{font-family:Consolas;color:#000000;}#graph-div .cluster-label text{fill:#000000ff;}#graph-div .cluster-label span,#graph-div p{color:#000000ff;}#graph-div .label text,#graph-div span,#graph-div p{fill:#000000;color:#000000;}#graph-div .node rect,#graph-div .node circle,#graph-div .node ellipse,#graph-div .node polygon,#graph-div .node path{fill:#00000000;stroke:#000000ff;stroke-width:1px;}#graph-div .flowchart-label text{text-anchor:middle;}#graph-div .node .katex path{fill:#000;stroke:#000;stroke-width:1px;}#graph-div .node .label{text-align:center;}#graph-div .node.clickable{cursor:pointer;}#graph-div .arrowheadPath{fill:#000000ff333;}#graph-div .edgePath .path{stroke:#000000ff;stroke-width:2.0px;}#graph-div .flowchart-link{stroke:#000000ff;fill:none;}#graph-div .edgeLabel{background-color:white;text-align:center;}#graph-div .edgeLabel rect{opacity:0.5;background-color:white;fill:white;}#graph-div .labelBkg{background-color:rgba(255, 255, 255, 0.5);}#graph-div .cluster rect{fill:hsl(0, 0%, 98.9215686275%);stroke:#707070;stroke-width:1px;}#graph-div .cluster text{fill:#000000ff;}#graph-div .cluster span,#graph-div p{color:#000000ff;}#graph-div div.mermaidTooltip{position:absolute;text-align:center;max-width:200px;padding:2px;font-family:Consolas;font-size:12px;background:hsl(-160, 0%, 93.3333333333%);border:1px solid #707070;border-radius:2px;pointer-events:none;z-index:100;}#graph-div .flowchartTitleText{text-anchor:middle;font-size:18px;fill:#000000;}#graph-div :root{--mermaid-font-family:Consolas;}</style><g><marker orient="auto" markerHeight="12" markerWidth="12" markerUnits="userSpaceOnUse" refY="5" refX="6" viewBox="0 0 10 10" class="marker flowchart" id="graph-div_flowchart-pointEnd"><path style="stroke-width: 1; stroke-dasharray: 1, 0;" class="arrowMarkerPath" d="M 0 0 L 10 5 L 0 10 z"></path></marker><marker orient="auto" markerHeight="12" markerWidth="12" markerUnits="userSpaceOnUse" refY="5" refX="4.5" viewBox="0 0 10 10" class="marker flowchart" id="graph-div_flowchart-pointStart"><path style="stroke-width: 1; stroke-dasharray: 1, 0;" class="arrowMarkerPath" d="M 0 5 L 10 10 L 10 0 z"></path></marker><marker orient="auto" markerHeight="11" markerWidth="11" markerUnits="userSpaceOnUse" refY="5" refX="11" viewBox="0 0 10 10" class="marker flowchart" id="graph-div_flowchart-circleEnd"><circle style="stroke-width: 1; stroke-dasharray: 1, 0;" class="arrowMarkerPath" r="5" cy="5" cx="5"></circle></marker><marker orient="auto" markerHeight="11" markerWidth="11" markerUnits="userSpaceOnUse" refY="5" refX="-1" viewBox="0 0 10 10" class="marker flowchart" id="graph-div_flowchart-circleStart"><circle style="stroke-width: 1; stroke-dasharray: 1, 0;" class="arrowMarkerPath" r="5" cy="5" cx="5"></circle></marker><marker orient="auto" markerHeight="11" markerWidth="11" markerUnits="userSpaceOnUse" refY="5.2" refX="12" viewBox="0 0 11 11" class="marker cross flowchart" id="graph-div_flowchart-crossEnd"><path style="stroke-width: 2; stroke-dasharray: 1, 0;" class="arrowMarkerPath" d="M 1,1 l 9,9 M 10,1 l -9,9"></path></marker><marker orient="auto" markerHeight="11" markerWidth="11" markerUnits="userSpaceOnUse" refY="5.2" refX="-1" viewBox="0 0 11 11" class="marker cross flowchart" id="graph-div_flowchart-crossStart"><path style="stroke-width: 2; stroke-dasharray: 1, 0;" class="arrowMarkerPath" d="M 1,1 l 9,9 M 10,1 l -9,9"></path></marker><g class="root"><g class="clusters"></g><g class="edgePaths"><path marker-end="url(#graph-div_flowchart-pointEnd)" style="fill:none;" class="edge-thickness-normal edge-pattern-solid flowchart-link LS-json LE-element" id="L-json-element-0" d="M742.602,33.667L742.602,37.833C742.602,42,742.602,50.333,742.602,57.783C742.602,65.233,742.602,71.8,742.602,75.083L742.602,78.367"></path><path marker-end="url(#graph-div_flowchart-pointEnd)" style="fill:none;" class="edge-thickness-normal edge-pattern-solid flowchart-link LS-element LE-ws" id="L-element-ws-0" d="M704.31,102.528L579.058,109.162C453.806,115.797,203.303,129.065,78.051,142.671C-47.201,156.278,-47.201,170.222,-47.201,184.167C-47.201,198.111,-47.201,212.056,-47.201,226C-47.201,239.944,-47.201,253.889,-47.201,267.833C-47.201,281.778,-47.201,295.722,-47.201,309.667C-47.201,323.611,-47.201,337.556,-47.201,351.5C-47.201,365.444,-47.201,379.389,-47.201,393.333C-47.201,407.278,-47.201,421.222,-47.201,435.167C-47.201,449.111,-47.201,463.056,-34.604,475.475C-22.008,487.894,3.185,498.788,15.781,504.235L28.378,509.682"></path><path marker-end="url(#graph-div_flowchart-pointEnd)" style="fill:none;" class="edge-thickness-normal edge-pattern-solid flowchart-link LS-element LE-value" id="L-element-value-0" d="M704.31,113.483L690.128,118.291C675.945,123.1,647.581,132.716,633.398,140.808C619.216,148.9,619.216,155.467,619.216,158.75L619.216,162.033"></path><path marker-end="url(#graph-div_flowchart-pointEnd)" style="fill:none;" class="edge-thickness-normal edge-pattern-solid flowchart-link LS-value LE-object" id="L-value-object-0" d="M589.721,186.275L497.083,192.896C404.444,199.516,219.168,212.758,126.529,222.662C33.891,232.567,33.891,239.133,33.891,242.417L33.891,245.7"></path><path marker-end="url(#graph-div_flowchart-pointEnd)" style="fill:none;" class="edge-thickness-normal edge-pattern-solid flowchart-link LS-object LE-ws" id="L-object-ws-0" d="M19.145,284.667L15.495,288.833C11.845,293,4.545,301.333,0.895,312.472C-2.755,323.611,-2.755,337.556,-2.755,351.5C-2.755,365.444,-2.755,379.389,-2.755,393.333C-2.755,407.278,-2.755,421.222,-2.755,435.167C-2.755,449.111,-2.755,463.056,2.555,474.275C7.864,485.495,18.484,493.99,23.794,498.238L29.104,502.486"></path><path marker-end="url(#graph-div_flowchart-pointEnd)" style="fill:none;" class="edge-thickness-normal edge-pattern-solid flowchart-link LS-ws LE-ws" id="L-ws-ws-0" d="M65.836,516.385L81.796,513.988C97.756,511.59,129.676,506.795,149.626,504.398C169.576,502,177.556,502,185.536,504.806C193.516,507.611,201.497,513.222,201.497,518.833C201.497,524.444,193.516,530.056,185.536,532.861C177.556,535.667,169.576,535.667,150.5,533.4C131.423,531.134,101.25,526.601,86.164,524.335L71.077,522.069"></path><path marker-end="url(#graph-div_flowchart-pointEnd)" style="fill:none;" class="edge-thickness-normal edge-pattern-solid flowchart-link LS-object LE-members" id="L-object-members-0" d="M48.637,284.667L52.287,288.833C55.937,293,63.236,301.333,66.886,308.783C70.536,316.233,70.536,322.8,70.536,326.083L70.536,329.367"></path><path marker-end="url(#graph-div_flowchart-pointEnd)" style="fill:none;" class="edge-thickness-normal edge-pattern-solid flowchart-link LS-members LE-member" id="L-members-member-0" d="M70.536,368.333L70.536,372.5C70.536,376.667,70.536,385,96.996,394.762C123.455,404.523,176.373,415.714,202.832,421.309L229.291,426.904"></path><path marker-end="url(#graph-div_flowchart-pointEnd)" style="fill:none;" class="edge-thickness-normal edge-pattern-solid flowchart-link LS-member LE-ws" id="L-member-ws-0" d="M244.186,452L238.201,456.167C232.215,460.333,220.244,468.667,191.373,478.865C162.503,489.063,116.732,501.125,93.846,507.156L70.961,513.188"></path><path marker-end="url(#graph-div_flowchart-pointEnd)" style="fill:none;" class="edge-thickness-normal edge-pattern-solid flowchart-link LS-member LE-string" id="L-member-string-0" d="M272.391,452L273.387,456.167C274.383,460.333,276.375,468.667,277.371,476.117C278.367,483.567,278.367,490.133,278.367,493.417L278.367,496.7"></path><path marker-end="url(#graph-div_flowchart-pointEnd)" style="fill:none;" class="edge-thickness-normal edge-pattern-solid flowchart-link LS-member LE-element" id="L-member-element-0" d="M302.258,432.895L400.645,426.302C499.033,419.708,695.808,406.521,794.196,392.955C892.583,379.389,892.583,365.444,892.583,351.5C892.583,337.556,892.583,323.611,892.583,309.667C892.583,295.722,892.583,281.778,892.583,267.833C892.583,253.889,892.583,239.944,892.583,226C892.583,212.056,892.583,198.111,892.583,184.167C892.583,170.222,892.583,156.278,874.819,144.351C857.055,132.424,821.527,122.514,803.763,117.559L785.998,112.604"></path><path marker-end="url(#graph-div_flowchart-pointEnd)" style="fill:none;" class="edge-thickness-normal edge-pattern-solid flowchart-link LS-value LE-array" id="L-value-array-0" d="M589.721,186.937L520.414,193.448C451.106,199.958,312.49,212.979,243.183,222.773C173.875,232.567,173.875,239.133,173.875,242.417L173.875,245.7"></path><path marker-end="url(#graph-div_flowchart-pointEnd)" style="fill:none;" class="edge-thickness-normal edge-pattern-solid flowchart-link LS-array LE-ws" id="L-array-ws-0" d="M169.832,284.667L168.832,288.833C167.831,293,165.829,301.333,164.829,312.472C163.828,323.611,163.828,337.556,163.828,351.5C163.828,365.444,163.828,379.389,163.828,393.333C163.828,407.278,163.828,421.222,163.828,435.167C163.828,449.111,163.828,463.056,148.326,475.702C132.823,488.349,101.818,499.698,86.316,505.372L70.813,511.046"></path><path marker-end="url(#graph-div_flowchart-pointEnd)" style="fill:none;" class="edge-thickness-normal edge-pattern-solid flowchart-link LS-members LE-members" id="L-members-members-0" d="M108.828,341.04L112.717,339.978C116.606,338.916,124.384,336.791,129.245,335.729C134.106,334.667,136.05,334.667,137.995,337.472C139.939,340.278,141.884,345.889,141.884,351.5C141.884,357.111,139.939,362.722,137.995,365.528C136.05,368.333,134.106,368.333,130.097,367.504C126.088,366.674,120.014,365.015,116.978,364.186L113.941,363.356"></path><path marker-end="url(#graph-div_flowchart-pointEnd)" style="fill:none;" class="edge-thickness-normal edge-pattern-solid flowchart-link LS-value LE-number" id="L-value-number-0" d="M589.721,192.46L569.841,198.05C549.96,203.64,510.199,214.82,490.318,227.382C470.438,239.944,470.438,253.889,470.438,267.833C470.438,281.778,470.438,295.722,470.438,309.667C470.438,323.611,470.438,337.556,470.438,351.5C470.438,365.444,470.438,379.389,470.438,393.333C470.438,407.278,470.438,421.222,470.438,435.167C470.438,449.111,470.438,463.056,470.438,477C470.438,490.944,470.438,504.889,470.438,518.833C470.438,532.778,470.438,546.722,470.438,560.667C470.438,574.611,470.438,588.556,470.438,602.5C470.438,616.444,470.438,630.389,470.438,640.644C470.438,650.9,470.438,657.467,470.438,660.75L470.438,664.033"></path><path marker-end="url(#graph-div_flowchart-pointEnd)" style="fill:none;" class="edge-thickness-normal edge-pattern-solid flowchart-link LS-number LE-integer" id="L-number-integer-0" d="M442.315,703L435.354,707.167C428.393,711.333,414.471,719.667,407.51,727.117C400.549,734.567,400.549,741.133,400.549,744.417L400.549,747.7"></path><path marker-end="url(#graph-div_flowchart-pointEnd)" style="fill:none;" class="edge-thickness-normal edge-pattern-solid flowchart-link LS-integer LE-digit" id="L-integer-digit-0" d="M383.149,786.667L378.842,790.833C374.535,795,365.921,803.333,361.614,814.472C357.307,825.611,357.307,839.556,357.307,853.5C357.307,867.444,357.307,881.389,352.902,891.968C348.497,902.547,339.686,909.762,335.281,913.369L330.875,916.976"></path><path marker-end="url(#graph-div_flowchart-pointEnd)" style="fill:none;" class="edge-thickness-normal edge-pattern-solid flowchart-link LS-digit LE-onenine" id="L-digit-onenine-0" d="M306.216,954L306.216,958.167C306.216,962.333,306.216,970.667,308.978,978.308C311.739,985.95,317.262,992.9,320.023,996.375L322.785,999.851"></path><path marker-end="url(#graph-div_flowchart-pointEnd)" style="fill:none;" class="edge-thickness-normal edge-pattern-solid flowchart-link LS-string LE-characters" id="L-string-characters-0" d="M278.367,535.667L278.367,539.833C278.367,544,278.367,552.333,278.367,559.783C278.367,567.233,278.367,573.8,278.367,577.083L278.367,580.367"></path><path marker-end="url(#graph-div_flowchart-pointEnd)" style="fill:none;" class="edge-thickness-normal edge-pattern-solid flowchart-link LS-characters LE-character" id="L-characters-character-0" d="M278.367,619.333L278.367,623.5C278.367,627.667,278.367,636,278.367,643.45C278.367,650.9,278.367,657.467,278.367,660.75L278.367,664.033"></path><path marker-end="url(#graph-div_flowchart-pointEnd)" style="fill:none;" class="edge-thickness-normal edge-pattern-solid flowchart-link LS-character LE-escape" id="L-character-escape-0" d="M278.367,703L278.367,707.167C278.367,711.333,278.367,719.667,278.367,727.117C278.367,734.567,278.367,741.133,278.367,744.417L278.367,747.7"></path><path marker-end="url(#graph-div_flowchart-pointEnd)" style="fill:none;" class="edge-thickness-normal edge-pattern-solid flowchart-link LS-escape LE-hex" id="L-escape-hex-0" d="M278.367,786.667L278.367,790.833C278.367,795,278.367,803.333,278.367,810.783C278.367,818.233,278.367,824.8,278.367,828.083L278.367,831.367"></path><path marker-end="url(#graph-div_flowchart-pointEnd)" style="fill:none;" class="edge-thickness-normal edge-pattern-solid flowchart-link LS-value LE-string" id="L-value-string-0" d="M629.918,201L632.567,205.167C635.216,209.333,640.514,217.667,643.163,228.806C645.813,239.944,645.813,253.889,645.813,267.833C645.813,281.778,645.813,295.722,645.813,309.667C645.813,323.611,645.813,337.556,645.813,351.5C645.813,365.444,645.813,379.389,645.813,393.333C645.813,407.278,645.813,421.222,645.813,435.167C645.813,449.111,645.813,463.056,591.098,476.257C536.383,489.458,426.953,501.917,372.239,508.146L317.524,514.375"></path><path marker-end="url(#graph-div_flowchart-pointEnd)" style="fill:none;" class="edge-thickness-normal edge-pattern-solid flowchart-link LS-characters LE-characters" id="L-characters-characters-0" d="M329.852,592.056L335.101,590.991C340.351,589.926,350.85,587.797,357.413,586.732C363.975,585.667,366.6,585.667,369.224,588.472C371.849,591.278,374.474,596.889,374.474,602.5C374.474,608.111,371.849,613.722,369.224,616.528C366.6,619.333,363.975,619.333,358.278,618.444C352.582,617.555,343.814,615.776,339.43,614.887L335.046,613.997"></path><path marker-end="url(#graph-div_flowchart-pointEnd)" style="fill:none;" class="edge-thickness-normal edge-pattern-solid flowchart-link LS-hex LE-digit" id="L-hex-digit-0" d="M278.367,870.333L278.367,874.5C278.367,878.667,278.367,887,280.651,894.598C282.936,902.196,287.504,909.059,289.789,912.49L292.073,915.922"></path><path marker-end="url(#graph-div_flowchart-pointEnd)" style="fill:none;" class="edge-thickness-normal edge-pattern-solid flowchart-link LS-array LE-elements" id="L-array-elements-0" d="M203.37,280.18L215.11,285.094C226.85,290.009,250.33,299.838,299.801,310.506C349.273,321.175,424.735,332.683,462.467,338.437L500.198,344.191"></path><path marker-end="url(#graph-div_flowchart-pointEnd)" style="fill:none;" class="edge-thickness-normal edge-pattern-solid flowchart-link LS-elements LE-element" id="L-elements-element-0" d="M590.813,346.6L644.441,340.445C698.069,334.289,805.326,321.978,858.955,308.85C912.583,295.722,912.583,281.778,912.583,267.833C912.583,253.889,912.583,239.944,912.583,226C912.583,212.056,912.583,198.111,912.583,184.167C912.583,170.222,912.583,156.278,891.493,144.115C870.402,131.952,828.221,121.571,807.13,116.381L786.04,111.19"></path><path marker-end="url(#graph-div_flowchart-pointEnd)" style="fill:none;" class="edge-thickness-normal edge-pattern-solid flowchart-link LS-number LE-fraction" id="L-number-fraction-0" d="M495.02,703L501.105,707.167C507.19,711.333,519.359,719.667,525.444,727.117C531.529,734.567,531.529,741.133,531.529,744.417L531.529,747.7"></path><path marker-end="url(#graph-div_flowchart-pointEnd)" style="fill:none;" class="edge-thickness-normal edge-pattern-solid flowchart-link LS-fraction LE-digits" id="L-fraction-digits-0" d="M531.529,786.667L531.529,790.833C531.529,795,531.529,803.333,531.529,810.783C531.529,818.233,531.529,824.8,531.529,828.083L531.529,831.367"></path><path marker-end="url(#graph-div_flowchart-pointEnd)" style="fill:none;" class="edge-thickness-normal edge-pattern-solid flowchart-link LS-digits LE-digit" id="L-digits-digit-0" d="M531.529,870.333L531.529,874.5C531.529,878.667,531.529,887,499.761,897.065C467.993,907.13,404.457,918.926,372.69,924.825L340.922,930.723"></path><path marker-end="url(#graph-div_flowchart-pointEnd)" style="fill:none;" class="edge-thickness-normal edge-pattern-solid flowchart-link LS-elements LE-elements" id="L-elements-elements-0" d="M590.813,340.616L594.701,339.624C598.59,338.633,606.368,336.65,611.229,335.658C616.09,334.667,618.035,334.667,619.979,337.472C621.924,340.278,623.868,345.889,623.868,351.5C623.868,357.111,621.924,362.722,619.979,365.528C618.035,368.333,616.09,368.333,612.085,367.56C608.08,366.787,602.014,365.24,598.981,364.467L595.948,363.693"></path><path marker-end="url(#graph-div_flowchart-pointEnd)" style="fill:none;" class="edge-thickness-normal edge-pattern-solid flowchart-link LS-integer LE-onenine" id="L-integer-onenine-0" d="M400.549,786.667L400.549,790.833C400.549,795,400.549,803.333,400.549,814.472C400.549,825.611,400.549,839.556,400.549,853.5C400.549,867.444,400.549,881.389,400.549,895.333C400.549,909.278,400.549,923.222,400.549,937.167C400.549,951.111,400.549,965.056,395.194,975.695C389.838,986.335,379.126,993.67,373.77,997.338L368.414,1001.006"></path><path marker-end="url(#graph-div_flowchart-pointEnd)" style="fill:none;" class="edge-thickness-normal edge-pattern-solid flowchart-link LS-integer LE-digits" id="L-integer-digits-0" d="M426.902,786.667L433.425,790.833C439.948,795,452.993,803.333,465.295,811.191C477.596,819.049,489.153,826.431,494.931,830.122L500.71,833.814"></path><path marker-end="url(#graph-div_flowchart-pointEnd)" style="fill:none;" class="edge-thickness-normal edge-pattern-solid flowchart-link LS-value LE-boolean" id="L-value-boolean-0" d="M648.711,196.519L660.443,201.433C672.175,206.346,695.64,216.173,707.372,224.37C719.104,232.567,719.104,239.133,719.104,242.417L719.104,245.7"></path><path marker-end="url(#graph-div_flowchart-pointEnd)" style="fill:none;" class="edge-thickness-normal edge-pattern-solid flowchart-link LS-digits LE-digits" id="L-digits-digits-0" d="M565.419,845.651L571.885,844.154C578.352,842.657,591.284,839.662,599.367,838.164C607.449,836.667,610.682,836.667,613.915,839.472C617.148,842.278,620.382,847.889,620.382,853.5C620.382,859.111,617.148,864.722,613.915,867.528C610.682,870.333,607.449,870.333,600.227,869.035C593.005,867.737,581.794,865.141,576.188,863.842L570.583,862.544"></path><path marker-end="url(#graph-div_flowchart-pointEnd)" style="fill:none;" class="edge-thickness-normal edge-pattern-solid flowchart-link LS-number LE-exponent" id="L-number-exponent-0" d="M504.328,693.141L532.558,698.951C560.788,704.761,617.248,716.38,645.478,725.474C673.708,734.567,673.708,741.133,673.708,744.417L673.708,747.7"></path><path marker-end="url(#graph-div_flowchart-pointEnd)" style="fill:none;" class="edge-thickness-normal edge-pattern-solid flowchart-link LS-exponent LE-digits" id="L-exponent-digits-0" d="M647.757,786.667L641.334,790.833C634.91,795,622.063,803.333,608.68,811.248C595.296,819.162,581.376,826.658,574.416,830.406L567.456,834.154"></path><path marker-end="url(#graph-div_flowchart-pointEnd)" style="fill:none;" class="edge-thickness-normal edge-pattern-solid flowchart-link LS-value LE-null" id="L-value-null-0" d="M648.711,189.952L679.341,195.96C709.97,201.968,771.23,213.984,801.86,223.275C832.49,232.567,832.49,239.133,832.49,242.417L832.49,245.7"></path><path marker-end="url(#graph-div_flowchart-pointEnd)" style="fill:none;" class="edge-thickness-normal edge-pattern-solid flowchart-link LS-exponent LE-sign" id="L-exponent-sign-0" d="M677.732,786.667L678.728,790.833C679.724,795,681.716,803.333,682.712,810.783C683.708,818.233,683.708,824.8,683.708,828.083L683.708,831.367"></path></g><g class="edgeLabels"><g class="edgeLabel"><g transform="translate(0, 0)" class="label"><rect height="0" width="0" ry="0" rx="0"></rect><text style=""><tspan class="row" x="0" dy="1em" xml:space="preserve"></tspan></text></g></g><g class="edgeLabel"><g transform="translate(0, 0)" class="label"><rect height="0" width="0" ry="0" rx="0"></rect><text style=""><tspan class="row" x="0" dy="1em" xml:space="preserve"></tspan></text></g></g><g class="edgeLabel"><g transform="translate(0, 0)" class="label"><rect height="0" width="0" ry="0" rx="0"></rect><text style=""><tspan class="row" x="0" dy="1em" xml:space="preserve"></tspan></text></g></g><g class="edgeLabel"><g transform="translate(0, 0)" class="label"><rect height="0" width="0" ry="0" rx="0"></rect><text style=""><tspan class="row" x="0" dy="1em" xml:space="preserve"></tspan></text></g></g><g class="edgeLabel"><g transform="translate(0, 0)" class="label"><rect height="0" width="0" ry="0" rx="0"></rect><text style=""><tspan class="row" x="0" dy="1em" xml:space="preserve"></tspan></text></g></g><g class="edgeLabel"><g transform="translate(0, 0)" class="label"><rect height="0" width="0" ry="0" rx="0"></rect><text style=""><tspan class="row" x="0" dy="1em" xml:space="preserve"></tspan></text></g></g><g class="edgeLabel"><g transform="translate(0, 0)" class="label"><rect height="0" width="0" ry="0" rx="0"></rect><text style=""><tspan class="row" x="0" dy="1em" xml:space="preserve"></tspan></text></g></g><g class="edgeLabel"><g transform="translate(0, 0)" class="label"><rect height="0" width="0" ry="0" rx="0"></rect><text style=""><tspan class="row" x="0" dy="1em" xml:space="preserve"></tspan></text></g></g><g class="edgeLabel"><g transform="translate(0, 0)" class="label"><rect height="0" width="0" ry="0" rx="0"></rect><text style=""><tspan class="row" x="0" dy="1em" xml:space="preserve"></tspan></text></g></g><g class="edgeLabel"><g transform="translate(0, 0)" class="label"><rect height="0" width="0" ry="0" rx="0"></rect><text style=""><tspan class="row" x="0" dy="1em" xml:space="preserve"></tspan></text></g></g><g class="edgeLabel"><g transform="translate(0, 0)" class="label"><rect height="0" width="0" ry="0" rx="0"></rect><text style=""><tspan class="row" x="0" dy="1em" xml:space="preserve"></tspan></text></g></g><g class="edgeLabel"><g transform="translate(0, 0)" class="label"><rect height="0" width="0" ry="0" rx="0"></rect><text style=""><tspan class="row" x="0" dy="1em" xml:space="preserve"></tspan></text></g></g><g class="edgeLabel"><g transform="translate(0, 0)" class="label"><rect height="0" width="0" ry="0" rx="0"></rect><text style=""><tspan class="row" x="0" dy="1em" xml:space="preserve"></tspan></text></g></g><g class="edgeLabel"><g transform="translate(0, 0)" class="label"><rect height="0" width="0" ry="0" rx="0"></rect><text style=""><tspan class="row" x="0" dy="1em" xml:space="preserve"></tspan></text></g></g><g class="edgeLabel"><g transform="translate(0, 0)" class="label"><rect height="0" width="0" ry="0" rx="0"></rect><text style=""><tspan class="row" x="0" dy="1em" xml:space="preserve"></tspan></text></g></g><g class="edgeLabel"><g transform="translate(0, 0)" class="label"><rect height="0" width="0" ry="0" rx="0"></rect><text style=""><tspan class="row" x="0" dy="1em" xml:space="preserve"></tspan></text></g></g><g class="edgeLabel"><g transform="translate(0, 0)" class="label"><rect height="0" width="0" ry="0" rx="0"></rect><text style=""><tspan class="row" x="0" dy="1em" xml:space="preserve"></tspan></text></g></g><g class="edgeLabel"><g transform="translate(0, 0)" class="label"><rect height="0" width="0" ry="0" rx="0"></rect><text style=""><tspan class="row" x="0" dy="1em" xml:space="preserve"></tspan></text></g></g><g class="edgeLabel"><g transform="translate(0, 0)" class="label"><rect height="0" width="0" ry="0" rx="0"></rect><text style=""><tspan class="row" x="0" dy="1em" xml:space="preserve"></tspan></text></g></g><g class="edgeLabel"><g transform="translate(0, 0)" class="label"><rect height="0" width="0" ry="0" rx="0"></rect><text style=""><tspan class="row" x="0" dy="1em" xml:space="preserve"></tspan></text></g></g><g class="edgeLabel"><g transform="translate(0, 0)" class="label"><rect height="0" width="0" ry="0" rx="0"></rect><text style=""><tspan class="row" x="0" dy="1em" xml:space="preserve"></tspan></text></g></g><g class="edgeLabel"><g transform="translate(0, 0)" class="label"><rect height="0" width="0" ry="0" rx="0"></rect><text style=""><tspan class="row" x="0" dy="1em" xml:space="preserve"></tspan></text></g></g><g class="edgeLabel"><g transform="translate(0, 0)" class="label"><rect height="0" width="0" ry="0" rx="0"></rect><text style=""><tspan class="row" x="0" dy="1em" xml:space="preserve"></tspan></text></g></g><g class="edgeLabel"><g transform="translate(0, 0)" class="label"><rect height="0" width="0" ry="0" rx="0"></rect><text style=""><tspan class="row" x="0" dy="1em" xml:space="preserve"></tspan></text></g></g><g class="edgeLabel"><g transform="translate(0, 0)" class="label"><rect height="0" width="0" ry="0" rx="0"></rect><text style=""><tspan class="row" x="0" dy="1em" xml:space="preserve"></tspan></text></g></g><g class="edgeLabel"><g transform="translate(0, 0)" class="label"><rect height="0" width="0" ry="0" rx="0"></rect><text style=""><tspan class="row" x="0" dy="1em" xml:space="preserve"></tspan></text></g></g><g class="edgeLabel"><g transform="translate(0, 0)" class="label"><rect height="0" width="0" ry="0" rx="0"></rect><text style=""><tspan class="row" x="0" dy="1em" xml:space="preserve"></tspan></text></g></g><g class="edgeLabel"><g transform="translate(0, 0)" class="label"><rect height="0" width="0" ry="0" rx="0"></rect><text style=""><tspan class="row" x="0" dy="1em" xml:space="preserve"></tspan></text></g></g><g class="edgeLabel"><g transform="translate(0, 0)" class="label"><rect height="0" width="0" ry="0" rx="0"></rect><text style=""><tspan class="row" x="0" dy="1em" xml:space="preserve"></tspan></text></g></g><g class="edgeLabel"><g transform="translate(0, 0)" class="label"><rect height="0" width="0" ry="0" rx="0"></rect><text style=""><tspan class="row" x="0" dy="1em" xml:space="preserve"></tspan></text></g></g><g class="edgeLabel"><g transform="translate(0, 0)" class="label"><rect height="0" width="0" ry="0" rx="0"></rect><text style=""><tspan class="row" x="0" dy="1em" xml:space="preserve"></tspan></text></g></g><g class="edgeLabel"><g transform="translate(0, 0)" class="label"><rect height="0" width="0" ry="0" rx="0"></rect><text style=""><tspan class="row" x="0" dy="1em" xml:space="preserve"></tspan></text></g></g><g class="edgeLabel"><g transform="translate(0, 0)" class="label"><rect height="0" width="0" ry="0" rx="0"></rect><text style=""><tspan class="row" x="0" dy="1em" xml:space="preserve"></tspan></text></g></g><g class="edgeLabel"><g transform="translate(0, 0)" class="label"><rect height="0" width="0" ry="0" rx="0"></rect><text style=""><tspan class="row" x="0" dy="1em" xml:space="preserve"></tspan></text></g></g><g class="edgeLabel"><g transform="translate(0, 0)" class="label"><rect height="0" width="0" ry="0" rx="0"></rect><text style=""><tspan class="row" x="0" dy="1em" xml:space="preserve"></tspan></text></g></g><g class="edgeLabel"><g transform="translate(0, 0)" class="label"><rect height="0" width="0" ry="0" rx="0"></rect><text style=""><tspan class="row" x="0" dy="1em" xml:space="preserve"></tspan></text></g></g><g class="edgeLabel"><g transform="translate(0, 0)" class="label"><rect height="0" width="0" ry="0" rx="0"></rect><text style=""><tspan class="row" x="0" dy="1em" xml:space="preserve"></tspan></text></g></g><g class="edgeLabel"><g transform="translate(0, 0)" class="label"><rect height="0" width="0" ry="0" rx="0"></rect><text style=""><tspan class="row" x="0" dy="1em" xml:space="preserve"></tspan></text></g></g><g class="edgeLabel"><g transform="translate(0, 0)" class="label"><rect height="0" width="0" ry="0" rx="0"></rect><text style=""><tspan class="row" x="0" dy="1em" xml:space="preserve"></tspan></text></g></g></g><g class="nodes"><g transform="translate(742.6015682220459, 16.83333396911621)" data-id="json" data-node="true" id="flowchart-json-8362" class="node default default flowchart-label"><rect height="33.66666793823242" width="50.1875" y="-16.83333396911621" x="-25.09375" ry="0" rx="0" style="" class="basic label-container"></rect><g transform="translate(0, -9.333333969116211)" style="" class="label"><rect></rect><text style=""><tspan class="row" x="0" dy="1em" xml:space="preserve">json</tspan></text></g></g><g transform="translate(742.6015682220459, 100.50000190734863)" data-id="element" data-node="true" id="flowchart-element-8363" class="node default default flowchart-label"><rect height="33.66666793823242" width="76.58333587646484" y="-16.83333396911621" x="-38.29166793823242" ry="0" rx="0" style="" class="basic label-container"></rect><g transform="translate(0, -9.333333969116211)" style="" class="label"><rect></rect><text style=""><tspan class="row" x="0" dy="1em" xml:space="preserve">element</tspan></text></g></g><g transform="translate(49.5390625, 518.8333415985107)" data-id="ws" data-node="true" id="flowchart-ws-8365" class="node default default flowchart-label"><rect height="33.66666793823242" width="32.59375" y="-16.83333396911621" x="-16.296875" ry="0" rx="0" style="" class="basic label-container"></rect><g transform="translate(0, -9.333333969116211)" style="" class="label"><rect></rect><text style=""><tspan class="row" x="0" dy="1em" xml:space="preserve">ws</tspan></text></g></g><g transform="translate(619.2161502838135, 184.16666984558105)" data-id="value" data-node="true" id="flowchart-value-8367" class="node default default flowchart-label"><rect height="33.66666793823242" width="58.989585876464844" y="-16.83333396911621" x="-29.494792938232422" ry="0" rx="0" style="" class="basic label-container"></rect><g transform="translate(0, -9.333333969116211)" style="" class="label"><rect></rect><text style=""><tspan class="row" x="0" dy="1em" xml:space="preserve">value</tspan></text></g></g><g transform="translate(33.890625, 267.8333377838135)" data-id="object" data-node="true" id="flowchart-object-8369" class="node default default flowchart-label"><rect height="33.66666793823242" width="67.78125" y="-16.83333396911621" x="-33.890625" ry="0" rx="0" style="" class="basic label-container"></rect><g transform="translate(0, -9.333333969116211)" style="" class="label"><rect></rect><text style=""><tspan class="row" x="0" dy="1em" xml:space="preserve">object</tspan></text></g></g><g transform="translate(70.53645896911621, 351.5000057220459)" data-id="members" data-node="true" id="flowchart-members-8375" class="node default default flowchart-label"><rect height="33.66666793823242" width="76.58333587646484" y="-16.83333396911621" x="-38.29166793823242" ry="0" rx="0" style="" class="basic label-container"></rect><g transform="translate(0, -9.333333969116211)" style="" class="label"><rect></rect><text style=""><tspan class="row" x="0" dy="1em" xml:space="preserve">members</tspan></text></g></g><g transform="translate(268.36718940734863, 435.1666736602783)" data-id="member" data-node="true" id="flowchart-member-8377" class="node default default flowchart-label"><rect height="33.66666793823242" width="67.78125" y="-16.83333396911621" x="-33.890625" ry="0" rx="0" style="" class="basic label-container"></rect><g transform="translate(0, -9.333333969116211)" style="" class="label"><rect></rect><text style=""><tspan class="row" x="0" dy="1em" xml:space="preserve">member</tspan></text></g></g><g transform="translate(278.36718940734863, 518.8333415985107)" data-id="string" data-node="true" id="flowchart-string-8381" class="node default default flowchart-label"><rect height="33.66666793823242" width="67.78125" y="-16.83333396911621" x="-33.890625" ry="0" rx="0" style="" class="basic label-container"></rect><g transform="translate(0, -9.333333969116211)" style="" class="label"><rect></rect><text style=""><tspan class="row" x="0" dy="1em" xml:space="preserve">string</tspan></text></g></g><g transform="translate(173.87500095367432, 267.8333377838135)" data-id="array" data-node="true" id="flowchart-array-8385" class="node default default flowchart-label"><rect height="33.66666793823242" width="58.989585876464844" y="-16.83333396911621" x="-29.494792938232422" ry="0" rx="0" style="" class="basic label-container"></rect><g transform="translate(0, -9.333333969116211)" style="" class="label"><rect></rect><text style=""><tspan class="row" x="0" dy="1em" xml:space="preserve">array</tspan></text></g></g><g transform="translate(470.43750381469727, 686.1666774749756)" data-id="number" data-node="true" id="flowchart-number-8391" class="node default default flowchart-label"><rect height="33.66666793823242" width="67.78125" y="-16.83333396911621" x="-33.890625" ry="0" rx="0" style="" class="basic label-container"></rect><g transform="translate(0, -9.333333969116211)" style="" class="label"><rect></rect><text style=""><tspan class="row" x="0" dy="1em" xml:space="preserve">number</tspan></text></g></g><g transform="translate(400.54948234558105, 769.833345413208)" data-id="integer" data-node="true" id="flowchart-integer-8393" class="node default default flowchart-label"><rect height="33.66666793823242" width="76.58333587646484" y="-16.83333396911621" x="-38.29166793823242" ry="0" rx="0" style="" class="basic label-container"></rect><g transform="translate(0, -9.333333969116211)" style="" class="label"><rect></rect><text style=""><tspan class="row" x="0" dy="1em" xml:space="preserve">integer</tspan></text></g></g><g transform="translate(306.2161474227905, 937.1666812896729)" data-id="digit" data-node="true" id="flowchart-digit-8395" class="node default default flowchart-label"><rect height="33.66666793823242" width="58.989585876464844" y="-16.83333396911621" x="-29.494792938232422" ry="0" rx="0" style="" class="basic label-container"></rect><g transform="translate(0, -9.333333969116211)" style="" class="label"><rect></rect><text style=""><tspan class="row" x="0" dy="1em" xml:space="preserve">digit</tspan></text></g></g><g transform="translate(339.45833587646484, 1020.8333492279053)" data-id="onenine" data-node="true" id="flowchart-onenine-8397" class="node default default flowchart-label"><rect height="33.66666793823242" width="76.58333587646484" y="-16.83333396911621" x="-38.29166793823242" ry="0" rx="0" style="" class="basic label-container"></rect><g transform="translate(0, -9.333333969116211)" style="" class="label"><rect></rect><text style=""><tspan class="row" x="0" dy="1em" xml:space="preserve">onenine</tspan></text></g></g><g transform="translate(278.36718940734863, 602.5000095367432)" data-id="characters" data-node="true" id="flowchart-characters-8399" class="node default default flowchart-label"><rect height="33.66666793823242" width="102.96875" y="-16.83333396911621" x="-51.484375" ry="0" rx="0" style="" class="basic label-container"></rect><g transform="translate(0, -9.333333969116211)" style="" class="label"><rect></rect><text style=""><tspan class="row" x="0" dy="1em" xml:space="preserve">characters</tspan></text></g></g><g transform="translate(278.36718940734863, 686.1666774749756)" data-id="character" data-node="true" id="flowchart-character-8401" class="node default default flowchart-label"><rect height="33.66666793823242" width="94.17708587646484" y="-16.83333396911621" x="-47.08854293823242" ry="0" rx="0" style="" class="basic label-container"></rect><g transform="translate(0, -9.333333969116211)" style="" class="label"><rect></rect><text style=""><tspan class="row" x="0" dy="1em" xml:space="preserve">character</tspan></text></g></g><g transform="translate(278.36718940734863, 769.833345413208)" data-id="escape" data-node="true" id="flowchart-escape-8403" class="node default default flowchart-label"><rect height="33.66666793823242" width="67.78125" y="-16.83333396911621" x="-33.890625" ry="0" rx="0" style="" class="basic label-container"></rect><g transform="translate(0, -9.333333969116211)" style="" class="label"><rect></rect><text style=""><tspan class="row" x="0" dy="1em" xml:space="preserve">escape</tspan></text></g></g><g transform="translate(278.36718940734863, 853.5000133514404)" data-id="hex" data-node="true" id="flowchart-hex-8405" class="node default default flowchart-label"><rect height="33.66666793823242" width="41.39583396911621" y="-16.83333396911621" x="-20.697916984558105" ry="0" rx="0" style="" class="basic label-container"></rect><g transform="translate(0, -9.333333969116211)" style="" class="label"><rect></rect><text style=""><tspan class="row" x="0" dy="1em" xml:space="preserve">hex</tspan></text></g></g><g transform="translate(548.1250038146973, 351.5000057220459)" data-id="elements" data-node="true" id="flowchart-elements-8413" class="node default default flowchart-label"><rect height="33.66666793823242" width="85.375" y="-16.83333396911621" x="-42.6875" ry="0" rx="0" style="" class="basic label-container"></rect><g transform="translate(0, -9.333333969116211)" style="" class="label"><rect></rect><text style=""><tspan class="row" x="0" dy="1em" xml:space="preserve">elements</tspan></text></g></g><g transform="translate(531.5286502838135, 769.833345413208)" data-id="fraction" data-node="true" id="flowchart-fraction-8417" class="node default default flowchart-label"><rect height="33.66666793823242" width="85.375" y="-16.83333396911621" x="-42.6875" ry="0" rx="0" style="" class="basic label-container"></rect><g transform="translate(0, -9.333333969116211)" style="" class="label"><rect></rect><text style=""><tspan class="row" x="0" dy="1em" xml:space="preserve">fraction</tspan></text></g></g><g transform="translate(531.5286502838135, 853.5000133514404)" data-id="digits" data-node="true" id="flowchart-digits-8419" class="node default default flowchart-label"><rect height="33.66666793823242" width="67.78125" y="-16.83333396911621" x="-33.890625" ry="0" rx="0" style="" class="basic label-container"></rect><g transform="translate(0, -9.333333969116211)" style="" class="label"><rect></rect><text style=""><tspan class="row" x="0" dy="1em" xml:space="preserve">digits</tspan></text></g></g><g transform="translate(719.1041717529297, 267.8333377838135)" data-id="boolean" data-node="true" id="flowchart-boolean-8429" class="node default default flowchart-label"><rect height="33.66666793823242" width="76.58333587646484" y="-16.83333396911621" x="-38.29166793823242" ry="0" rx="0" style="" class="basic label-container"></rect><g transform="translate(0, -9.333333969116211)" style="" class="label"><rect></rect><text style=""><tspan class="row" x="0" dy="1em" xml:space="preserve">boolean</tspan></text></g></g><g transform="translate(673.7083377838135, 769.833345413208)" data-id="exponent" data-node="true" id="flowchart-exponent-8433" class="node default default flowchart-label"><rect height="33.66666793823242" width="85.375" y="-16.83333396911621" x="-42.6875" ry="0" rx="0" style="" class="basic label-container"></rect><g transform="translate(0, -9.333333969116211)" style="" class="label"><rect></rect><text style=""><tspan class="row" x="0" dy="1em" xml:space="preserve">exponent</tspan></text></g></g><g transform="translate(832.4895896911621, 267.8333377838135)" data-id="null" data-node="true" id="flowchart-null-8437" class="node default default flowchart-label"><rect height="33.66666793823242" width="50.1875" y="-16.83333396911621" x="-25.09375" ry="0" rx="0" style="" class="basic label-container"></rect><g transform="translate(0, -9.333333969116211)" style="" class="label"><rect></rect><text style=""><tspan class="row" x="0" dy="1em" xml:space="preserve">null</tspan></text></g></g><g transform="translate(683.7083377838135, 853.5000133514404)" data-id="sign" data-node="true" id="flowchart-sign-8439" class="node default default flowchart-label"><rect height="33.66666793823242" width="50.1875" y="-16.83333396911621" x="-25.09375" ry="0" rx="0" style="" class="basic label-container"></rect><g transform="translate(0, -9.333333969116211)" style="" class="label"><rect></rect><text style=""><tspan class="row" x="0" dy="1em" xml:space="preserve">sign</tspan></text></g></g></g></g></g></svg>