<svg width="100" height="28" viewBox="0 0 100 28" fill="none" xmlns="http://www.w3.org/2000/svg">
<path fill-rule="evenodd" clip-rule="evenodd" d="M31.0472 22.2066H30.9291C30.9197 22.2963 30.8796 22.3412 30.8087 22.3412C30.778 22.3412 30.7237 22.327 30.6434 22.2963C30.4734 22.2373 30.3294 22.2066 30.2113 22.2066C29.6729 22.2161 29.3895 22.4711 29.3588 22.9693C29.3399 23.2881 29.5572 23.5573 30.0153 23.7746L30.2703 23.9092C30.5679 24.0178 30.7143 24.1736 30.7025 24.372C30.6836 24.6412 30.523 24.7805 30.2255 24.79C29.8264 24.79 29.5619 24.5208 29.4344 23.9847H29.3305V24.8962H29.4344C29.4533 24.8277 29.4934 24.7923 29.5548 24.7923C29.5832 24.7923 29.6398 24.8018 29.7178 24.823C29.8972 24.8726 30.0602 24.8986 30.2113 24.8986C30.7993 24.8797 31.1133 24.6199 31.1511 24.1217C31.1511 23.8124 31.0118 23.5786 30.7331 23.4204L30.1806 23.1512C30.0106 23.0709 29.9019 23.0024 29.8524 22.9434C29.8028 22.8843 29.7792 22.797 29.7792 22.6883C29.7886 22.4687 29.9279 22.3483 30.1971 22.3294C30.5466 22.3388 30.7945 22.5726 30.9433 23.0307H31.0472V22.2066ZM32.8112 22.3388C33.2386 22.3601 33.4629 22.7663 33.4842 23.5644C33.4842 24.372 33.2598 24.7805 32.8112 24.79C32.3531 24.7805 32.124 24.372 32.124 23.5644C32.1429 22.7686 32.372 22.3601 32.8112 22.3388ZM32.8112 22.2066C31.954 22.2656 31.5006 22.719 31.451 23.5668C31.5006 24.4121 31.954 24.8561 32.8112 24.8962C33.6589 24.8561 34.1052 24.4121 34.1548 23.5668C34.1052 22.719 33.6589 22.2656 32.8112 22.2066ZM36.9648 22.2656H36.1289V22.3554C36.3981 22.3554 36.5233 22.4853 36.502 22.7426V23.9068C36.5209 24.4546 36.2966 24.7286 35.829 24.7286C35.4512 24.7286 35.267 24.4806 35.2765 23.9824V22.7119C35.2765 22.5632 35.3024 22.4687 35.352 22.4286C35.3827 22.379 35.4819 22.353 35.6519 22.353V22.2633H34.3532V22.353C34.4925 22.3625 34.5775 22.3932 34.6058 22.4427C34.646 22.4829 34.6649 22.5726 34.6649 22.7119V23.9824C34.6554 24.3106 34.7451 24.5444 34.9341 24.6837C35.1135 24.823 35.3709 24.8939 35.711 24.8939C36.0392 24.8844 36.2895 24.7994 36.4572 24.6412C36.587 24.5019 36.6579 24.2587 36.6673 23.9092V22.6836C36.6461 22.4734 36.7476 22.3648 36.9648 22.3554V22.2656ZM38.998 24.7593C38.8185 24.7498 38.7194 24.7238 38.7005 24.6837C38.6509 24.6436 38.6249 24.5491 38.6249 24.4003V22.3837C39.0736 22.3743 39.3168 22.5868 39.3569 23.026H39.475L39.4608 22.2633H37.175L37.1608 23.026H37.2647C37.3143 22.5868 37.5623 22.3743 38.0109 22.3837V24.4003C38.0109 24.5491 37.985 24.6436 37.9354 24.6837C37.9165 24.7238 37.8173 24.7475 37.6378 24.7593V24.849H38.998V24.7593ZM42.4787 24.7593C42.3394 24.7404 42.2544 24.7144 42.2237 24.6837C42.1741 24.6436 42.1481 24.5751 42.1481 24.4735V22.6364C42.1386 22.4475 42.2473 22.353 42.4763 22.353V22.2633H41.1776V22.353C41.4161 22.353 41.5318 22.4475 41.5223 22.6364V23.4274H40.6108V22.6364C40.6014 22.4475 40.7147 22.353 40.9532 22.353V22.2633H39.6545V22.353C39.8835 22.353 39.9921 22.4475 39.9827 22.6364V24.4735C39.9827 24.5727 39.9567 24.6436 39.9095 24.6837C39.8788 24.7144 39.7938 24.738 39.6545 24.7593V24.849H40.9532V24.7593C40.8139 24.7404 40.7242 24.7144 40.684 24.6837C40.6344 24.6436 40.6085 24.5751 40.6085 24.4735V23.6069H41.52V24.4735C41.52 24.5727 41.4963 24.6436 41.4444 24.6837C41.4043 24.7144 41.3145 24.738 41.1752 24.7593V24.849H42.474V24.7593H42.4787ZM46.0208 24.2681C45.7421 24.5963 45.4422 24.7569 45.1234 24.7451C44.8637 24.7262 44.6701 24.6105 44.5402 24.4003C44.4316 24.2209 44.3749 23.9422 44.3749 23.5644C44.3749 22.7474 44.6087 22.3388 45.0786 22.3388C45.4469 22.3601 45.7468 22.6175 45.9759 23.1157H46.0656V22.2208H45.9617C45.9216 22.3388 45.8673 22.4002 45.7964 22.4002C45.7775 22.4002 45.7161 22.3814 45.617 22.3412C45.3879 22.2515 45.199 22.2066 45.0502 22.2066C44.2143 22.2656 43.7656 22.7238 43.7066 23.5809C43.7656 24.4263 44.219 24.8655 45.0668 24.8962C45.4753 24.9057 45.8342 24.7262 46.1412 24.3578L46.0208 24.2681ZM49.1567 24.7593C49.0174 24.7404 48.9324 24.7144 48.9017 24.6837C48.8521 24.6436 48.8261 24.5751 48.8261 24.4735V22.6364C48.8166 22.4475 48.9253 22.353 49.1543 22.353V22.2633H47.8556V22.353C48.0941 22.353 48.2098 22.4475 48.2003 22.6364V23.4274H47.2888V22.6364C47.2794 22.4475 47.3927 22.353 47.6336 22.353V22.2633H46.3348V22.353C46.5639 22.353 46.6725 22.4475 46.6631 22.6364V24.4735C46.6631 24.5727 46.6371 24.6436 46.5875 24.6837C46.5568 24.7144 46.4718 24.738 46.3325 24.7593V24.849H47.6312V24.7593C47.4919 24.7404 47.4022 24.7144 47.362 24.6837C47.3124 24.6436 47.2865 24.5751 47.2865 24.4735V23.6069H48.198V24.4735C48.198 24.5727 48.172 24.6436 48.1224 24.6837C48.0823 24.7144 47.9925 24.738 47.8532 24.7593V24.849H49.152V24.7593H49.1567ZM50.6514 24.7593C50.3917 24.7593 50.2665 24.6648 50.2783 24.4759V22.6387C50.2689 22.4498 50.3822 22.3554 50.6231 22.3554H50.6538V22.2656H49.3078V22.3554C49.5581 22.3554 49.6762 22.4498 49.6667 22.6387V24.4759C49.6667 24.5751 49.6431 24.6459 49.5912 24.6861C49.551 24.7168 49.4566 24.7404 49.3078 24.7616V24.8514H50.6538V24.7593H50.6514ZM51.6385 24.849V24.7593C51.3787 24.7593 51.2607 24.6294 51.2796 24.372V22.8465L52.9821 24.8939H53.086V22.6694C53.0648 22.4805 53.1663 22.3743 53.3836 22.3554V22.2656H52.5618V22.3554C52.8216 22.3648 52.9396 22.4947 52.9207 22.7426V23.8926L51.5913 22.2633H50.7837V22.353C50.8333 22.3436 50.9419 22.438 51.1119 22.6364V24.4452C51.1119 24.5538 51.0859 24.6294 51.0364 24.6695C50.9962 24.7097 50.9065 24.738 50.7672 24.7593V24.849H51.6385ZM54.177 23.954L54.5359 23.0118L54.9232 23.954H54.177ZM56.0897 24.7593C56.0094 24.7593 55.9457 24.7238 55.8961 24.6554C55.8559 24.6152 55.7827 24.4712 55.6718 24.2232L54.8193 22.2066H54.7154L53.8629 24.313C53.7732 24.6129 53.648 24.7616 53.4898 24.7616V24.8514H54.2667V24.7616H54.2526C54.0542 24.7309 53.9527 24.6766 53.9527 24.5987C53.9432 24.5491 54.0023 24.3838 54.1321 24.1052H54.9846C55.0932 24.3437 55.1546 24.5137 55.1641 24.6129C55.1829 24.7026 55.0956 24.7522 54.8949 24.7616H54.85V24.8514H56.0897V24.7593ZM58.0922 24.849V24.7593C57.8324 24.7593 57.7144 24.6294 57.7332 24.372V22.8465L59.4358 24.8939H59.5397V22.6694C59.5185 22.4805 59.62 22.3743 59.8372 22.3554V22.2656H59.0155V22.3554C59.2752 22.3648 59.3933 22.4947 59.3744 22.7426V23.8926L58.0449 22.2633H57.2374V22.353C57.2869 22.3436 57.3979 22.438 57.5656 22.6364V24.4452C57.5656 24.5538 57.5396 24.6294 57.49 24.6695C57.4499 24.7097 57.3601 24.738 57.2208 24.7593V24.849H58.0922ZM61.4099 22.3388C61.8373 22.3601 62.0617 22.7663 62.0806 23.5644C62.0806 24.372 61.8562 24.7805 61.4099 24.79C60.9518 24.7805 60.7228 24.372 60.7228 23.5644C60.744 22.7686 60.9731 22.3601 61.4099 22.3388ZM61.4099 22.2066C60.5527 22.2656 60.0993 22.719 60.0498 23.5668C60.0993 24.4121 60.5527 24.8561 61.4099 24.8962C62.2553 24.8561 62.704 24.4121 62.7536 23.5668C62.7063 22.719 62.2577 22.2656 61.4099 22.2066ZM63.9508 22.549C63.9319 22.4286 64.0098 22.379 64.1893 22.4002C64.4986 22.4002 64.6521 22.5844 64.6521 22.9528C64.6521 23.1819 64.6025 23.3354 64.501 23.4156C64.4112 23.4959 64.2271 23.5337 63.9484 23.5337V22.549H63.9508ZM65.625 24.7593C65.5754 24.7593 65.5258 24.7357 65.4762 24.6837L64.6993 23.5927C65.1079 23.4747 65.3062 23.2551 65.2968 22.9363C65.2873 22.4971 64.9284 22.2727 64.2223 22.2633H62.9968V22.353C63.1361 22.3625 63.2211 22.3884 63.2518 22.4286C63.3014 22.4782 63.3274 22.5726 63.3274 22.7119V24.4003C63.3274 24.5397 63.3061 24.6341 63.2683 24.6837C63.2376 24.7238 63.1479 24.7475 62.9991 24.7593V24.849H64.2837V24.7593C64.1232 24.7404 64.0334 24.7097 64.0145 24.6695C63.9744 24.6294 63.9555 24.5397 63.9555 24.4003V23.6541H64.0594L64.8505 24.849H65.6274V24.7593H65.625ZM69.1647 24.7593C69.0065 24.7404 68.912 24.7097 68.8814 24.6695C68.8412 24.6294 68.8223 24.5397 68.8223 24.4003V22.7119C68.8223 22.5726 68.8483 22.4782 68.8979 22.4286C68.9286 22.3884 69.0183 22.3648 69.1671 22.353V22.2633H68.1965L67.4338 24.0721L66.6711 22.2633H65.7006V22.353C65.9485 22.3625 66.0642 22.4569 66.0453 22.6364V24.4452C66.0453 24.5656 66.0264 24.6436 65.9863 24.6837C65.9461 24.7238 65.8517 24.7475 65.7029 24.7593V24.849H66.5837V24.7593C66.4326 24.7498 66.3334 24.7144 66.2838 24.6554C66.2342 24.6058 66.2083 24.5113 66.2083 24.372V22.5939L67.1646 24.849H67.2685L68.2249 22.5325H68.2391V24.4594C68.2391 24.568 68.2131 24.6436 68.1635 24.6837C68.1328 24.7144 68.0431 24.738 67.8943 24.7593V24.849H69.1647V24.7593ZM69.9581 23.954L70.3171 23.0118L70.7043 23.954H69.9581ZM71.8709 24.7593C71.7906 24.7593 71.7268 24.7238 71.6772 24.6554C71.6371 24.6152 71.5639 24.4712 71.4529 24.2232L70.6004 22.2066H70.4965L69.6441 24.313C69.5543 24.6129 69.4292 24.7616 69.271 24.7616V24.8514H70.0479V24.7616H70.0313C69.833 24.7309 69.7314 24.6766 69.7314 24.5987C69.722 24.5491 69.781 24.3838 69.9109 24.1052H70.7634C70.872 24.3437 70.931 24.5137 70.9428 24.6129C70.9617 24.7026 70.8744 24.7522 70.6736 24.7616H70.6288V24.8514H71.8685V24.7593H71.8709ZM74.4259 23.9847H74.322C74.1425 24.5019 73.819 24.7522 73.3515 24.7309C73.1011 24.7522 72.9878 24.6813 73.0091 24.5231V22.7143C73.0091 22.5655 73.035 22.4711 73.0846 22.4309C73.1248 22.3813 73.2287 22.3554 73.3987 22.3554V22.2656H72.0692V22.3554C72.2983 22.3554 72.4069 22.4498 72.3975 22.6387V24.4759C72.3975 24.5751 72.3738 24.6459 72.3219 24.6861C72.2912 24.7168 72.2062 24.7404 72.0669 24.7616V24.8514H74.2795L74.4259 23.9847ZM78.1592 22.2656H77.3233V22.3554C77.5925 22.3554 77.7177 22.4853 77.6964 22.7426V23.9068C77.7153 24.4546 77.491 24.7286 77.0234 24.7286C76.6456 24.7286 76.4614 24.4806 76.4708 23.9824V22.7119C76.4708 22.5632 76.4968 22.4687 76.5464 22.4286C76.5771 22.379 76.6763 22.353 76.8463 22.353V22.2633H75.5475V22.353C75.6869 22.3625 75.7719 22.3932 75.8002 22.4427C75.8404 22.4829 75.8592 22.5726 75.8592 22.7119V23.9824C75.8498 24.3106 75.9395 24.5444 76.1284 24.6837C76.3079 24.823 76.5653 24.8939 76.9053 24.8939C77.2336 24.8844 77.4839 24.7994 77.6515 24.6412C77.7814 24.5019 77.8499 24.2587 77.8617 23.9092V22.6836C77.8405 22.4734 77.942 22.3648 78.1592 22.3554V22.2656ZM79.1628 24.849V24.7593C78.9031 24.7593 78.785 24.6294 78.8039 24.372V22.8465L80.5065 24.8939H80.6104V22.6694C80.5891 22.4805 80.6906 22.3743 80.9079 22.3554V22.2656H80.0861V22.3554C80.3459 22.3648 80.464 22.4947 80.4451 22.7426V23.8926L79.1156 22.2633H78.308V22.353C78.3576 22.3436 78.4686 22.438 78.6362 22.6364V24.4452C78.6362 24.5538 78.6126 24.6294 78.5607 24.6695C78.5205 24.7097 78.4308 24.738 78.2915 24.7593V24.849H79.1628ZM82.405 24.7593C82.1453 24.7593 82.0201 24.6648 82.0319 24.4759V22.6387C82.0225 22.4498 82.1358 22.3554 82.3767 22.3554H82.4074V22.2656H81.0614V22.3554C81.3093 22.3554 81.4298 22.4498 81.4203 22.6387V24.4759C81.4203 24.5751 81.3967 24.6459 81.3447 24.6861C81.3046 24.7168 81.2101 24.7404 81.0614 24.7616V24.8514H82.4074V24.7593H82.405ZM84.3319 22.2656V22.3554C84.4712 22.3648 84.5562 22.3814 84.5846 22.4002C84.6342 22.4191 84.6601 22.464 84.6601 22.5348C84.6601 22.575 84.6412 22.6435 84.6011 22.745C84.5917 22.7757 84.5869 22.7946 84.5869 22.804L84.0934 24.0579L83.5999 22.8465C83.5196 22.6883 83.4818 22.5773 83.4818 22.5183C83.4818 22.4475 83.5007 22.4097 83.5408 22.3979C83.5692 22.379 83.6589 22.3625 83.81 22.353V22.2633H82.5254V22.353C82.6742 22.353 82.7852 22.4427 82.8537 22.6222L83.8266 24.8939H83.9305L84.7971 22.6671C84.8679 22.4593 84.9813 22.353 85.1419 22.353V22.2656H84.3319ZM85.2741 22.3554C85.5126 22.3554 85.6283 22.4498 85.6189 22.6387V24.4759C85.6189 24.5751 85.5952 24.6459 85.5433 24.6861C85.5126 24.7168 85.4229 24.7404 85.2741 24.7616V24.8514H87.515L87.6638 24.0603H87.5599C87.371 24.5184 87.0381 24.7427 86.5587 24.7333C86.3202 24.7427 86.2116 24.6743 86.2305 24.5255V23.5998C86.4383 23.5998 86.5894 23.64 86.6791 23.7203C86.7689 23.81 86.8279 23.9635 86.8586 24.1831H86.9483V22.8985H86.8586C86.8279 23.1181 86.7689 23.2669 86.6791 23.3472C86.5894 23.4274 86.4406 23.4652 86.2305 23.4652V22.5844C86.2116 22.4451 86.306 22.3861 86.5138 22.405C86.8137 22.405 87.0215 22.4498 87.1419 22.5396C87.2718 22.6293 87.3521 22.7946 87.3805 23.0331H87.4867V22.2704H85.2741V22.3554ZM88.8138 22.549C88.7949 22.4286 88.8728 22.379 89.0523 22.4002C89.3617 22.4002 89.5151 22.5844 89.5151 22.9528C89.5151 23.1819 89.4656 23.3354 89.3664 23.4156C89.2766 23.4959 89.0925 23.5337 88.8138 23.5337V22.549ZM90.488 24.7593C90.4384 24.7593 90.3889 24.7357 90.3393 24.6837L89.5624 23.5927C89.9709 23.4747 90.1692 23.2551 90.1598 22.9363C90.1504 22.4971 89.7914 22.2727 89.0854 22.2633H87.8598V22.353C87.9991 22.3625 88.0841 22.3884 88.1148 22.4286C88.1644 22.4782 88.1904 22.5726 88.1904 22.7119V24.4003C88.1904 24.5397 88.1692 24.6341 88.1314 24.6837C88.1007 24.7238 88.0109 24.7475 87.8622 24.7593V24.849H89.1468V24.7593C88.9862 24.7404 88.8965 24.7097 88.8776 24.6695C88.8374 24.6294 88.8185 24.5397 88.8185 24.4003V23.6541H88.9224L89.7135 24.849H90.4904V24.7593H90.488ZM92.3559 22.2066H92.2378C92.2284 22.2963 92.1882 22.3412 92.1174 22.3412C92.0867 22.3412 92.0324 22.327 91.9521 22.2963C91.7821 22.2373 91.638 22.2066 91.52 22.2066C90.9816 22.2161 90.6982 22.4711 90.6675 22.9693C90.6486 23.2881 90.8659 23.5573 91.324 23.7746L91.579 23.9092C91.8765 24.0178 92.0229 24.1736 92.0111 24.372C91.9922 24.6412 91.8317 24.7805 91.5318 24.79C91.1327 24.79 90.8706 24.5208 90.7407 23.9847H90.6368V24.8962H90.7407C90.7596 24.8277 90.7997 24.7923 90.8611 24.7923C90.8895 24.7923 90.9461 24.8018 91.0241 24.823C91.2035 24.8726 91.3688 24.8986 91.5176 24.8986C92.1056 24.8797 92.4196 24.6199 92.4574 24.1217C92.4574 23.8124 92.3181 23.5786 92.0395 23.4204L91.4869 23.1512C91.3169 23.0709 91.2083 23.0024 91.1587 22.9434C91.1091 22.8843 91.0855 22.797 91.0855 22.6883C91.0949 22.4687 91.2342 22.3483 91.5034 22.3294C91.8529 22.3388 92.1009 22.5726 92.2496 23.0307H92.3559V22.2066ZM94.0443 24.7593C93.7845 24.7593 93.6617 24.6648 93.6712 24.4759V22.6387C93.6617 22.4498 93.7751 22.3554 94.0136 22.3554H94.0443V22.2656H92.6983V22.3554C92.9462 22.3554 93.0667 22.4498 93.0572 22.6387V24.4759C93.0572 24.5751 93.0336 24.6459 92.984 24.6861C92.9439 24.7168 92.8494 24.7404 92.7007 24.7616V24.8514H94.0466V24.7593H94.0443ZM96.0609 24.7593C95.8814 24.7498 95.7823 24.7238 95.7634 24.6837C95.7138 24.6436 95.6878 24.5491 95.6878 24.4003V22.3837C96.1365 22.3743 96.3797 22.5868 96.4198 23.026H96.5379L96.5237 22.2633H94.2379L94.2237 23.026H94.3276C94.3772 22.5868 94.6252 22.3743 95.0738 22.3837V24.4003C95.0738 24.5491 95.0479 24.6436 94.9983 24.6837C94.9794 24.7238 94.8779 24.7475 94.7008 24.7593V24.849H96.0609V24.7593ZM98.4813 22.2656V22.3554C98.7009 22.3648 98.8048 22.4239 98.7954 22.5348C98.7859 22.634 98.7364 22.7497 98.6466 22.8796L98.2287 23.5975L97.7658 22.7001C97.7658 22.6907 97.7564 22.6742 97.7375 22.6553C97.6973 22.575 97.6761 22.5207 97.6761 22.49C97.6478 22.3908 97.7517 22.3459 97.9902 22.3554V22.2656H96.7056V22.3554C96.8354 22.3648 96.9346 22.4357 97.0055 22.5655L97.7068 23.836V24.4051C97.7068 24.5444 97.6832 24.6341 97.6336 24.6743C97.6029 24.7238 97.5084 24.7545 97.3502 24.764V24.8537H98.6797V24.764C98.5215 24.7545 98.4247 24.7286 98.3963 24.6884C98.3562 24.6483 98.3373 24.5538 98.3373 24.4051V23.7014L99.0693 22.5065C99.1189 22.4262 99.1992 22.3766 99.3078 22.3577H99.322V22.2656H98.4813Z" fill="#000000"/>
<path fill-rule="evenodd" clip-rule="evenodd" d="M32.4664 8.46335C33.0827 8.46335 32.9079 10.0526 32.9079 10.0526L31.4982 10.8011C31.4982 10.8011 30.7945 11.4552 31.85 11.4552C32.9079 11.4552 34.1406 10.428 34.1406 10.428L33.9635 12.4848C33.9635 12.4848 29.9113 14.8226 29.3824 14.8226C28.8534 14.8226 28.3245 15.4767 29.2053 15.9442C30.0861 16.4118 29.7342 16.3173 30.7024 15.5711C31.6706 14.8226 33.8737 13.4223 33.8737 13.4223L33.9611 15.0115L32.3743 16.1331C32.3743 16.1331 31.4061 16.6337 32.3743 17.2548C33.3424 17.8758 34.0485 17.1603 34.0485 17.1603C34.0485 17.1603 33.9611 18.282 33.8714 18.844C33.784 19.406 33.2551 19.6847 34.1359 20.6198C35.0167 21.5549 35.4889 21.1487 35.4889 20.3081C35.4889 19.4674 35.2811 15.9442 35.2811 15.9442C35.2811 15.9442 36.339 15.6632 36.5138 15.1957C36.6909 14.7281 36.5138 14.6337 35.633 14.6337C34.7522 14.6337 34.7522 14.3526 34.7522 14.3526L35.0214 12.6761C35.0214 12.6761 37.4253 11.9606 38.5351 11.4316C39.4584 10.9924 39.4891 10.6736 39.2624 10.5154C38.972 10.3123 38.1927 10.3548 37.6874 10.5248C36.4949 10.9216 35.1206 11.741 35.1206 11.741L35.2811 10.4257C35.2811 10.4257 35.4582 9.304 36.1619 9.304C36.8656 9.304 38.188 8.55544 38.1006 8.08789C38.0133 7.62034 37.7653 7.72424 37.1466 7.81869C36.9034 7.85647 36.6531 7.10319 36.5374 7.17403C36.0816 7.4574 36.4453 8.7231 35.47 8.55544C35.2315 8.5153 35.4866 8.24374 35.3638 8.20596C35.0922 8.11859 34.7805 8.15873 34.5869 8.50113L34.0131 9.51653C34.0131 9.51653 33.5195 8.3689 33.9588 7.90134C34.4003 7.43379 37.9235 5.28492 37.9235 5.28492C37.9235 5.28492 38.3651 4.06881 37.3946 4.44427C36.4264 4.81737 34.7522 6.50104 34.7522 6.50104C34.7522 6.50104 34.4003 7.2496 34.1359 6.68759C33.8714 6.12558 34.313 5.56593 33.8714 5.47147C33.4298 5.37702 32.6387 4.90946 32.6387 5.65802C32.6387 5.95083 32.4286 5.98626 32.2916 6.1303C32.1074 6.32157 32.1358 6.40658 32.1452 6.46326C32.157 6.52701 32.1735 6.55063 32.3436 6.62147C32.6387 6.74662 32.6387 7.24724 32.6387 7.24724C32.3743 7.35114 32.0673 7.38184 31.9374 7.58728C31.7272 7.92968 31.8618 8.46335 32.4664 8.46335Z" fill="#000000"/>
<path fill-rule="evenodd" clip-rule="evenodd" d="M56.4557 6.95204C56.4557 6.95204 56.9775 7.37001 56.9775 7.86826C56.9775 8.36651 56.2195 9.82585 55.5442 10.5791C55.0176 11.1671 54.2431 12.0385 53.9077 12.473C53.7543 12.6713 53.6645 12.8012 53.9573 12.9169C54.184 13.009 54.5288 13.035 54.661 12.8224C54.8688 12.48 57.7308 9.27801 58.1346 8.76559C58.5526 8.22955 58.5195 7.7313 58.0402 7.3464C57.0153 6.51755 56.4557 6.95204 56.4557 6.95204ZM54.8287 15.6231C54.7224 17.276 54.9656 17.5122 55.2325 17.5476C55.497 17.5806 56.2432 17.5027 56.1888 15.8946C56.1369 14.2865 54.8381 14.1732 54.8381 14.1732L54.8287 15.6231ZM57.2656 13.7387C57.2042 13.7883 56.5076 14.1661 56.5242 14.5911C56.5383 15.0185 56.5549 15.9041 57.0177 15.9536C57.4829 16.0032 57.9457 15.6419 57.8229 14.8532C57.7001 14.0669 57.327 13.6891 57.2656 13.7387ZM57.4569 10.8483C57.4569 10.8483 56.3872 12.3525 55.9787 12.6713C55.5725 12.9901 56.0849 13.2192 56.4722 13.3325C56.8571 13.4459 57.4569 13.6064 57.6505 12.9689C57.8442 12.3313 57.8206 11.9417 57.9929 11.8519C58.1653 11.7622 58.2928 11.1671 58.0803 10.9853C57.8654 10.8035 57.4569 10.8483 57.4569 10.8483ZM58.3708 14.1802C58.3708 14.1802 58.1984 14.9619 58.7486 14.8532C59.2964 14.7446 60.0167 14.0716 60.0332 14.4164C60.0497 14.7611 60.019 18.4827 60.019 18.7802C60.019 19.0778 60.411 19.4131 60.6164 19.4131C60.8219 19.4131 61.2871 19.1958 61.2871 18.3056V14.4849C61.2871 14.4849 61.8467 14.9005 62.7606 13.316C63.3887 12.2274 62.9495 11.9157 62.6142 11.8259C62.3285 11.7504 62.3403 11.7905 62.1159 11.9464C61.8349 12.1447 61.3485 12.4635 61.1171 12.4635C60.7817 12.4635 61.0982 12.1872 60.9305 12.1872C60.7629 12.1872 60.3142 12.0692 60.3142 12.2864C60.3142 12.5037 60.2953 13.4742 60.2953 13.4742L58.3708 14.1802ZM61.6295 12.6548C61.5185 12.7918 61.1785 13.2215 61.3367 13.3278C61.4949 13.434 61.7452 13.5214 61.9223 13.2215C62.097 12.9216 62.5245 12.6477 62.2553 12.5485C61.9861 12.4494 61.6295 12.6548 61.6295 12.6548ZM59.1736 11.4623C59.3271 11.715 59.6081 11.9983 60.0355 11.9511C60.7983 11.8685 61.9719 10.8672 62.3639 10.513C62.7559 10.1588 63.1856 9.72195 62.8527 9.38663C62.5197 9.05368 62.1679 9.11507 61.5421 9.63694C61.0911 10.01 60.0261 10.6122 59.4405 10.9121C59.0721 11.0986 58.9021 11.0136 59.1736 11.4623Z" fill="#000000"/>
<path fill-rule="evenodd" clip-rule="evenodd" d="M74.2371 7.01579C73.9821 6.74423 73.3445 6.87883 72.936 7.42431C72.5274 7.96743 72.5534 8.61917 72.7565 8.73016C72.9619 8.83878 73.9679 8.82461 74.5393 8.10911C74.9998 7.53529 74.2371 7.01579 74.2371 7.01579ZM70.3762 8.64987C70.0338 8.45151 69.597 8.39956 69.4104 8.67112C69.2262 8.94032 68.9122 9.31578 69.46 9.71013C70.0055 10.1045 70.5226 10.376 70.8461 9.92738C71.5168 8.85767 70.3762 8.64987 70.3762 8.64987ZM73.1438 11.101C73.5688 11.0632 73.4271 11.552 73.1438 11.7787C72.8604 12.0054 72.5038 12.532 72.5038 13.1341C72.5038 13.7363 73.3209 13.963 73.6397 13.963C73.9584 13.963 73.6751 13.2853 73.6751 12.8342C73.6751 12.3832 74.2064 11.7433 74.7046 11.2899C75.2005 10.8389 74.7755 10.2367 74.1379 10.0856C73.498 9.93446 72.7187 10.99 72.7187 10.99L73.1438 11.101ZM72.0811 13.4718L71.6915 13.0586C71.6915 13.0586 71.5498 14.9784 71.3373 15.6561C71.1248 16.3338 71.4436 17.6137 72.2252 17.727C73.0068 17.8404 75.2053 17.8026 75.7035 17.6515C76.1994 17.5003 76.6976 16.8226 76.2702 15.7317C75.8452 14.6407 75.6303 14.3384 75.4532 14.3762C75.2761 14.414 75.2052 14.7517 75.3115 15.2429C75.4178 15.7317 75.7366 16.4094 75.1698 16.5983C74.6031 16.7872 72.4023 17.2382 72.296 16.0717C72.1874 14.9028 72.3645 14.2251 72.0811 13.4718ZM67.5425 8.70182C67.1199 9.00644 66.3855 9.78097 66.4563 10.3501C66.5508 11.1199 66.8318 11.4528 67.4292 11.3537C67.9511 11.2663 68.2793 9.61804 68.2085 8.84823C68.1612 8.35942 67.8424 8.48457 67.5425 8.70182ZM69.0515 11.0608L69.042 11.5662L68.454 11.9416C68.454 11.9416 68.5414 12.284 68.983 12.1919C69.4246 12.0975 68.924 12.9405 68.6288 12.9098C68.3336 12.8791 68.0408 12.8791 67.9818 13.0964C67.9227 13.316 66.9522 13.2522 66.9522 13.2522C66.9522 13.2522 66.1871 14.0952 66.5413 14.4707C66.8932 14.8461 67.4528 14.2841 67.6299 14.1897C67.807 14.0952 68.0715 13.7528 68.4234 14.1283C68.7752 14.5037 68.7162 14.5651 68.3053 14.8461C67.8944 15.1272 68.0408 15.3444 68.2462 15.5026C68.4517 15.6585 68.5107 15.9088 67.8354 15.9088C67.1576 15.9088 67.4245 15.7222 67.3654 15.5664C67.3064 15.4105 66.0997 15.9725 65.866 16.6597C65.6298 17.3469 66.1611 17.7837 66.6618 17.6279C67.1624 17.472 68.0148 16.3787 68.4564 16.5983C68.898 16.8179 68.5438 17.0659 68.31 17.5665C68.0739 18.0647 68.1919 19.0116 68.5981 19.3895C69.0042 19.7673 69.4104 18.9573 69.4104 18.4166C69.4104 17.8758 69.2593 16.3362 69.486 16.1473C69.715 15.9584 69.9937 15.3373 70.2463 15.1744C70.499 15.0114 70.7021 14.7422 70.7021 14.3361C70.7021 13.9299 70.6005 13.8496 70.2463 13.7694C69.8921 13.6891 70.0952 13.0137 70.2959 12.9594C70.499 12.9051 70.8792 12.6359 70.8532 12.3384C70.8272 12.0408 70.6997 11.663 70.3975 11.689C70.0928 11.7173 70.27 11.1766 69.8142 10.9876C69.3561 10.7916 69.0255 10.7916 69.0515 11.0608Z" fill="#000000"/>
<path fill-rule="evenodd" clip-rule="evenodd" d="M88.2423 17.8144C88.2423 17.8144 87.1017 18.0033 86.3178 17.5877C85.5338 17.1721 84.3224 16.3031 84.3224 16.3031C84.3224 16.3031 84.0697 16.0929 84.0579 16.4235C84.0461 16.7541 84.4168 17.2878 84.5963 17.4909C84.7758 17.694 85.5314 19.4603 86.3083 19.3989C87.0899 19.3328 88.2423 17.8144 88.2423 17.8144ZM84.3578 9.79749C84.3578 9.38189 83.9658 8.39719 83.503 7.98159C83.0402 7.56598 82.719 7.56598 82.9315 8.54832C83.1464 9.53066 82.9315 13.0869 82.6104 13.8048C82.2892 14.5226 81.4698 14.7493 80.4733 14.8627C79.4768 14.976 78.7283 14.5604 79.0471 15.2783C79.3682 15.9961 79.5807 16.8297 80.2584 16.4117C80.9362 15.9961 82.4333 14.8603 82.3955 15.7317C82.3601 16.6006 81.1841 18.5677 79.4745 18.2654C79.4745 18.2654 79.1887 18.9833 80.1876 19.1722C81.1841 19.3611 83.2527 17.6609 83.111 15.0138C83.111 15.0138 85.4275 14.0315 86.3532 13.5781C87.2788 13.1247 86.6035 12.7091 86.3886 12.6335C86.1737 12.558 85.7463 12.1801 85.2835 12.5957C84.8206 13.0113 83.7509 13.9559 83.503 13.5403C83.2527 13.1247 83.6801 12.1022 84.0012 11.4977C84.3224 10.8932 84.3578 9.79749 84.3578 9.79749Z" fill="#000000"/>
<path fill-rule="evenodd" clip-rule="evenodd" d="M49.7045 10.82L46.0207 13.1837L45.9853 12.48C45.9853 12.48 48.6655 10.0053 48.9725 9.70775C49.2795 9.40786 48.564 8.7018 48.3349 9.02767C48.1058 9.35355 47.6714 9.62511 47.3903 9.46217C47.1093 9.29923 47.7729 8.72778 47.6454 8.29328C47.5179 7.85879 45.7067 6.52697 45.7067 6.52697L45.8059 9.93917C45.7822 10.7113 44.0443 11.4174 43.3665 11.3654C42.6912 11.3135 42.3086 11.1624 42.3393 11.8613C42.37 12.5603 44.0372 12.7398 44.4717 12.7634C44.9062 12.787 44.9274 13.5285 44.5236 13.7009C44.1198 13.8732 42.3724 14.754 41.8009 15.0138C41.2295 15.2735 41.1681 16.296 41.1681 17.6633C41.1681 19.0305 42.004 19.3564 42.3913 19.3564C42.7786 19.3564 42.84 18.596 42.8612 17.923C42.8825 17.25 42.311 16.6644 42.1481 16.185C41.9851 15.708 43.5555 14.8603 43.9026 14.839C44.2497 14.8178 44.2284 15.3609 44.4929 15.6632C44.7574 15.9678 45.2273 15.6207 45.4115 15.4034C45.5957 15.1862 45.983 15.1862 46.0632 15.3822C46.1435 15.5782 45.8791 15.6655 45.4516 15.8379C45.0242 16.0127 45.1045 16.1425 45.2675 16.4684C45.4304 16.7943 45.2462 17.2288 44.84 17.2288C44.4315 17.2288 44.33 17.7506 44.33 17.7506C44.33 17.7506 44.3229 17.7601 44.363 17.8923C44.4032 18.0222 45.3454 19.1533 45.7964 19.2383C46.2474 19.3257 46.4505 18.9549 46.9015 17.8923C47.3526 16.8273 48.2334 18.3056 48.5403 18.8038C48.8473 19.3044 49.8509 20.1073 49.9123 18.6952C49.9737 17.2831 50.4295 14.0905 50.8994 12.1116C51.3669 10.1304 49.7045 10.82 49.7045 10.82ZM46.127 14.2983C45.8106 14.5864 45.3076 14.6053 45.0951 14.4258C44.8802 14.2487 45.3832 13.9394 45.709 13.7434C46.0349 13.545 46.5922 13.4458 46.6961 13.545C46.6937 13.5474 46.4434 14.0126 46.127 14.2983ZM49.3668 15.564C49.3668 15.5475 49.2488 18.008 48.7576 17.8498C48.2664 17.6916 47.7327 17.5806 47.3455 15.9725C46.9582 14.3644 48.4294 13.6867 48.5049 13.6395C48.5781 13.5922 48.682 13.2758 48.3255 13.1979C47.9689 13.12 47.8508 12.8201 48.2948 12.5981C48.7411 12.3785 49.9454 11.2899 49.9005 12.2982C49.858 13.3089 49.3668 15.5805 49.3668 15.564Z" fill="#000000"/>
<path fill-rule="evenodd" clip-rule="evenodd" d="M98.3679 10.454C98.3679 10.454 99.0787 9.05367 99.6194 8.6239C100.16 8.19412 100.059 7.47626 99.721 7.11733C99.3833 6.7584 98.8756 6.93787 98.5049 7.26138C98.1318 7.58489 96.1718 8.98283 95.9687 8.98283C95.7657 8.98283 95.258 8.76794 95.7657 8.37359C96.2734 7.97924 97.532 7.89423 96.9936 6.79618C96.4575 5.69814 95.7987 6.22237 95.7987 6.22237C95.7987 6.22237 96.1033 6.86702 96.0349 7.15511C95.9664 7.4432 95.2225 8.30275 95.2225 8.30275L92.6864 6.76076C92.6864 6.76076 92.2472 6.76076 92.2472 7.04885C92.2472 7.33458 92.4172 7.5164 92.7879 7.76671C93.1587 8.01702 93.6333 8.37595 93.6333 9.02297C93.6333 9.66763 93.7018 10.7798 93.4987 10.709C93.2957 10.6382 92.9226 10.5295 92.9226 10.0266C92.9226 9.52358 91.9756 9.34412 91.841 9.52358C91.7064 9.70305 91.841 9.99114 91.9426 10.6712C92.0441 11.3513 91.7395 11.8543 92.1102 11.9983C92.4833 12.1424 92.7525 12.1424 92.7525 12.4635C92.7525 12.787 90.2495 14.8674 90.4525 15.1909C90.6556 15.5144 90.7572 16.2677 91.3995 16.0528C92.0418 15.8379 94.951 13.3608 95.7964 12.8224C96.6417 12.284 98.434 10.9215 98.7717 11.2427C99.1094 11.5662 97.3856 13.0373 96.8779 13.1436C96.3702 13.2522 96.2686 13.1082 95.5933 13.6111C94.9179 14.1141 94.0725 14.329 94.4102 14.5085C94.7479 14.6879 95.7964 14.2936 95.7302 14.6525C95.6618 15.0114 95.9664 15.5498 95.4941 15.6207C95.0218 15.6915 93.9379 15.8356 93.161 16.2299C92.3842 16.6243 90.828 17.4508 91.0641 17.8451C91.3003 18.2395 92.4833 18.9219 93.2272 19.4603C93.971 19.9987 94.6487 20.5371 94.9179 20.7166C95.1895 20.896 96.4741 21.1841 96.4741 19.9633C96.4741 18.7424 96.441 16.518 96.441 16.518H98.5049C98.5049 16.518 98.9771 16.4094 98.911 15.8356C98.8425 15.2618 98.3348 14.8674 98.0657 14.8674C97.7941 14.8674 97.6595 14.9382 97.6595 15.2263H96.7456V14.5085C96.7456 14.5085 97.4895 14.0787 97.4895 13.7552C97.4895 13.4317 97.3549 13.3963 97.9641 12.9665C98.5733 12.5367 99.6879 11.8189 99.6879 11.1364C99.6856 10.454 98.9417 10.454 98.3679 10.454ZM94.0938 9.25202C94.0678 8.95685 94.3724 9.11743 94.3724 9.11743C94.3724 9.11743 94.7762 9.22605 94.7762 9.52122C94.7762 9.8164 94.6487 9.84473 94.2945 9.84473C93.9427 9.84237 94.1198 9.5472 94.0938 9.25202ZM94.0938 10.8649C94.6511 10.7043 94.7007 10.4894 94.7266 10.7586C94.7526 11.0278 94.7762 11.0538 95.0053 10.9995C95.232 10.9451 95.3359 10.8389 95.3099 11.1884C95.2839 11.5378 95.2839 11.4576 94.8046 11.5922C94.3229 11.7268 94.4008 11.4835 94.0206 11.8873C93.6404 12.2911 93.3358 11.9133 93.3358 11.9133C93.3358 11.9133 93.5365 11.0254 94.0938 10.8649ZM93.9427 13.3372C93.716 13.4718 92.677 14.6006 92.3228 14.3054C91.9685 14.0102 93.2083 13.0161 93.5389 12.7469C93.5389 12.7469 95.5154 11.5922 95.768 11.8614C96.0183 12.1258 94.1694 13.2026 93.9427 13.3372ZM96.1718 10.7019C95.9191 10.7822 95.768 10.6216 95.6901 10.3784C95.6145 10.1375 96.2214 10.1375 96.2214 10.1375C96.2214 10.1375 96.4245 10.2721 96.4245 10.513C96.4245 10.7562 96.4245 10.6216 96.1718 10.7019ZM98.12 10.0573C98.0444 10.1919 97.9429 10.1635 97.8153 10.3524C97.6878 10.5413 97.6642 10.6216 97.6382 10.9168C97.6123 11.212 97.6123 11.2403 97.2581 11.2663C96.9038 11.2923 96.9794 11.0774 96.9794 10.8908C96.9794 10.7019 97.0054 10.6759 97.0054 10.3524C97.0054 10.0313 97.081 10.2981 97.31 10.1635C97.5367 10.0289 97.5627 9.89432 97.6902 9.59915C97.8177 9.30397 97.6642 9.27564 97.4375 9.1434C97.2108 9.0088 97.31 8.98283 97.31 8.71363C97.31 8.44443 97.5887 8.47277 97.9688 8.12328C98.349 7.7738 98.6277 7.71948 98.9559 7.96271C99.2841 8.20357 98.4506 9.22605 98.2475 9.71013C98.2475 9.70777 98.1979 9.92266 98.12 10.0573ZM95.1446 19.7578C95.036 20.1026 94.7833 19.5666 93.3759 18.6055C91.9685 17.6444 92.6911 17.8357 93.3759 17.4909C94.0607 17.1461 95.18 16.9147 95.18 16.9147C95.18 16.9147 95.2532 19.4107 95.1446 19.7578Z" fill="#000000"/>
<path fill-rule="evenodd" clip-rule="evenodd" d="M22.8887 12.2532C24.0032 12.8341 24.7919 13.6818 25.1887 14.8531C24.4968 15.1837 23.8025 15.5142 23.1083 15.8448C23.7742 14.6736 23.6136 13.474 22.8887 12.2532Z" fill="#A6AFB5"/>
<path fill-rule="evenodd" clip-rule="evenodd" d="M2.29999 12.2532C1.18542 12.8341 0.396713 13.6818 0 14.8507C0.694248 15.1813 1.38613 15.5119 2.08038 15.8425C1.41683 14.6736 1.57741 13.474 2.29999 12.2532Z" fill="#A6AFB5"/>
<path fill-rule="evenodd" clip-rule="evenodd" d="M0 14.853V17.3703C1.14055 17.7693 2.24332 18.218 3.07453 19.0138C3.70974 18.669 4.1277 18.0149 4.3237 17.0562C3.84434 16.2439 2.67545 15.4882 0 14.853Z" fill="#D8E8F7"/>
<path fill-rule="evenodd" clip-rule="evenodd" d="M25.1909 14.853V17.3703C24.0503 17.7693 22.9476 18.218 22.1164 19.0138C21.4811 18.669 21.0632 18.0149 20.8672 17.0562C21.3465 16.2439 22.5131 15.4882 25.1909 14.853Z" fill="#D8E8F7"/>
<path fill-rule="evenodd" clip-rule="evenodd" d="M23.7554 20.7424C22.3764 19.7719 21.3893 18.7305 20.8863 17.5781C20.1425 18.7659 20.3196 20.4189 21.4295 21.6066C22.5204 21.5027 22.6645 20.8463 23.7554 20.7424Z" fill="#A6AFB5"/>
<path fill-rule="evenodd" clip-rule="evenodd" d="M1.33203 20.8912C2.7465 19.7719 3.84927 18.6762 4.32627 17.5215C5.07011 18.7659 4.76785 20.5511 3.658 21.7956C2.56704 21.687 2.42535 20.9998 1.33203 20.8912Z" fill="#A6AFB5"/>
<path fill-rule="evenodd" clip-rule="evenodd" d="M3.90373 5.75464H21.1395V16.1684C21.1395 17.7623 20.1076 19.2807 18.66 20.544C16.8654 22.112 14.4261 23.2903 12.5629 23.7153H12.4779C10.126 23.1817 7.86613 22.0175 6.25803 20.3693C4.81995 18.8934 3.90137 17.0303 3.90137 14.8838V5.75464H3.90373Z" fill="#392c6d"/>
<path fill-rule="evenodd" clip-rule="evenodd" d="M4.29102 6.13965V14.8839C4.29102 16.9217 5.16473 18.6928 6.53669 20.1002C8.08104 21.6847 10.2535 22.8087 12.5204 23.3305C14.3222 22.9102 16.6718 21.7697 18.405 20.256C19.7723 19.0612 20.7499 17.6396 20.7499 16.1708V6.13965H4.29102Z" fill="#D8E8F7"/>
<path fill-rule="evenodd" clip-rule="evenodd" d="M6.71589 6.72754H8.16106V10.468L9.61804 12.3783L9.6629 12.4374L9.61804 12.494L8.77502 13.637L8.6971 13.7409L8.62153 13.637L7.43139 12.0336L4.789 15.6914L4.61426 15.6347V13.4386L4.63315 13.3819L6.71589 10.4703V6.72754Z" fill="#392c6d"/>
<path fill-rule="evenodd" clip-rule="evenodd" d="M18.2351 6.72754V10.4703L20.3178 13.3819L20.3344 13.4386V15.6347L20.1596 15.6914L17.5172 12.0336L16.3295 13.637L16.2515 13.7409L16.1736 13.637L15.3306 12.494L15.2881 12.4374L15.3306 12.3783L16.7876 10.468V6.72754H18.2351Z" fill="#392c6d"/>
<path fill-rule="evenodd" clip-rule="evenodd" d="M18.0408 6.92114H16.9806V10.4986L16.9593 10.5577L15.5283 12.4373L16.2509 13.4173L17.441 11.8139L17.519 11.7077L17.5969 11.8139L20.1401 15.3371V13.4693L18.0597 10.5577L18.0408 10.501V6.92114Z" fill="white"/>
<path fill-rule="evenodd" clip-rule="evenodd" d="M16.1661 21.9137L13.3584 17.8993L14.8437 15.7575L14.8838 15.6985L14.8413 15.6442L14.0621 14.6359L13.9818 14.532L13.9062 14.6382L12.4917 16.662L11.0773 14.6382L11.0017 14.532L10.9214 14.6359L10.1422 15.6442L10.0973 15.6985L10.1374 15.7575L11.6251 17.8993L8.81505 21.9137L8.76074 21.994L8.84103 22.0483L9.87532 22.7543L9.9556 22.8086L10.0099 22.7307L12.4917 19.1509L14.9736 22.7307L15.0279 22.8086L15.1058 22.7543L16.1424 22.0483L16.2227 21.994L16.1661 21.9137Z" fill="#392c6d"/>
<path fill-rule="evenodd" clip-rule="evenodd" d="M15.9515 21.9444L13.1226 17.9017L14.6457 15.7056L13.9892 14.8579L12.4921 16.9973L10.9926 14.8579L10.3385 15.7056L11.8592 17.9017L9.03027 21.9444L9.90635 22.5419L12.4921 18.8132L15.0778 22.5419L15.9515 21.9444Z" fill="white"/>
<path fill-rule="evenodd" clip-rule="evenodd" d="M1.33203 21.2667V23.5313C2.65913 23.8926 3.79496 24.2019 5.11025 24.6789C7.53539 25.5621 10.14 26.5987 12.6502 26.6082C15.191 26.6152 17.5855 25.3613 19.9775 24.4829C21.2314 24.0224 22.4475 23.5572 23.7558 23.6021V21.0896C21.9776 21.3612 20.294 21.9137 18.4403 22.6883C16.6527 23.4345 14.74 24.2964 12.7918 24.2397C10.8862 24.1854 7.79987 23.3235 5.96743 22.5891C4.08069 21.8287 3.0889 21.4249 1.33203 21.2667Z" fill="#392c6d"/>
<path fill-rule="evenodd" clip-rule="evenodd" d="M0 15.3206V17.8378C1.14055 18.2369 2.24332 18.6855 3.07453 19.4837C3.70974 19.1389 4.1277 18.4848 4.3237 17.5261C3.84434 16.7138 2.67545 15.9558 0 15.3206Z" fill="#392c6d"/>
<path fill-rule="evenodd" clip-rule="evenodd" d="M25.1909 15.3206V17.8378C24.0503 18.2369 22.9476 18.6855 22.1164 19.4837C21.4811 19.1389 21.0632 18.4848 20.8672 17.5261C21.3465 16.7138 22.5131 15.9558 25.1909 15.3206Z" fill="#392c6d"/>
<path fill-rule="evenodd" clip-rule="evenodd" d="M9.07497 0H15.9513V0.965807H22.1358L21.0496 2.05204H3.91534L2.8291 0.965807H9.07497V0Z" fill="#392c6d"/>
<path fill-rule="evenodd" clip-rule="evenodd" d="M3.88184 1.96704H21.1365V6.17031H3.88184V1.96704ZM6.20544 3.20205C6.33059 3.20205 6.29517 3.52319 6.29517 3.52319L6.01181 3.67432C6.01181 3.67432 5.87012 3.80656 6.08265 3.80656C6.29517 3.80656 6.54548 3.59876 6.54548 3.59876L6.51006 4.01436C6.51006 4.01436 5.69302 4.48664 5.58676 4.48664C5.48049 4.48664 5.37423 4.61888 5.55134 4.71333C5.72844 4.80779 5.6576 4.7889 5.85359 4.63777C6.04959 4.48664 6.49353 4.20327 6.49353 4.20327L6.51242 4.52442L6.19363 4.75112C6.19363 4.75112 5.99764 4.85266 6.19363 4.97781C6.38963 5.10296 6.53131 4.95892 6.53131 4.95892C6.53131 4.95892 6.51478 5.18561 6.49589 5.29896C6.47936 5.4123 6.37074 5.46898 6.5502 5.65789C6.72731 5.8468 6.82176 5.76415 6.82176 5.59413C6.82176 5.42411 6.77926 4.71333 6.77926 4.71333C6.77926 4.71333 6.99178 4.65666 7.0272 4.5622C7.06262 4.46775 7.0272 4.44886 6.8501 4.44886C6.67299 4.44886 6.67299 4.39219 6.67299 4.39219L6.72731 4.05451C6.72731 4.05451 7.21139 3.91046 7.43572 3.8042C7.62227 3.71683 7.62936 3.65071 7.58213 3.62001C7.52309 3.57987 7.36724 3.58695 7.2657 3.62237C7.02484 3.70266 6.74856 3.86796 6.74856 3.86796L6.78162 3.60348C6.78162 3.60348 6.81704 3.37679 6.95872 3.37679C7.10041 3.37679 7.36724 3.22566 7.35071 3.1312C7.33182 3.03675 7.28223 3.058 7.15944 3.07689C7.10985 3.08398 7.06026 2.93285 7.03665 2.94702C6.94455 3.00369 7.01776 3.25872 6.82176 3.22566C6.77453 3.21621 6.82412 3.1619 6.80051 3.15482C6.7462 3.13829 6.68244 3.14537 6.64466 3.21385L6.52895 3.41929C6.52895 3.41929 6.42977 3.18788 6.51714 3.09342C6.60688 2.99897 7.31765 2.56447 7.31765 2.56447C7.31765 2.56447 7.40739 2.31889 7.21139 2.39445C7.0154 2.47002 6.67772 2.81006 6.67772 2.81006C6.67772 2.81006 6.60688 2.96118 6.55256 2.84784C6.49825 2.73449 6.58798 2.62115 6.49825 2.60225C6.40852 2.58336 6.25031 2.48891 6.25031 2.64004C6.25031 2.69907 6.2078 2.70616 6.17946 2.73449C6.14168 2.77227 6.14877 2.79116 6.15113 2.80297C6.15349 2.81478 6.15821 2.8195 6.19127 2.83367C6.25031 2.85965 6.25031 2.96118 6.25031 2.96118C6.19599 2.98244 6.1346 2.98716 6.10862 3.02967C6.05667 3.09342 6.08265 3.20205 6.20544 3.20205ZM11.0439 2.89743C11.0439 2.89743 11.1502 2.98244 11.1502 3.08162C11.1502 3.18316 10.9967 3.47597 10.8621 3.6271C10.7558 3.74517 10.6 3.92227 10.5315 4.00964C10.5008 4.04978 10.4819 4.07576 10.5409 4.09937C10.5882 4.11826 10.6567 4.12299 10.6826 4.08048C10.7251 4.012 11.3013 3.36498 11.384 3.26344C11.469 3.15482 11.4619 3.05564 11.3651 2.97771C11.1573 2.80769 11.0439 2.89743 11.0439 2.89743ZM10.7157 4.64485C10.6944 4.97781 10.744 5.02504 10.7983 5.03212C10.8526 5.03921 11.0014 5.02268 10.992 4.69917C10.9802 4.37566 10.7204 4.35204 10.7204 4.35204L10.7157 4.64485ZM11.2069 4.26467C11.195 4.27412 11.0534 4.34968 11.0581 4.43705C11.0605 4.52206 11.0652 4.70153 11.1573 4.71097C11.2517 4.72042 11.3438 4.64722 11.3202 4.489C11.2942 4.33079 11.2187 4.25522 11.2069 4.26467ZM11.2446 3.68141C11.2446 3.68141 11.0298 3.98603 10.9471 4.04978C10.8645 4.11354 10.9684 4.16077 11.0463 4.18202C11.1242 4.20564 11.2446 4.23633 11.2848 4.10882C11.3226 3.97894 11.3202 3.90102 11.3533 3.88449C11.3887 3.8656 11.4147 3.74753 11.3698 3.70974C11.3273 3.67196 11.2446 3.68141 11.2446 3.68141ZM11.4288 4.3544C11.4288 4.3544 11.3934 4.51262 11.5044 4.489C11.6154 4.46775 11.7594 4.33079 11.7641 4.40163C11.7689 4.47011 11.7618 5.22103 11.7618 5.28243C11.7618 5.34146 11.8397 5.40994 11.8822 5.40994C11.9247 5.40994 12.0168 5.36508 12.0168 5.18561V4.4158C12.0168 4.4158 12.1302 4.49845 12.3143 4.17966C12.4419 3.96005 12.3521 3.89629 12.286 3.87976C12.227 3.86323 12.2317 3.87268 12.1868 3.90338C12.1302 3.94352 12.031 4.00728 11.9861 4.00728C11.9176 4.00728 11.9814 3.95061 11.9483 3.95061C11.9153 3.95061 11.8232 3.92699 11.8232 3.9695C11.8232 4.01436 11.8185 4.208 11.8185 4.208L11.4288 4.3544ZM12.0877 4.04742C12.064 4.07576 11.9956 4.16077 12.0286 4.18202C12.0593 4.20327 12.1113 4.2198 12.1467 4.16077C12.1821 4.10173 12.2671 4.04506 12.2128 4.02617C12.1585 4.00492 12.0877 4.04742 12.0877 4.04742ZM11.5918 3.80656C11.6225 3.85615 11.6791 3.91519 11.7665 3.90574C11.92 3.88921 12.1561 3.68613 12.2364 3.61529C12.3143 3.54445 12.4017 3.45471 12.3356 3.3886C12.2695 3.32012 12.1986 3.33428 12.0711 3.43819C11.9814 3.51375 11.7641 3.63418 11.6461 3.69558C11.5705 3.73336 11.5375 3.71447 11.5918 3.80656ZM14.6285 2.90923C14.5766 2.85492 14.449 2.8809 14.3664 2.99188C14.2837 3.10051 14.2885 3.23274 14.331 3.254C14.3711 3.27525 14.5766 3.27289 14.6899 3.12884C14.782 3.01314 14.6285 2.90923 14.6285 2.90923ZM13.8516 3.23747C13.7831 3.19732 13.6934 3.18788 13.658 3.24219C13.6202 3.2965 13.5564 3.37207 13.6674 3.45235C13.7784 3.53264 13.8823 3.58695 13.9461 3.49722C14.0807 3.27997 13.8516 3.23747 13.8516 3.23747ZM14.4089 3.73336C14.4939 3.72627 14.4656 3.82545 14.4089 3.87032C14.3522 3.91518 14.2814 4.02145 14.2814 4.14424C14.2814 4.26467 14.4467 4.3119 14.5104 4.3119C14.5742 4.3119 14.5175 4.17494 14.5175 4.0852C14.5175 3.99311 14.6238 3.8656 14.7253 3.7735C14.8245 3.68141 14.7395 3.56098 14.612 3.53028C14.4821 3.49958 14.3262 3.71211 14.3262 3.71211L14.4089 3.73336ZM14.194 4.21036L14.1161 4.12771C14.1161 4.12771 14.0877 4.51498 14.0452 4.65194C14.0027 4.7889 14.0665 5.04629 14.2247 5.0699C14.3829 5.09352 14.8269 5.08643 14.926 5.05573C15.0252 5.02504 15.1268 4.88808 15.0394 4.66847C14.9544 4.44886 14.9119 4.38746 14.8741 4.39455C14.8387 4.40163 14.8245 4.47011 14.8458 4.56929C14.867 4.66847 14.9308 4.80543 14.8174 4.84321C14.7041 4.88099 14.2601 4.97309 14.2365 4.73695C14.2153 4.50081 14.2507 4.36385 14.194 4.21036ZM13.2802 3.24927C13.1951 3.31067 13.0464 3.46652 13.0605 3.58223C13.0794 3.73808 13.1361 3.8042 13.2565 3.78531C13.3604 3.76878 13.4289 3.43582 13.4124 3.27997C13.4053 3.18079 13.3392 3.20677 13.2802 3.24927ZM13.5824 3.72391L13.5801 3.82545L13.462 3.90102C13.462 3.90102 13.4785 3.9695 13.5682 3.95061C13.658 3.93171 13.5564 4.10173 13.4974 4.09465C13.4384 4.08757 13.3793 4.08757 13.3675 4.13243C13.3557 4.1773 13.1597 4.16313 13.1597 4.16313C13.1597 4.16313 13.0062 4.33315 13.0771 4.40871C13.1479 4.48428 13.2613 4.37093 13.2967 4.35204C13.3321 4.33315 13.3864 4.26467 13.4573 4.34023C13.5281 4.4158 13.5163 4.42761 13.4336 4.48428C13.351 4.54095 13.3793 4.58582 13.4218 4.61652C13.4643 4.64721 13.4762 4.69917 13.3392 4.69917C13.2022 4.69917 13.2565 4.66138 13.2447 4.63069C13.2329 4.59999 12.9897 4.71333 12.9425 4.85029C12.8952 4.98962 13.0015 5.07699 13.1031 5.04629C13.2046 5.01559 13.377 4.79362 13.4643 4.83849C13.5541 4.88335 13.4809 4.93294 13.4336 5.03448C13.3864 5.13602 13.41 5.32493 13.4927 5.40286C13.5753 5.47842 13.6556 5.31549 13.6556 5.20686C13.6556 5.09824 13.6249 4.78654 13.6698 4.74875C13.7146 4.71097 13.7713 4.58582 13.8233 4.55276C13.8752 4.5197 13.9154 4.46539 13.9154 4.38274C13.9154 4.30009 13.8941 4.28592 13.8233 4.26939C13.7524 4.25286 13.7926 4.1159 13.8327 4.10646C13.8729 4.09465 13.9508 4.04034 13.9461 3.9813C13.9413 3.92227 13.9154 3.84434 13.854 3.85143C13.7926 3.85615 13.828 3.74753 13.7359 3.70974C13.6462 3.6696 13.5777 3.6696 13.5824 3.72391ZM17.4551 5.08643C17.4551 5.08643 17.226 5.12422 17.0678 5.04157C16.9096 4.95892 16.6664 4.78181 16.6664 4.78181C16.6664 4.78181 16.6168 4.73931 16.6121 4.80543C16.6097 4.87155 16.6853 4.98017 16.7207 5.02031C16.7561 5.06046 16.9096 5.41703 17.0655 5.40522C17.2213 5.39341 17.4551 5.08643 17.4551 5.08643ZM16.6711 3.47124C16.6711 3.38623 16.5932 3.19024 16.4987 3.10523C16.4043 3.02022 16.3405 3.02022 16.383 3.21858C16.4255 3.41693 16.383 4.13479 16.3193 4.27884C16.2555 4.42288 16.0902 4.47011 15.8871 4.49136C15.6864 4.51498 15.5353 4.42997 15.599 4.57401C15.6628 4.71806 15.7077 4.88572 15.8446 4.80307C15.9816 4.72042 16.2838 4.49136 16.2744 4.66611C16.2673 4.84085 16.0312 5.23756 15.684 5.17617C15.684 5.17617 15.6274 5.32021 15.8281 5.35799C16.0288 5.39577 16.4468 5.05337 16.4161 4.5197C16.4161 4.5197 16.8836 4.32134 17.0702 4.22925C17.2567 4.13716 17.1198 4.05451 17.0773 4.03798C17.0348 4.02381 16.9474 3.94588 16.8553 4.03089C16.7608 4.1159 16.546 4.30481 16.4964 4.22217C16.4468 4.13716 16.5318 3.93171 16.5979 3.81128C16.664 3.69085 16.6711 3.47124 16.6711 3.47124ZM8.89506 3.49958C8.89034 3.65543 8.54085 3.79712 8.40389 3.78767C8.26693 3.77822 8.19137 3.74753 8.19609 3.88685C8.20317 4.02853 8.53849 4.06395 8.62586 4.06868C8.71323 4.0734 8.71796 4.22217 8.63531 4.25759C8.55266 4.29301 8.20081 4.47011 8.0851 4.52206C7.9694 4.57401 7.95759 4.78181 7.95759 5.05573C7.95759 5.32966 8.12525 5.39814 8.20317 5.39814C8.2811 5.39814 8.29291 5.24465 8.29763 5.11005C8.30235 4.97309 8.18664 4.85502 8.15358 4.76056C8.12052 4.66374 8.43695 4.49372 8.50779 4.489C8.57863 4.48428 8.57391 4.59526 8.62586 4.6543C8.68017 4.71569 8.77463 4.64485 8.81005 4.60235C8.84783 4.55748 8.92576 4.55748 8.94229 4.59763C8.95882 4.63777 8.9045 4.6543 8.81949 4.68972C8.73212 4.72514 8.74865 4.75112 8.78171 4.81723C8.81477 4.88335 8.77699 4.97072 8.69434 4.97072C8.61169 4.97072 8.5928 5.07463 8.5928 5.07463C8.5928 5.07463 8.59044 5.07699 8.59989 5.10296C8.60933 5.12894 8.79824 5.35799 8.88798 5.37452C8.97771 5.39105 9.02021 5.31785 9.10995 5.10296C9.19968 4.88808 9.37914 5.18561 9.44054 5.28715C9.50194 5.38869 9.70502 5.54926 9.71682 5.2659C9.72863 4.98017 9.82072 4.33787 9.91518 3.9388C10.0096 3.53972 9.67432 3.67905 9.67432 3.67905L8.93048 4.15605L8.9234 4.01436C8.9234 4.01436 9.46415 3.51611 9.52555 3.45471C9.58695 3.39332 9.4429 3.25164 9.39567 3.31775C9.34845 3.38387 9.26107 3.43818 9.2044 3.40513C9.14773 3.37207 9.28233 3.25636 9.25635 3.16899C9.23038 3.08162 8.86436 2.81242 8.86436 2.81242L8.89506 3.49958ZM9.61292 4.63305C9.61292 4.63541 9.7121 4.1773 9.72154 3.97422C9.73099 3.77114 9.48777 3.99075 9.39803 4.03562C9.3083 4.08048 9.33192 4.14188 9.40512 4.15605C9.47596 4.17258 9.45707 4.23633 9.44054 4.24578C9.42637 4.25522 9.12884 4.39219 9.20676 4.7157C9.28469 5.0392 9.39331 5.06282 9.49249 5.09352C9.58931 5.12658 9.61292 4.63069 9.61292 4.63305ZM9.07452 4.22689C9.05327 4.208 8.94229 4.22689 8.87617 4.26703C8.81005 4.30718 8.70851 4.36857 8.75338 4.40399C8.79588 4.43941 8.89742 4.43705 8.96118 4.37802C9.02494 4.31898 9.07452 4.22689 9.07452 4.22689ZM18.9782 2.74866C18.9782 2.74866 19.0396 2.87854 19.0254 2.93757C19.0112 2.99661 18.8625 3.16899 18.8625 3.16899L18.3501 2.85728C18.3501 2.85728 18.2603 2.85728 18.2603 2.91632C18.2603 2.97299 18.2934 3.01077 18.3689 3.06036C18.4445 3.10995 18.539 3.18316 18.539 3.31303C18.539 3.44291 18.5531 3.66724 18.5106 3.65307C18.4705 3.6389 18.3949 3.61765 18.3949 3.51611C18.3949 3.41457 18.2036 3.37915 18.1777 3.41457C18.1517 3.44999 18.1777 3.50903 18.1989 3.64599C18.2202 3.78295 18.1588 3.88449 18.232 3.91282C18.3075 3.94116 18.3619 3.94116 18.3619 4.00728C18.3619 4.0734 17.8565 4.49136 17.899 4.55748C17.9392 4.6236 17.9604 4.77473 18.0903 4.73223C18.2202 4.68972 18.8058 4.18911 18.9758 4.08048C19.1458 3.97186 19.5071 3.69794 19.5756 3.7617C19.6441 3.82781 19.297 4.12299 19.1931 4.14424C19.0915 4.16549 19.0703 4.13716 18.9333 4.2387C18.7964 4.34023 18.6263 4.38274 18.6948 4.42052C18.7633 4.45594 18.9735 4.37802 18.9617 4.44886C18.9475 4.52206 19.0089 4.63069 18.9144 4.64485C18.82 4.65902 18.6004 4.68736 18.4445 4.76765C18.2887 4.84793 17.9746 5.01323 18.0218 5.09352C18.069 5.1738 18.3075 5.31076 18.4587 5.41939C18.6098 5.52801 18.7444 5.63664 18.7987 5.67206C18.853 5.70748 19.1128 5.76651 19.1128 5.52093C19.1128 5.27534 19.1057 4.82668 19.1057 4.82668H19.5213C19.5213 4.82668 19.6181 4.80543 19.6039 4.68972C19.5898 4.57401 19.4882 4.49372 19.4339 4.49372C19.3796 4.49372 19.3513 4.50789 19.3513 4.56693H19.1671V4.42288C19.1671 4.42288 19.3182 4.33551 19.3182 4.27175C19.3182 4.20564 19.2899 4.19855 19.4127 4.11354C19.5355 4.02617 19.7598 3.88213 19.7598 3.74517C19.7598 3.6082 19.6087 3.6082 19.493 3.6082C19.493 3.6082 19.637 3.3272 19.7456 3.23983C19.8543 3.15246 19.8354 3.00841 19.7669 2.93521C19.6984 2.86201 19.5969 2.89979 19.5213 2.96355C19.4481 3.02258 19.0537 3.30595 19.0112 3.30595C18.9711 3.30595 18.8672 3.26344 18.9711 3.18316C19.0726 3.10287 19.3277 3.08634 19.219 2.86437C19.1104 2.6424 18.9782 2.74866 18.9782 2.74866ZM18.853 4.90461C18.853 4.90461 18.6263 4.95183 18.4894 5.02031C18.3524 5.09116 18.206 5.05101 18.4894 5.24465C18.7727 5.43828 18.8247 5.5469 18.8459 5.47842C18.8672 5.40994 18.853 4.90461 18.853 4.90461ZM18.4799 3.89629C18.4799 3.89629 18.5413 3.97186 18.6169 3.89157C18.6925 3.81128 18.6783 3.85851 18.7751 3.83254C18.8719 3.80656 18.8719 3.82309 18.8766 3.75225C18.8814 3.68141 18.8601 3.70266 18.8152 3.71447C18.7704 3.72391 18.7657 3.71919 18.7586 3.66488C18.7538 3.61057 18.742 3.65307 18.6311 3.68613C18.5224 3.71683 18.4799 3.89629 18.4799 3.89629ZM18.5224 4.06395C18.4563 4.11826 18.206 4.31898 18.2768 4.37802C18.3477 4.43705 18.5579 4.21036 18.6027 4.18202C18.6499 4.15605 19.0207 3.9388 18.9711 3.88449C18.9191 3.83254 18.5224 4.06395 18.5224 4.06395ZM18.6901 3.33192C18.6901 3.33192 18.6287 3.29886 18.6334 3.3579C18.6381 3.41693 18.6027 3.47597 18.6736 3.47597C18.7444 3.47597 18.7704 3.47124 18.7704 3.40985C18.7727 3.35554 18.6901 3.33192 18.6901 3.33192ZM19.0632 3.53972C19.0632 3.53972 18.9404 3.53972 18.9546 3.58931C18.9711 3.6389 18.9994 3.6696 19.0514 3.65543C19.1033 3.6389 19.1033 3.66724 19.1033 3.61765C19.1033 3.5657 19.0632 3.53972 19.0632 3.53972ZM19.4717 3.45235C19.5119 3.35554 19.6819 3.14773 19.6134 3.10051C19.5473 3.05092 19.4906 3.06272 19.415 3.13357C19.3395 3.20441 19.2828 3.19732 19.2828 3.25164C19.2828 3.30595 19.2615 3.31067 19.3088 3.33901C19.3536 3.36498 19.3843 3.37207 19.3607 3.4311C19.3347 3.49014 19.33 3.51847 19.2852 3.54445C19.2379 3.57278 19.2238 3.51847 19.2238 3.58223C19.2238 3.64599 19.219 3.65307 19.219 3.69085C19.219 3.72864 19.2049 3.77114 19.2757 3.76642C19.3466 3.76169 19.3466 3.75461 19.3536 3.69558C19.3584 3.63654 19.3631 3.62001 19.3891 3.58223C19.415 3.54445 19.4363 3.54917 19.4505 3.52319C19.4623 3.49486 19.4717 3.45235 19.4717 3.45235Z" fill="#392c6d"/>
<path fill-rule="evenodd" clip-rule="evenodd" d="M6.20586 3.20216C6.33101 3.20216 6.29559 3.52331 6.29559 3.52331L6.01222 3.67444C6.01222 3.67444 5.87054 3.80668 6.08307 3.80668C6.29559 3.80668 6.5459 3.59888 6.5459 3.59888L6.51048 4.01448C6.51048 4.01448 5.69344 4.48676 5.58718 4.48676C5.48091 4.48676 5.37465 4.61899 5.55175 4.71345C5.72886 4.8079 5.65802 4.78901 5.85401 4.63789C6.05001 4.48676 6.49395 4.20339 6.49395 4.20339L6.51048 4.52454L6.19169 4.75123C6.19169 4.75123 5.9957 4.85277 6.19169 4.97792C6.38769 5.10308 6.52937 4.95903 6.52937 4.95903C6.52937 4.95903 6.51048 5.18573 6.49395 5.29907C6.47506 5.41242 6.36879 5.46909 6.54826 5.658C6.72536 5.84691 6.81982 5.76427 6.81982 5.59425C6.81982 5.42423 6.77731 4.71345 6.77731 4.71345C6.77731 4.71345 6.98984 4.65678 7.02526 4.56232C7.06068 4.46787 7.02526 4.44897 6.84816 4.44897C6.67105 4.44897 6.67105 4.3923 6.67105 4.3923L6.72536 4.05462C6.72536 4.05462 7.20945 3.91058 7.43378 3.80432C7.62033 3.71694 7.62505 3.65083 7.58019 3.62013C7.52115 3.57998 7.3653 3.58707 7.2614 3.62249C7.02054 3.70278 6.74425 3.86807 6.74425 3.86807L6.77731 3.6036C6.77731 3.6036 6.81274 3.3769 6.95442 3.3769C7.0961 3.3769 7.36294 3.22578 7.34405 3.13132C7.32752 3.03687 7.27557 3.05812 7.15278 3.07701C7.10319 3.08409 7.0536 2.93296 7.02998 2.94713C6.93789 3.00381 7.01109 3.25884 6.8151 3.22578C6.76787 3.21633 6.81982 3.16202 6.79384 3.15493C6.73953 3.1384 6.67577 3.14549 6.63799 3.21397L6.52228 3.41941C6.52228 3.41941 6.42311 3.18799 6.51048 3.09354C6.60021 2.99908 7.31099 2.56459 7.31099 2.56459C7.31099 2.56459 7.40072 2.319 7.20473 2.39457C7.00873 2.47013 6.67105 2.81017 6.67105 2.81017C6.67105 2.81017 6.60021 2.9613 6.5459 2.84795C6.49159 2.73461 6.58132 2.62126 6.49159 2.60237C6.40185 2.58348 6.24364 2.48902 6.24364 2.64015C6.24364 2.69919 6.20114 2.70627 6.1728 2.73461C6.13502 2.77239 6.1421 2.79128 6.14446 2.80309C6.14682 2.81489 6.14919 2.81962 6.18461 2.83379C6.24364 2.85976 6.24364 2.9613 6.24364 2.9613C6.18933 2.98255 6.12793 2.98728 6.10196 3.02978C6.05709 3.09354 6.08307 3.20216 6.20586 3.20216Z" fill="white"/>
<path fill-rule="evenodd" clip-rule="evenodd" d="M11.0444 2.89744C11.0444 2.89744 11.1506 2.98245 11.1506 3.08163C11.1506 3.18081 10.9971 3.47598 10.8625 3.62711C10.7563 3.74518 10.6004 3.92228 10.5319 4.00965C10.5013 4.0498 10.4824 4.07577 10.5414 4.09939C10.5886 4.11828 10.6571 4.123 10.6831 4.0805C10.7256 4.01202 11.3018 3.365 11.3844 3.26346C11.4694 3.15483 11.4623 3.05565 11.3655 2.97773C11.1577 2.80771 11.0444 2.89744 11.0444 2.89744ZM10.7161 4.64487C10.6949 4.97782 10.7445 5.02505 10.7964 5.03213C10.8507 5.03922 10.9995 5.02269 10.9901 4.69918C10.9783 4.37567 10.7185 4.35206 10.7185 4.35206L10.7161 4.64487ZM11.2073 4.26468C11.1955 4.27413 11.0538 4.35206 11.0585 4.43707C11.0609 4.52444 11.0656 4.70154 11.1577 4.71099C11.2522 4.72043 11.3443 4.64723 11.3207 4.48902C11.2947 4.3308 11.2191 4.25524 11.2073 4.26468ZM11.2451 3.68142C11.2451 3.68142 11.0302 3.98368 10.9476 4.0498C10.8649 4.11356 10.9688 4.16078 11.0467 4.18204C11.1247 4.20565 11.2451 4.23635 11.2852 4.10883C11.323 3.97896 11.3207 3.90103 11.3537 3.88214C11.3891 3.86325 11.4151 3.74518 11.3702 3.7074C11.3277 3.67198 11.2451 3.68142 11.2451 3.68142ZM11.4293 4.35442C11.4293 4.35442 11.3939 4.51263 11.5048 4.48902C11.6158 4.46776 11.7599 4.3308 11.7646 4.40164C11.7693 4.47012 11.7622 5.22105 11.7622 5.28244C11.7622 5.34148 11.8402 5.40996 11.8827 5.40996C11.9252 5.40996 12.0173 5.36509 12.0173 5.18562V4.41581C12.0173 4.41581 12.1306 4.49846 12.3148 4.17967C12.4423 3.96007 12.3526 3.89631 12.2865 3.87978C12.2274 3.86561 12.2321 3.87269 12.1873 3.90339C12.1306 3.94354 12.0314 4.00729 11.9866 4.00729C11.9181 4.00729 11.9818 3.95062 11.9488 3.95062C11.9157 3.95062 11.826 3.92701 11.826 3.96951C11.826 4.01438 11.8213 4.20801 11.8213 4.20801L11.4293 4.35442ZM12.0881 4.04744C12.0645 4.07577 11.996 4.16078 12.0291 4.18204C12.0598 4.20329 12.1117 4.22218 12.1471 4.16078C12.1826 4.10175 12.2676 4.04508 12.2133 4.02618C12.1589 4.00493 12.0881 4.04744 12.0881 4.04744ZM11.5922 3.80658C11.6229 3.85853 11.6796 3.9152 11.767 3.90575C11.9204 3.88922 12.1566 3.68614 12.2369 3.6153C12.3148 3.54446 12.4022 3.45473 12.336 3.38861C12.2699 3.32013 12.1991 3.3343 12.0716 3.4382C11.9818 3.51376 11.7646 3.63419 11.6465 3.69559C11.571 3.73337 11.5379 3.71448 11.5922 3.80658Z" fill="white"/>
<path fill-rule="evenodd" clip-rule="evenodd" d="M14.6292 2.90921C14.5773 2.8549 14.4498 2.88087 14.3671 2.99186C14.2845 3.10048 14.2892 3.23272 14.3317 3.25397C14.3718 3.27523 14.5773 3.27286 14.6906 3.12882C14.7827 3.01311 14.6292 2.90921 14.6292 2.90921ZM13.8523 3.23744C13.7839 3.1973 13.6941 3.18785 13.6587 3.24217C13.6209 3.29648 13.5572 3.37204 13.6681 3.45233C13.7791 3.53262 13.883 3.58693 13.9468 3.4972C14.0814 3.27995 13.8523 3.23744 13.8523 3.23744ZM14.4096 3.73334C14.4946 3.72625 14.4663 3.82543 14.4096 3.8703C14.3529 3.91516 14.2821 4.02142 14.2821 4.14422C14.2821 4.26465 14.4474 4.31187 14.5112 4.31187C14.5749 4.31187 14.5182 4.17491 14.5182 4.08518C14.5182 3.99309 14.6245 3.86557 14.726 3.77348C14.8252 3.68138 14.7402 3.56095 14.6127 3.53026C14.4828 3.49956 14.327 3.71208 14.327 3.71208L14.4096 3.73334ZM14.1947 4.21034L14.1168 4.12769C14.1168 4.12769 14.0885 4.51495 14.046 4.65191C14.0035 4.78888 14.0672 5.04627 14.2254 5.06988C14.3836 5.09349 14.8276 5.08405 14.9268 5.05335C15.0259 5.02265 15.1275 4.88569 15.0401 4.66608C14.9551 4.44647 14.9126 4.38508 14.8748 4.39216C14.8394 4.39925 14.8252 4.46773 14.8465 4.5669C14.8677 4.66608 14.9315 4.80304 14.8181 4.84083C14.7048 4.87861 14.2609 4.9707 14.2372 4.73456C14.216 4.50079 14.2514 4.36383 14.1947 4.21034ZM13.2809 3.24925C13.1959 3.31065 13.0471 3.4665 13.0613 3.58221C13.0802 3.73806 13.1368 3.80418 13.2573 3.78529C13.3635 3.76639 13.4296 3.4358 13.4131 3.27995C13.406 3.18077 13.3399 3.20438 13.2809 3.24925ZM13.5831 3.72389L13.5808 3.82543L13.4627 3.90099C13.4627 3.90099 13.4792 3.96947 13.569 3.95058C13.6587 3.93169 13.5572 4.10171 13.4981 4.09463C13.4391 4.08754 13.3801 4.08754 13.3682 4.13241C13.3564 4.17728 13.1604 4.16311 13.1604 4.16311C13.1604 4.16311 13.007 4.33313 13.0778 4.40869C13.1486 4.48426 13.262 4.37091 13.2974 4.35202C13.3328 4.33313 13.3871 4.26465 13.458 4.34021C13.5288 4.41578 13.517 4.42758 13.4344 4.48426C13.3517 4.54093 13.3801 4.5858 13.4226 4.61649C13.4651 4.64719 13.4769 4.69914 13.3399 4.69914C13.2029 4.69914 13.2573 4.66136 13.2455 4.63066C13.2336 4.59996 12.9904 4.71331 12.9432 4.85027C12.896 4.98959 13.0022 5.07696 13.1038 5.04627C13.2053 5.01557 13.3753 4.7936 13.4651 4.83846C13.5548 4.88333 13.4816 4.93292 13.4344 5.03446C13.3871 5.136 13.4108 5.32491 13.4934 5.40284C13.576 5.4784 13.6563 5.31546 13.6563 5.20684C13.6563 5.09822 13.6256 4.78651 13.6705 4.74873C13.7154 4.71095 13.772 4.5858 13.824 4.55274C13.8759 4.51968 13.9161 4.46536 13.9161 4.38508C13.9161 4.30243 13.8948 4.2859 13.824 4.27173C13.7532 4.2552 13.7933 4.11824 13.8334 4.1088C13.8736 4.09699 13.9515 4.04268 13.9468 3.98364C13.9421 3.92461 13.9161 3.84668 13.8547 3.85377C13.7933 3.85849 13.8287 3.74986 13.7366 3.71208C13.6469 3.66958 13.5784 3.66958 13.5831 3.72389Z" fill="white"/>
<path fill-rule="evenodd" clip-rule="evenodd" d="M17.4534 5.08631C17.4534 5.08631 17.2244 5.12409 17.0662 5.04144C16.9079 4.95643 16.6647 4.78169 16.6647 4.78169C16.6647 4.78169 16.6151 4.73918 16.6128 4.8053C16.6104 4.87142 16.686 4.98004 16.7214 5.02019C16.7568 5.06033 16.9103 5.4169 17.0662 5.40509C17.222 5.39329 17.4534 5.08631 17.4534 5.08631ZM16.6718 3.47112C16.6718 3.38611 16.5939 3.18775 16.4994 3.1051C16.405 3.02245 16.3412 3.02245 16.3837 3.22081C16.4262 3.41917 16.3837 4.13703 16.32 4.28107C16.2562 4.42512 16.0909 4.47235 15.8878 4.4936C15.6871 4.51721 15.536 4.4322 15.5997 4.57861C15.6635 4.72265 15.7084 4.89031 15.843 4.80766C15.9799 4.72501 16.2822 4.49596 16.2751 4.6707C16.268 4.84545 16.0319 5.24216 15.6848 5.18076C15.6848 5.18076 15.6281 5.32481 15.8288 5.36259C16.0295 5.40037 16.4475 5.05797 16.4191 4.5243C16.4191 4.5243 16.8867 4.32594 17.0732 4.23385C17.2598 4.14175 17.1228 4.0591 17.0803 4.04257C17.0378 4.02841 16.9505 3.95048 16.8584 4.03549C16.7639 4.11814 16.549 4.30941 16.4994 4.22676C16.4498 4.14411 16.5349 3.93631 16.601 3.81588C16.6647 3.69073 16.6718 3.47112 16.6718 3.47112Z" fill="white"/>
<path fill-rule="evenodd" clip-rule="evenodd" d="M9.68125 3.67669L8.93741 4.15369L8.93033 4.012C8.93033 4.012 9.47109 3.51375 9.53248 3.45236C9.59388 3.39096 9.44984 3.24928 9.40261 3.3154C9.35538 3.38151 9.26801 3.43583 9.21134 3.40277C9.15466 3.36971 9.28926 3.254 9.26329 3.16663C9.23731 3.07926 8.8713 2.81006 8.8713 2.81006L8.89019 3.49722C8.88547 3.65307 8.53598 3.79476 8.39902 3.78531C8.26206 3.77587 8.18649 3.74517 8.19122 3.88449C8.1983 4.02617 8.53362 4.06159 8.62099 4.06632C8.70836 4.07104 8.71308 4.21981 8.63043 4.25523C8.55015 4.29065 8.19594 4.46775 8.08259 4.5197C7.96689 4.57165 7.95508 4.77945 7.95508 5.05338C7.95508 5.3273 8.12274 5.39578 8.20066 5.39578C8.27859 5.39578 8.2904 5.24229 8.29512 5.10769C8.29984 4.97309 8.18413 4.85266 8.15107 4.7582C8.11801 4.66139 8.43444 4.49137 8.50528 4.48664C8.57612 4.48192 8.5714 4.59054 8.62335 4.65194C8.67766 4.71334 8.77212 4.64249 8.80754 4.59999C8.84532 4.55512 8.92325 4.55512 8.93978 4.59527C8.95631 4.63541 8.90199 4.65194 8.81698 4.68736C8.73197 4.72278 8.74614 4.74876 8.7792 4.81488C8.81226 4.88099 8.77448 4.96837 8.69183 4.96837C8.60918 4.96837 8.58793 5.07227 8.58793 5.07227C8.58793 5.07227 8.58557 5.07463 8.59501 5.1006C8.6021 5.12658 8.79337 5.35563 8.8831 5.37216C8.9752 5.38869 9.01534 5.31549 9.10744 5.1006C9.19717 4.88572 9.37663 5.18325 9.43803 5.28479C9.49943 5.38633 9.7025 5.54691 9.71431 5.26354C9.72612 4.97781 9.81821 4.33551 9.91267 3.93644C10.0166 3.53737 9.68125 3.67669 9.68125 3.67669ZM8.96103 4.37802C8.89727 4.43705 8.79573 4.43942 8.75323 4.40399C8.71072 4.36857 8.81226 4.30482 8.87602 4.26703C8.94214 4.22689 9.05312 4.208 9.07438 4.22689C9.07438 4.22689 9.02479 4.31898 8.96103 4.37802ZM9.61277 4.63305C9.61277 4.63069 9.58916 5.12658 9.48998 5.09352C9.3908 5.06046 9.28218 5.03921 9.20425 4.7157C9.12633 4.39219 9.42386 4.25523 9.43803 4.24578C9.4522 4.23634 9.47345 4.17258 9.40261 4.15605C9.33177 4.13952 9.30815 4.08048 9.39789 4.03562C9.48762 3.99075 9.73084 3.77114 9.7214 3.97422C9.71195 4.1773 9.61277 4.63541 9.61277 4.63305Z" fill="white"/>
<path fill-rule="evenodd" clip-rule="evenodd" d="M19.4957 3.60339C19.4957 3.60339 19.6398 3.32002 19.7484 3.23501C19.857 3.14764 19.8381 3.0036 19.7696 2.93039C19.7012 2.85719 19.5996 2.89497 19.5241 2.95873C19.4485 3.02485 19.0518 3.30585 19.0116 3.30585C18.9715 3.30585 18.8676 3.26335 18.9715 3.18306C19.073 3.10278 19.3281 3.08625 19.2194 2.86428C19.1108 2.64231 18.9786 2.74857 18.9786 2.74857C18.9786 2.74857 19.04 2.87844 19.0258 2.93748C19.0116 2.99651 18.8629 3.16889 18.8629 3.16889L18.3505 2.85719C18.3505 2.85719 18.2607 2.85719 18.2607 2.91623C18.2607 2.97526 18.2938 3.01068 18.3693 3.06027C18.4449 3.11222 18.5394 3.18306 18.5394 3.31294C18.5394 3.44282 18.5535 3.66715 18.511 3.65298C18.4709 3.63881 18.3953 3.61756 18.3953 3.51602C18.3953 3.41448 18.2041 3.37906 18.1757 3.41448C18.1497 3.4499 18.1757 3.50893 18.197 3.64589C18.2182 3.78285 18.1568 3.88439 18.23 3.91273C18.3056 3.94107 18.3599 3.94107 18.3599 4.00719C18.3599 4.07331 17.8546 4.49127 17.8971 4.55739C17.9372 4.62115 17.9585 4.77464 18.0883 4.72977C18.2182 4.68727 18.8038 4.18665 18.9739 4.07803C19.1439 3.9694 19.5052 3.69548 19.5737 3.75924C19.6421 3.82536 19.295 4.12053 19.1911 4.14179C19.0896 4.16304 19.0683 4.1347 18.9314 4.23624C18.7944 4.33778 18.6244 4.38029 18.6929 4.41807C18.7613 4.45349 18.9715 4.37556 18.9597 4.4464C18.9455 4.51961 19.0069 4.62823 18.9125 4.6424C18.818 4.65657 18.5984 4.6849 18.4425 4.76519C18.2843 4.84548 17.9726 5.01078 18.0199 5.09106C18.0671 5.17135 18.3056 5.30831 18.4567 5.41693C18.6078 5.52556 18.7424 5.63418 18.7968 5.6696C18.8511 5.70502 19.1108 5.76406 19.1108 5.51847C19.1108 5.27289 19.1037 4.82423 19.1037 4.82423H19.5193C19.5193 4.82423 19.6138 4.80297 19.602 4.68727C19.5878 4.57156 19.4863 4.49127 19.432 4.49127C19.3777 4.49127 19.3493 4.50544 19.3493 4.56447H19.1651V4.42043C19.1651 4.42043 19.3163 4.33306 19.3163 4.2693C19.3163 4.20318 19.2879 4.1961 19.4107 4.11109C19.5335 4.02372 19.7578 3.87967 19.7578 3.74271C19.7626 3.60339 19.6114 3.60339 19.4957 3.60339ZM18.6338 3.36017C18.6291 3.30113 18.6905 3.33419 18.6905 3.33419C18.6905 3.33419 18.7731 3.35544 18.7731 3.41448C18.7731 3.47351 18.7472 3.47824 18.6763 3.47824C18.6031 3.47824 18.6385 3.4192 18.6338 3.36017ZM18.6338 3.68604C18.7472 3.65298 18.7566 3.61047 18.7613 3.66479C18.7661 3.7191 18.7708 3.72382 18.818 3.71437C18.8652 3.70257 18.8841 3.68132 18.8794 3.75216C18.8747 3.823 18.8747 3.80647 18.7779 3.83244C18.681 3.86078 18.6952 3.81119 18.6197 3.89148C18.5417 3.97413 18.4827 3.8962 18.4827 3.8962C18.4827 3.8962 18.5228 3.71674 18.6338 3.68604ZM18.6031 4.18429C18.5559 4.21027 18.3481 4.43932 18.2749 4.38029C18.204 4.32125 18.4544 4.12053 18.5205 4.06622C18.5205 4.06622 18.9196 3.83244 18.9691 3.88676C19.0235 3.93871 18.6504 4.15595 18.6031 4.18429ZM19.0541 3.65298C19.0022 3.66951 18.9715 3.63645 18.9573 3.58686C18.9432 3.53727 19.0636 3.53727 19.0636 3.53727C19.0636 3.53727 19.1037 3.56325 19.1037 3.61284C19.1037 3.66242 19.1037 3.63645 19.0541 3.65298ZM19.4461 3.5231C19.432 3.55144 19.4107 3.54435 19.3847 3.58214C19.3588 3.61992 19.354 3.63645 19.3493 3.69548C19.3446 3.75452 19.3446 3.7616 19.2738 3.76633C19.2029 3.77105 19.2171 3.72854 19.2171 3.69076C19.2171 3.65298 19.2218 3.64826 19.2218 3.58214C19.2218 3.51838 19.236 3.57033 19.2832 3.54435C19.3281 3.51602 19.3352 3.49004 19.3588 3.43101C19.3847 3.37197 19.354 3.36489 19.3068 3.33891C19.262 3.31058 19.2808 3.30585 19.2808 3.25154C19.2808 3.19723 19.3375 3.20195 19.4131 3.13347C19.4886 3.06263 19.5453 3.05319 19.6114 3.10041C19.6776 3.15 19.5099 3.35544 19.4674 3.45226C19.4721 3.45226 19.4627 3.49477 19.4461 3.5231ZM18.8463 5.47833C18.8251 5.54681 18.7731 5.44055 18.4898 5.24691C18.2064 5.05328 18.3505 5.09106 18.4898 5.02258C18.6291 4.9541 18.8534 4.90688 18.8534 4.90688C18.8534 4.90688 18.8676 5.40985 18.8463 5.47833Z" fill="white"/>
<path fill-rule="evenodd" clip-rule="evenodd" d="M5.28711 18.8202L11.2968 10.2554V6.7771H11.4055H13.5449H13.6511V10.2554L19.8451 19.0563L19.668 19.1791L13.4575 10.3499L13.4386 10.2885V6.99199H13.2875L12.4964 7.39578L11.7219 6.99199H11.5117V10.2885L11.4928 10.3499L5.46185 18.943L5.28711 18.8202Z" fill="#392c6d"/>
<path fill-rule="evenodd" clip-rule="evenodd" d="M9.07511 1.83252V1.26343H3.85645L4.39012 1.83252H9.07511Z" fill="#C30D23"/>
<path fill-rule="evenodd" clip-rule="evenodd" d="M15.9512 1.26343V1.83252H20.6196L21.1108 1.26343H15.9512Z" fill="#C30D23"/>
<path fill-rule="evenodd" clip-rule="evenodd" d="M10.6186 0.313965V1.80872H10.0708V0.951539L9.63867 1.08378V0.649282C9.96218 0.649282 10.1511 0.538297 10.2054 0.313965H10.6186ZM11.0768 1.44979L11.5065 1.42382C11.5349 1.49938 11.601 1.53952 11.7002 1.53952C11.8631 1.53952 11.9457 1.42854 11.9457 1.20421C11.8348 1.27977 11.7096 1.31519 11.5679 1.31047C11.2421 1.29394 11.0626 1.13573 11.0343 0.838193C11.0461 0.500514 11.2586 0.325772 11.6742 0.316326C12.1654 0.316326 12.4109 0.571356 12.4109 1.08378C12.3944 1.56786 12.163 1.81581 11.7191 1.82761C11.3436 1.82525 11.1287 1.7001 11.0768 1.44979ZM11.7002 1.02474C11.8466 1.01294 11.9198 0.942094 11.9198 0.812217C11.908 0.698871 11.8371 0.635113 11.7096 0.625668C11.5821 0.630391 11.5136 0.698871 11.5089 0.828747C11.5136 0.953901 11.5774 1.02002 11.7002 1.02474ZM12.4912 1.29394H12.9446C12.9446 1.36006 12.9659 1.41437 13.0084 1.45688C13.0509 1.48994 13.1075 1.50883 13.1808 1.51355C13.313 1.50883 13.3862 1.45215 13.398 1.34117C13.4027 1.22074 13.3012 1.16643 13.091 1.17823V0.91848C13.2847 0.930287 13.3815 0.880698 13.3815 0.772074C13.3815 0.684703 13.3177 0.642198 13.1926 0.642198C13.0674 0.642198 12.9966 0.694148 12.9848 0.798049H12.5503C12.5739 0.49343 12.7935 0.332856 13.2091 0.316326C13.6058 0.328133 13.8136 0.462732 13.8325 0.724846C13.8325 0.866529 13.7687 0.963346 13.6436 1.01766C13.7947 1.07197 13.8726 1.17587 13.8774 1.327C13.8679 1.65287 13.6271 1.82053 13.1501 1.82525C12.7179 1.81345 12.4959 1.6387 12.4912 1.29394ZM13.9671 1.29394H14.4181C14.4181 1.36006 14.4394 1.41437 14.4819 1.45688C14.5244 1.48994 14.5811 1.50883 14.6543 1.51355C14.7865 1.50883 14.8597 1.45215 14.8715 1.34117C14.8762 1.2231 14.7747 1.16879 14.5622 1.18059V0.91848C14.7558 0.930287 14.8526 0.880698 14.8526 0.772074C14.8526 0.684703 14.7889 0.642198 14.6637 0.642198C14.5362 0.642198 14.4677 0.694148 14.4559 0.798049H14.0214C14.045 0.49343 14.2646 0.332856 14.6802 0.316326C15.0769 0.328133 15.2847 0.462732 15.3036 0.724846C15.3036 0.866529 15.2399 0.963346 15.1147 1.01766C15.2659 1.07197 15.3438 1.17587 15.3509 1.327C15.3438 1.65287 15.1029 1.82053 14.6259 1.82525C14.1914 1.81345 13.9718 1.6387 13.9671 1.29394Z" fill="white"/>
<path fill-rule="evenodd" clip-rule="evenodd" d="M6.04767 19.5548L12.4281 10.4965L18.9975 19.6351L18.4473 20.216C18.8676 19.8452 19.2478 19.4556 19.576 19.0471L13.4577 10.3501L13.4388 10.2887V6.99219H13.29L12.499 7.39598L11.7244 6.99219H11.5143V10.2887L11.4954 10.3501L5.52344 18.8558C5.68637 19.0967 5.86112 19.3304 6.04767 19.5548Z" fill="#E1E4E6"/>
<path fill-rule="evenodd" clip-rule="evenodd" d="M6.90689 6.92114V10.501L6.89036 10.5577L4.80762 13.4693V15.3371L7.35319 11.8139L7.42876 11.7077L7.50904 11.8139L8.69682 13.4173L9.42177 12.4373L7.98841 10.5577L7.96715 10.4986V6.92114H6.90689Z" fill="white"/>
<path fill-rule="evenodd" clip-rule="evenodd" d="M7.4529 7.28247V11.0064L9.10115 12.8719L9.03975 12.9522L7.40804 11.1008L5.2332 13.9817L5.15527 13.9227L7.35372 11.0087V7.28247H7.4529Z" fill="#392c6d"/>
<path fill-rule="evenodd" clip-rule="evenodd" d="M5.18773 14.0527C5.24676 14.0527 5.29635 14.0031 5.29635 13.9441C5.29635 13.885 5.24676 13.8354 5.18773 13.8354C5.12869 13.8354 5.0791 13.885 5.0791 13.9441C5.0791 14.0031 5.12869 14.0527 5.18773 14.0527Z" fill="#392c6d"/>
<path fill-rule="evenodd" clip-rule="evenodd" d="M7.41722 7.3818C7.47625 7.3818 7.52584 7.33221 7.52584 7.27317C7.52584 7.21414 7.47625 7.16455 7.41722 7.16455C7.35818 7.16455 7.30859 7.21414 7.30859 7.27317C7.30859 7.33221 7.35582 7.3818 7.41722 7.3818Z" fill="#392c6d"/>
<path fill-rule="evenodd" clip-rule="evenodd" d="M17.4959 7.28247V10.8009L15.8477 12.8719L15.9091 12.9522L17.5408 10.8954L19.7156 13.9817L19.7935 13.9227L17.5951 10.8033V7.28247H17.4959Z" fill="#392c6d"/>
<path fill-rule="evenodd" clip-rule="evenodd" d="M19.76 14.0527C19.819 14.0527 19.8686 14.0031 19.8686 13.9441C19.8686 13.885 19.819 13.8354 19.76 13.8354C19.701 13.8354 19.6514 13.885 19.6514 13.9441C19.6514 14.0031 19.6986 14.0527 19.76 14.0527Z" fill="#392c6d"/>
<path fill-rule="evenodd" clip-rule="evenodd" d="M17.5305 7.3818C17.5895 7.3818 17.6391 7.33221 17.6391 7.27317C17.6391 7.21414 17.5895 7.16455 17.5305 7.16455C17.4715 7.16455 17.4219 7.21414 17.4219 7.27317C17.4219 7.33221 17.4715 7.3818 17.5305 7.3818Z" fill="#392c6d"/>
<path fill-rule="evenodd" clip-rule="evenodd" d="M12.5459 10.6617V8.02637H12.3311V10.6333L12.4279 10.4987L12.5459 10.6617Z" fill="#392c6d"/>
<path fill-rule="evenodd" clip-rule="evenodd" d="M6.04004 19.5641L12.4276 10.4988L19.056 19.7105L18.3358 20.334L12.463 11.9298L6.55482 20.334L6.04004 19.5641Z" fill="#392c6d"/>
<path fill-rule="evenodd" clip-rule="evenodd" d="M10.7232 15.1838L12.4895 17.753L14.2511 15.224L14.3314 15.2807L12.5485 17.838L15.5286 22.1735L15.4483 22.2279L12.4895 17.9254L9.47872 22.2467L9.39844 22.1901L12.4305 17.838L10.6429 15.2381L10.7232 15.1838Z" fill="#00538F"/>
<path fill-rule="evenodd" clip-rule="evenodd" d="M12.4874 17.9559C12.5488 17.9559 12.6007 17.9064 12.6007 17.8426C12.6007 17.7788 12.5511 17.7292 12.4874 17.7292C12.426 17.7292 12.374 17.7788 12.374 17.8426C12.374 17.9064 12.4236 17.9559 12.4874 17.9559Z" fill="#392c6d"/>
<path fill-rule="evenodd" clip-rule="evenodd" d="M0 17.8379V18.2134C1.0272 18.5723 1.98829 18.9784 2.73685 19.6939C2.84783 19.6325 2.9659 19.5593 3.08397 19.4767L3.07453 19.4814C2.24332 18.6856 1.14055 18.237 0 17.8379Z" fill="#C30D23"/>
<path fill-rule="evenodd" clip-rule="evenodd" d="M25.1914 17.8379V18.2134C24.1642 18.5723 23.2031 18.9784 22.4545 19.6939C22.3436 19.6325 22.2255 19.5593 22.1074 19.4767C22.1098 19.4791 22.1145 19.4814 22.1169 19.4814C22.9481 18.6856 24.0485 18.237 25.1914 17.8379Z" fill="#C30D23"/>
<path fill-rule="evenodd" clip-rule="evenodd" d="M1.33203 20.8911V21.2666C3.0889 21.4248 4.08069 21.8262 5.96743 22.5866C7.79751 23.3234 10.8862 24.1829 12.7918 24.2372C14.74 24.2939 16.6527 23.432 18.4403 22.6858C20.2916 21.9136 21.9776 21.3587 23.7558 21.0871V20.7117C21.9776 20.9832 20.294 21.5358 18.4403 22.3103C16.6527 23.0565 14.74 23.9184 12.7918 23.8618C10.8862 23.8074 7.79987 22.9455 5.96743 22.2112C4.08069 21.4531 3.0889 21.0493 1.33203 20.8911Z" fill="#D8E8F7"/>
<path fill-rule="evenodd" clip-rule="evenodd" d="M1.33203 23.5312V23.928C2.65913 24.2893 3.79496 24.5986 5.11025 25.0756C7.53539 25.9588 10.14 26.9954 12.6502 27.0048C15.191 27.0119 17.5855 25.758 19.9775 24.8796C21.2314 24.4191 22.4475 23.9539 23.7558 23.9988V23.6021C22.4475 23.5572 21.2314 24.0224 19.9775 24.4829C17.5855 25.3613 15.191 26.6176 12.6502 26.6081C10.14 26.6011 7.53539 25.5644 5.11025 24.6789C3.79496 24.2019 2.65913 23.8925 1.33203 23.5312Z" fill="#C30D23"/>
<path fill-rule="evenodd" clip-rule="evenodd" d="M2.60938 22.9221L2.63535 22.693L2.67549 22.7072C2.68022 22.8394 2.72744 22.9197 2.81245 22.948C2.88566 22.9669 2.93525 22.941 2.9565 22.8654C2.96831 22.8111 2.93288 22.7379 2.84551 22.6458C2.74161 22.5301 2.69911 22.4285 2.718 22.3412C2.75342 22.2184 2.84079 22.1735 2.97539 22.2066C3.01081 22.2184 3.05095 22.242 3.09818 22.2774C3.11235 22.2845 3.11943 22.2892 3.12652 22.2916C3.12888 22.2916 3.13596 22.2916 3.14541 22.2869C3.14069 22.2892 3.14541 22.2869 3.15486 22.2845L3.17611 22.2916L3.15249 22.4947L3.11235 22.4828C3.1029 22.3695 3.0604 22.2963 2.97775 22.2656C2.91399 22.2514 2.87385 22.2703 2.85732 22.3199C2.84788 22.3648 2.87857 22.4262 2.95178 22.5041C3.01317 22.5749 3.05804 22.634 3.08637 22.6812C3.11471 22.7497 3.12416 22.8111 3.10999 22.8654C3.06512 23.0024 2.97539 23.0543 2.83607 23.0165C2.77939 22.9929 2.73453 22.9693 2.69675 22.9504C2.67786 22.9339 2.66605 22.9244 2.66369 22.9244C2.65188 22.9244 2.64243 22.9291 2.63771 22.9386L2.60938 22.9221Z" fill="white"/>
<path fill-rule="evenodd" clip-rule="evenodd" d="M8.32895 24.2704L8.34076 24.2231L8.67135 24.327L8.65954 24.3743L8.64301 24.3695C8.58634 24.3507 8.55092 24.3743 8.54148 24.4357L8.43049 24.9221C8.4116 24.9859 8.43285 25.0237 8.49189 25.0402L8.50842 25.0449L8.49661 25.0945L8.16602 24.9906L8.17782 24.9434L8.18963 24.9481C8.23922 24.967 8.27228 24.9457 8.28645 24.8867L8.39743 24.3955C8.41396 24.3365 8.39507 24.2963 8.34076 24.2798L8.32895 24.2704Z" fill="white"/>
<path fill-rule="evenodd" clip-rule="evenodd" d="M3.27957 22.7566C3.36222 22.504 3.52988 22.4142 3.78255 22.4851C4.00924 22.5843 4.10134 22.759 4.05411 23.007C3.9691 23.2596 3.8038 23.3494 3.55822 23.2714C3.32444 23.1746 3.23235 23.0046 3.27957 22.7566ZM3.44723 22.7543C3.39056 23.0046 3.44015 23.1652 3.59364 23.236C3.72824 23.2785 3.82742 23.1982 3.88881 22.9975C3.9384 22.7519 3.88881 22.5937 3.74477 22.5276C3.60072 22.4922 3.50154 22.5654 3.44723 22.7543Z" fill="white"/>
<path fill-rule="evenodd" clip-rule="evenodd" d="M4.73178 22.9149L4.74358 22.8677L5.01042 22.9645L4.99861 23.0117L4.98917 23.0094C4.92305 22.9858 4.88291 23.007 4.8711 23.0755L4.79317 23.3801C4.7365 23.5832 4.61371 23.654 4.42244 23.5903C4.22408 23.5147 4.14615 23.3872 4.19102 23.203L4.28548 22.8417C4.30437 22.7851 4.28548 22.7496 4.23353 22.7355L4.21463 22.7284L4.22644 22.6812L4.54759 22.7969L4.53578 22.8441L4.51925 22.8394C4.46966 22.8252 4.43897 22.8441 4.4248 22.8937L4.33034 23.2573C4.29728 23.3872 4.34215 23.4769 4.46494 23.5242C4.59482 23.5714 4.67983 23.5194 4.72469 23.373L4.80026 23.0779C4.82623 22.9929 4.80734 22.9409 4.74831 22.922L4.73178 22.9149Z" fill="white"/>
<path fill-rule="evenodd" clip-rule="evenodd" d="M7.21426 24.3955L7.25913 24.412C7.22607 24.4852 7.18593 24.5537 7.14106 24.6104C7.12453 24.6009 7.10564 24.5915 7.08203 24.5844C7.05841 24.5797 7.03716 24.5726 7.01355 24.5655C6.98049 24.5584 6.9427 24.5466 6.90256 24.5348C6.67587 24.4356 6.58377 24.2609 6.62628 24.0129C6.70893 23.7768 6.87422 23.6894 7.12689 23.7555C7.17648 23.7721 7.22607 23.8075 7.28274 23.8547C7.29691 23.8665 7.30636 23.8736 7.31344 23.876C7.32053 23.8831 7.32997 23.8807 7.33706 23.8736L7.36539 23.8831L7.31816 24.1003L7.27802 24.0861C7.27566 23.9515 7.22135 23.8618 7.11981 23.8217C6.95687 23.7815 6.84589 23.8594 6.78449 24.0554C6.73962 24.275 6.7963 24.4238 6.95687 24.497C7.05133 24.5301 7.1387 24.497 7.21426 24.3955Z" fill="white"/>
<path fill-rule="evenodd" clip-rule="evenodd" d="M5.46926 23.2219L5.31577 23.7768C5.29216 23.8406 5.31341 23.8807 5.37953 23.8996L5.40314 23.9091L5.38897 23.9563L5.0206 23.8146L5.03476 23.7674L5.07019 23.7815C5.12214 23.8052 5.15756 23.7863 5.17409 23.7225L5.32758 23.1676L5.20242 23.1204C5.14103 23.0802 5.08908 23.1133 5.05366 23.2195L5.00879 23.203L5.09144 22.9834L5.12214 22.9952C5.1245 23.007 5.12922 23.0165 5.1363 23.0235C5.13867 23.0306 5.14811 23.0377 5.16228 23.0401L5.65345 23.229C5.66998 23.2384 5.68887 23.2361 5.70776 23.2219L5.74554 23.2361L5.69831 23.4698L5.65817 23.4557C5.67942 23.3423 5.65581 23.2809 5.58497 23.2715L5.46926 23.2219Z" fill="white"/>
<path fill-rule="evenodd" clip-rule="evenodd" d="M6.11601 24.183L6.13254 24.1901C6.18213 24.2137 6.21519 24.1924 6.23408 24.1239L6.29311 23.9114L5.95307 23.7815L5.89168 23.9988C5.87042 24.0602 5.88932 24.1003 5.94835 24.1192L5.96488 24.1263L5.95071 24.1735L5.62012 24.046L5.63429 23.9988L5.65082 24.0059C5.7004 24.0295 5.73346 24.0082 5.75236 23.9445L5.88459 23.4604C5.90112 23.4037 5.88223 23.3659 5.83264 23.347L5.81611 23.34L5.83028 23.2927L6.16087 23.4202L6.14671 23.4675L6.13018 23.4604C6.0735 23.4391 6.03808 23.4557 6.02628 23.5147L5.97196 23.7083L6.312 23.8406L6.36395 23.6517C6.38048 23.5926 6.36159 23.5501 6.30492 23.5289L6.29547 23.5265L6.30964 23.4793L6.64024 23.6068L6.62607 23.654L6.60482 23.6469C6.5505 23.6257 6.51744 23.6446 6.50564 23.7036L6.3734 24.1877C6.35215 24.2491 6.37104 24.2892 6.43007 24.3081L6.4466 24.3152L6.43243 24.3624L6.10184 24.2349L6.11601 24.183Z" fill="white"/>
<path fill-rule="evenodd" clip-rule="evenodd" d="M7.776 24.7993L7.79253 24.8041C7.84212 24.8253 7.87518 24.8017 7.89171 24.7356L7.94366 24.5207L7.5989 24.4026L7.54459 24.6222C7.5257 24.686 7.54459 24.7238 7.60362 24.7403L7.62015 24.745L7.60835 24.7922L7.27539 24.6789L7.2872 24.6317L7.30373 24.6388C7.35332 24.66 7.38638 24.6364 7.40291 24.5726L7.52098 24.0838C7.53514 24.0272 7.51625 23.9894 7.4643 23.9728L7.44777 23.9681L7.45958 23.9209L7.79253 24.0342L7.78073 24.0815L7.7642 24.0767C7.70752 24.0579 7.67447 24.0767 7.66266 24.1358L7.61543 24.3318L7.96019 24.4475L8.00742 24.2562C8.02159 24.1972 8.0027 24.157 7.94366 24.1358L7.93658 24.1334L7.94839 24.0862L8.28134 24.1995L8.26953 24.2468L8.24828 24.2397C8.19397 24.2208 8.16091 24.242 8.15147 24.2987L8.0334 24.7875C8.0145 24.8513 8.0334 24.8891 8.09243 24.9056L8.10896 24.9103L8.09715 24.9575L7.7642 24.8442L7.776 24.7993Z" fill="white"/>
<path fill-rule="evenodd" clip-rule="evenodd" d="M8.84098 24.5466L8.74181 25.0118C8.71819 25.0826 8.74653 25.1275 8.82209 25.144L8.81265 25.1936L8.55762 25.118L8.56706 25.0708L8.57651 25.0732C8.6261 25.0921 8.65916 25.0732 8.67096 25.0189L8.79139 24.4474C8.7725 24.4285 8.74653 24.412 8.71583 24.4002L8.72528 24.3506L8.9378 24.4143L9.25659 25.0684L9.33451 24.6953C9.35813 24.6174 9.33451 24.5726 9.25895 24.5607L9.24714 24.5584L9.25659 24.5112L9.52815 24.5914L9.5187 24.6387L9.50689 24.6363C9.44314 24.6174 9.41244 24.6292 9.40772 24.6741L9.26839 25.3306L9.21172 25.314L8.84098 24.5466Z" fill="white"/>
<path fill-rule="evenodd" clip-rule="evenodd" d="M9.93177 25.2055L9.70036 25.1488L9.63188 25.2834C9.61063 25.3188 9.60354 25.3448 9.61299 25.359C9.62007 25.3755 9.64841 25.3873 9.69564 25.3967L9.70744 25.3991L9.698 25.4487L9.41699 25.3779L9.42644 25.3283L9.44297 25.333C9.4902 25.3519 9.53034 25.3212 9.56812 25.2409L9.85621 24.6931L9.84913 24.6553L10.0073 24.6954L10.1042 25.3826C10.1112 25.4676 10.1396 25.5125 10.1915 25.5219L10.1821 25.5715L9.83968 25.4841L9.84913 25.4345L9.88691 25.444C9.91524 25.4511 9.93414 25.4487 9.94358 25.4369C9.95539 25.4227 9.95775 25.3991 9.95303 25.3637L9.93177 25.2055ZM9.92233 25.1323L9.8751 24.8135L9.73106 25.085L9.92233 25.1323Z" fill="white"/>
<path fill-rule="evenodd" clip-rule="evenodd" d="M10.7535 25.059L10.6968 25.5337C10.6803 25.6092 10.711 25.6494 10.7889 25.6541L10.7842 25.7037L10.5244 25.6612L10.5291 25.6116L10.5386 25.614C10.5905 25.6258 10.6212 25.6045 10.6283 25.5478L10.6968 24.9646C10.6755 24.948 10.6496 24.9362 10.6165 24.9268L10.6212 24.8772L10.8385 24.9126L11.2139 25.5242L11.2588 25.144C11.2753 25.0637 11.247 25.0212 11.1714 25.0189L11.1596 25.0165L11.1667 24.9669L11.443 25.0118L11.4359 25.0614L11.4241 25.059C11.3603 25.0496 11.3273 25.0661 11.3296 25.1086L11.2494 25.7792L11.1927 25.7698L10.7535 25.059Z" fill="white"/>
<path fill-rule="evenodd" clip-rule="evenodd" d="M11.4717 25.4321C11.5071 25.1653 11.6559 25.0354 11.9157 25.0425C12.1565 25.085 12.2746 25.2314 12.2722 25.4865C12.2321 25.7556 12.0857 25.8832 11.833 25.8666C11.5898 25.8312 11.4694 25.6872 11.4717 25.4321ZM11.6346 25.3896C11.6252 25.6494 11.7008 25.7934 11.8613 25.8241C12.003 25.8336 12.0833 25.7297 12.1093 25.5195C12.114 25.2668 12.0384 25.1252 11.885 25.0945C11.7409 25.0945 11.6559 25.1913 11.6346 25.3896Z" fill="white"/>
<path fill-rule="evenodd" clip-rule="evenodd" d="M12.581 25.5715V25.7675C12.5787 25.8336 12.607 25.8667 12.6661 25.8619H12.6991V25.9115H12.3237V25.8619H12.3402C12.4039 25.869 12.437 25.8383 12.4323 25.7675V25.2645C12.4346 25.2031 12.4063 25.17 12.3425 25.17H12.3213V25.1205H12.3496C12.3969 25.1134 12.4346 25.111 12.4606 25.111C12.5362 25.1063 12.5952 25.1039 12.6377 25.1016C12.7912 25.1016 12.8904 25.1323 12.9376 25.1913C12.9707 25.2338 12.9872 25.281 12.9872 25.3353C12.9825 25.4392 12.9282 25.5054 12.8266 25.5384C12.8526 25.5644 12.8857 25.6093 12.9234 25.673C12.9565 25.7297 12.9872 25.7722 13.0132 25.7982C13.0462 25.8478 13.0958 25.8737 13.1572 25.8785V25.9186H13.0911C12.973 25.9233 12.8951 25.8973 12.855 25.843C12.829 25.8171 12.803 25.7816 12.7794 25.7391C12.744 25.6777 12.7038 25.6211 12.6661 25.5738H12.581V25.5715ZM12.581 25.1535V25.5219H12.6235C12.7605 25.5266 12.829 25.4652 12.829 25.3377C12.8266 25.222 12.7629 25.1582 12.6401 25.1535H12.581Z" fill="white"/>
<path fill-rule="evenodd" clip-rule="evenodd" d="M13.6082 25.8595L13.3367 25.2479L13.332 25.7013C13.3201 25.7958 13.3508 25.8359 13.4264 25.8217L13.4288 25.8713L13.1879 25.8855L13.1855 25.8359C13.254 25.8454 13.28 25.7981 13.2706 25.6942L13.2753 25.229C13.28 25.1653 13.254 25.1369 13.195 25.1393L13.1926 25.0897L13.4193 25.0755L13.6531 25.595L13.8302 25.0496L14.0616 25.0354L14.064 25.085C13.9931 25.0826 13.9695 25.1157 13.9931 25.1842L14.038 25.6564C14.0309 25.7485 14.064 25.7863 14.1372 25.7745L14.1395 25.8241L13.8019 25.8454L13.7995 25.7958H13.816C13.8751 25.8029 13.9034 25.7722 13.8987 25.706C13.8987 25.6848 13.8963 25.6659 13.8916 25.647L13.8467 25.196L13.6366 25.8572L13.6082 25.8595Z" fill="white"/>
<path fill-rule="evenodd" clip-rule="evenodd" d="M14.6198 25.4323L14.3884 25.4748L14.3671 25.6306C14.3577 25.6731 14.36 25.6991 14.3742 25.7085C14.386 25.7203 14.4167 25.7203 14.4639 25.7085L14.4757 25.7062L14.4828 25.7558L14.1995 25.8077L14.1924 25.7581L14.2089 25.7558C14.2585 25.7534 14.2868 25.7085 14.2986 25.6188L14.4025 24.986L14.3837 24.9529L14.5419 24.9246L14.8394 25.5244C14.8725 25.5999 14.9126 25.6306 14.9622 25.6188L14.9693 25.6684L14.6222 25.7322L14.6151 25.6826L14.6529 25.6755C14.6812 25.6708 14.6977 25.6613 14.7048 25.6448C14.7119 25.6259 14.7072 25.6023 14.6906 25.5716L14.6198 25.4323ZM14.5915 25.3661L14.4521 25.0899L14.4002 25.4039L14.5915 25.3661Z" fill="white"/>
<path fill-rule="evenodd" clip-rule="evenodd" d="M15.6131 25.2597L15.5777 25.4982L15.0086 25.6423L14.9992 25.5927L15.0204 25.588C15.0795 25.5761 15.1031 25.5407 15.0913 25.4793L15.0015 24.9764C14.9897 24.9173 14.959 24.8961 14.9024 24.9102L14.8835 24.915L14.874 24.8654L15.233 24.7756L15.2424 24.8252L15.2093 24.8347C15.155 24.8488 15.1338 24.8843 15.1479 24.9409L15.24 25.4534C15.2424 25.5006 15.2637 25.5147 15.3038 25.4982L15.4408 25.4652C15.4809 25.4557 15.521 25.4038 15.5612 25.314C15.5659 25.2975 15.5706 25.2857 15.5754 25.2739L15.6131 25.2597Z" fill="white"/>
<path fill-rule="evenodd" clip-rule="evenodd" d="M16.2774 24.5017L16.2656 24.4545L16.5324 24.3577L16.5442 24.4049L16.5372 24.4073C16.471 24.4309 16.4474 24.4757 16.471 24.5419L16.549 24.8465C16.5986 25.0519 16.5301 25.1912 16.3412 25.2668C16.1404 25.3353 16.0177 25.2786 15.9657 25.0991L15.8712 24.7378C15.8594 24.6788 15.8287 24.6623 15.7768 24.6835L15.7579 24.6906L15.7461 24.6434L16.0672 24.5277L16.079 24.5749L16.0625 24.5796C16.0153 24.6009 15.9964 24.6363 16.0106 24.6859L16.105 25.0472C16.1381 25.1771 16.2184 25.2219 16.3435 25.1794C16.4734 25.1322 16.5206 25.033 16.4876 24.8843L16.412 24.5891C16.3931 24.5017 16.353 24.471 16.2939 24.4946L16.2774 24.5017Z" fill="white"/>
<path fill-rule="evenodd" clip-rule="evenodd" d="M16.7442 24.4261L16.8764 24.8795C16.8882 24.955 16.9331 24.9739 17.0063 24.9385L17.0204 24.9857L16.7725 25.0873L16.7583 25.0401L16.7678 25.0377C16.8197 25.0212 16.8363 24.9857 16.8221 24.9314L16.6592 24.3741C16.6332 24.3718 16.6048 24.3741 16.5718 24.3836L16.5576 24.3364L16.7654 24.2514L17.3345 24.5938L17.2283 24.2301C17.2117 24.1498 17.1716 24.1262 17.1007 24.1663L17.0889 24.1711L17.0748 24.1238L17.3392 24.0176L17.3534 24.0648L17.3416 24.0695C17.2802 24.0955 17.2589 24.1262 17.2755 24.1663L17.462 24.8063L17.4077 24.8275L16.7442 24.4261Z" fill="white"/>
<path fill-rule="evenodd" clip-rule="evenodd" d="M20.3013 23.4863L20.2139 23.2785L20.2541 23.2619C20.3202 23.3682 20.3981 23.4036 20.4831 23.3706C20.554 23.3375 20.5823 23.2832 20.5634 23.2053C20.5492 23.151 20.4831 23.1155 20.365 23.0966C20.2234 23.0683 20.1407 23.014 20.1171 22.929C20.0888 22.8038 20.1384 22.7094 20.2659 22.648C20.2989 22.6338 20.3462 22.6267 20.4028 22.6244C20.417 22.622 20.4264 22.6196 20.4312 22.6173C20.4335 22.6173 20.4383 22.6102 20.4453 22.6008C20.443 22.6055 20.4453 22.6008 20.4501 22.5937L20.4713 22.5842L20.5469 22.7684L20.5067 22.7849C20.4453 22.6976 20.3745 22.6645 20.2918 22.6929C20.2328 22.7236 20.2068 22.7661 20.2186 22.818C20.2304 22.8605 20.2871 22.8912 20.3839 22.9101C20.4689 22.929 20.5327 22.9455 20.5776 22.9668C20.6342 23.0046 20.6697 23.0494 20.6838 23.1037C20.7122 23.2478 20.6626 23.3493 20.528 23.4107C20.4689 23.4272 20.4217 23.4391 20.3816 23.4485C20.358 23.4485 20.3438 23.4461 20.3414 23.4485C20.332 23.4579 20.3273 23.465 20.3273 23.4768L20.3013 23.4863Z" fill="white"/>
<path fill-rule="evenodd" clip-rule="evenodd" d="M17.4126 24.0296L17.3984 23.9823L17.7196 23.843L17.7338 23.8902L17.7172 23.8973C17.6606 23.9209 17.644 23.9634 17.6653 24.0201L17.8117 24.4948C17.8282 24.5585 17.8636 24.5774 17.9179 24.5491L17.9345 24.542L17.9486 24.5892L17.6275 24.7285L17.6133 24.6813L17.6251 24.6766C17.6771 24.6601 17.6936 24.6199 17.6747 24.5609L17.5283 24.0815C17.5141 24.0225 17.4787 24.0036 17.4268 24.0248L17.4126 24.0296Z" fill="white"/>
<path fill-rule="evenodd" clip-rule="evenodd" d="M19.585 23.4556L19.6417 23.6398C19.6582 23.7036 19.6936 23.7225 19.7479 23.6941L19.7786 23.68L19.7928 23.7272L19.441 23.8783L19.4268 23.8311L19.4433 23.824C19.5047 23.8051 19.526 23.7626 19.5024 23.6965L19.356 23.2242C19.3418 23.1652 19.304 23.1463 19.245 23.1723L19.2261 23.1794L19.2119 23.1321C19.2166 23.1298 19.2261 23.125 19.2403 23.1203C19.2828 23.0943 19.3158 23.0755 19.3418 23.066C19.4126 23.0329 19.4669 23.0046 19.5047 22.9857C19.6488 22.9243 19.7503 22.9125 19.8117 22.9503C19.8542 22.9763 19.8849 23.0141 19.9014 23.066C19.9251 23.1652 19.8944 23.2502 19.8093 23.3234C19.8424 23.3376 19.8849 23.3683 19.9392 23.4108C19.9864 23.4509 20.0266 23.4769 20.0597 23.4934C20.1045 23.5265 20.1588 23.5312 20.2179 23.5099L20.2297 23.5477C20.2155 23.5548 20.1943 23.5643 20.1659 23.5761C20.0573 23.628 19.9746 23.6351 19.9227 23.5997C19.892 23.5855 19.8566 23.5619 19.8212 23.5312C19.7692 23.4863 19.7173 23.4509 19.6653 23.4226L19.585 23.4556ZM19.4646 23.0613L19.5708 23.4084L19.611 23.3919C19.7409 23.3399 19.7881 23.2549 19.7527 23.1369C19.7173 23.0282 19.6393 22.9952 19.5213 23.04L19.4646 23.0613Z" fill="white"/>
<path fill-rule="evenodd" clip-rule="evenodd" d="M18.3437 24.4214L17.9092 23.9232C17.8596 23.8594 17.8124 23.8429 17.7722 23.8736L17.7651 23.8783L17.751 23.8311L18.1028 23.6729L18.117 23.7201L18.1005 23.7272C18.058 23.7461 18.0343 23.7673 18.0296 23.7909C18.0225 23.8098 18.0343 23.8334 18.0627 23.8618L18.3508 24.19L18.3626 23.6823C18.3626 23.6351 18.3342 23.6233 18.2776 23.6445L18.254 23.6563L18.2398 23.6091L18.4972 23.4934L18.5113 23.5406L18.5066 23.543C18.4547 23.5595 18.4287 23.6186 18.4287 23.7225L18.4074 24.3955L18.3437 24.4214Z" fill="white"/>
<path fill-rule="evenodd" clip-rule="evenodd" d="M19.0113 23.3117L18.7894 23.4108L18.8767 23.6753L19.042 23.5998C19.0963 23.5809 19.1129 23.5431 19.0893 23.4817L19.1294 23.4628L19.2073 23.6989L19.1672 23.7178C19.153 23.6564 19.1129 23.6423 19.0491 23.6753L18.9004 23.7438L18.9688 23.9587C18.9783 24.0083 18.9972 24.0201 19.0279 24.0012L19.1979 23.9256C19.2593 23.9044 19.2853 23.8477 19.2735 23.7532L19.3136 23.7344L19.3632 23.9256L18.7563 24.2019L18.7421 24.1547L18.7823 24.1358C18.8366 24.1145 18.8531 24.0744 18.8342 24.0177L18.6784 23.5384C18.6619 23.4793 18.6241 23.4628 18.565 23.4935L18.5532 23.4982L18.5391 23.451L19.094 23.2007L19.1625 23.366L19.1223 23.3825C19.0845 23.3117 19.0491 23.2881 19.0113 23.3117Z" fill="white"/>
<path fill-rule="evenodd" clip-rule="evenodd" d="M20.6671 22.5488L20.6553 22.5016L20.9859 22.3906L20.9977 22.4379L20.9811 22.4426C20.9245 22.4615 20.9056 22.5016 20.9221 22.5606L21.0402 23.0447C21.052 23.1085 21.0874 23.1321 21.1441 23.1085L21.1606 23.1038L21.1724 23.151L20.8418 23.262L20.83 23.2147L20.8418 23.21C20.8938 23.1959 20.9127 23.1581 20.8985 23.099L20.7804 22.6102C20.7686 22.5488 20.7356 22.5276 20.6812 22.5465L20.6671 22.5488Z" fill="white"/>
<path fill-rule="evenodd" clip-rule="evenodd" d="M21.5028 22.2844L21.6303 22.8465C21.6397 22.9149 21.6751 22.9362 21.7413 22.9102L21.7649 22.9031L21.7767 22.9504L21.4012 23.0684L21.3894 23.0212L21.4272 23.0094C21.4815 22.9952 21.5028 22.9574 21.4886 22.8913L21.3611 22.3269L21.2336 22.3671C21.1627 22.3718 21.1344 22.4332 21.1556 22.5466L21.1108 22.5607L21.0801 22.3222L21.1131 22.3128C21.1202 22.3222 21.1297 22.3246 21.1391 22.3269C21.1462 22.3317 21.1556 22.3317 21.1675 22.3222L21.6657 22.164C21.6846 22.1616 21.6988 22.1475 21.7082 22.1239L21.746 22.1121L21.8145 22.3388L21.7743 22.3506C21.7413 22.2419 21.6917 22.2042 21.6279 22.2419L21.5028 22.2844Z" fill="white"/>
<path fill-rule="evenodd" clip-rule="evenodd" d="M22.4403 22.4591L22.4662 22.6315C22.471 22.6976 22.5064 22.7236 22.5725 22.7047L22.589 22.7023L22.5961 22.7519L22.2301 22.8275L22.223 22.7779L22.2513 22.7708C22.3033 22.7637 22.3269 22.7283 22.3175 22.6669L22.2915 22.4898L22.0081 22.1805C21.9798 22.1427 21.9444 22.1285 21.9042 22.1403L21.8948 22.1427L21.8877 22.0931L22.2372 22.0199L22.2443 22.0695L22.2277 22.0719C22.1994 22.0813 22.1829 22.0907 22.1781 22.1026C22.1711 22.1167 22.1758 22.1309 22.1923 22.1451L22.4025 22.3741L22.4922 22.1167C22.504 22.0813 22.504 22.0553 22.4922 22.0412C22.4851 22.0294 22.4662 22.0246 22.4355 22.0294L22.4237 22.0317L22.4166 21.9821L22.6693 21.9302L22.6764 21.9798C22.6221 21.9916 22.5843 22.0294 22.5701 22.0931L22.4403 22.4591Z" fill="white"/>
</svg>
