<svg xmlns="http://www.w3.org/2000/svg" xmlns:xlink="http://www.w3.org/1999/xlink" width="410.56" height="170.56" viewBox="0 0 307.92 127.92"><clipPath id="a"><path transform="scale(.24)" d="M0 0h1284v534H0z" fill-rule="evenodd"/></clipPath><g clip-path="url(#a)"><path stroke-miterlimit="10" fill="none" stroke="#000" d="M277.898 75.375v-22.5c0-5-2.5-7.5-7.5-7.5H170.153" stroke-width=".75"/><path d="m166.215 45.375 5.25-2.625-1.312 2.625L171.465 48l-5.25-2.625z"/><path stroke-miterlimit="10" fill="none" stroke="#000" d="m166.215 45.375 5.25-2.625-1.312 2.625L171.465 48l-5.25-2.625z" stroke-width=".75"/><path d="M189 34.5h65.25v20.25H189z" fill="#fff"/><symbol id="b"><path transform="matrix(.001 0 0 -.001 -.039 0)" d="M721-491c0-110-99-195-265-195H39v47h108v592H39V0c38-3 136-3 179-3s141 0 179 3v-47H289v-255h177c139 0 255-72 255-189zm-153 0c0 71 0 148-151 148H283v-296h135c150 0 150 76 150 148z"/></symbol><symbol id="c"><path transform="matrix(.001 0 0 -.001 -.038 .006)" d="M415-140c0-43-20-78-55-106-39-29-71-35-149-48-37-7-102-18-102-65 0-62 93-62 112-62 75 0 113 29 118 84 1 15 2 20 23 20 24 0 24-5 24-28v-80c0-19 0-28-18-28-4 0-6 0-45 19-26-13-61-19-101-19-30 0-184 0-184 131 0 40 20 67 40 84 40 35 78 41 155 55 36 6 111 19 111 78 0 75-92 75-114 75-106 0-132-73-144-116-5-14-10-14-24-14-24 0-24 6-24 29v109C38-3 38 6 56 6c7 0 9 0 30-15l26-17C158 6 210 6 230 6c31 0 185 0 185-146z"/></symbol><symbol id="d"><path transform="matrix(.001 0 0 -.001 -.032 .006)" d="M494-117c0-18-19-18-24-18-17 0-19 5-25 21-21 48-78 80-143 80-141 0-142-133-142-184h302c22 0 32 0 32-27 0-31-6-104-56-154-37-36-90-54-159-54-160 0-247 103-247 228C32-91 132 6 293 6c158 0 201-106 201-123zm-95-134H160c2-39 3-81 24-114 26-40 66-52 95-52 117 0 119 131 120 166z"/></symbol><symbol id="e"><path transform="matrix(.001 0 0 -.001 -.045 .006)" d="M615 0v-47c-62 0-69 0-69-39v-364l-183 8v47c62 0 69 0 69 39v191c0 82-51 135-124 135-77 0-80-25-80-79v-341l-183 8v47c62 0 69 0 69 39v233C114-16 195 6 294 6c26 0 98 0 144-78V6l177-6z"/></symbol><symbol id="f"><path transform="matrix(.001 0 0 -.001 -.038 .006)" d="M601 0v-47c-62 0-69 0-69-39v-608l-177 8v47c62 0 69 0 69 39v195c-50-39-102-45-135-45-146 0-251 88-251 229C38-89 130 6 278 6c61 0 109-24 140-49V6l183-6zM418-103c-13 18-54 73-130 73-122 0-122-121-122-191 0-48 0-102 26-141 29-42 76-52 107-52 57 0 97 32 119 61v250z"/></symbol><symbol id="g"><path transform="matrix(.001 0 0 -.001 -.032 .006)" d="M542-218c0-134-92-235-255-235-164 0-255 102-255 235C32-94 120 6 287 6 455 6 542-95 542-218zm-128-11c0 87 0 195-127 195S160-142 160-229c0-45 0-96 17-130 19-37 61-58 110-58 42 0 84 16 106 51 21 34 21 89 21 137z"/></symbol><symbol id="h"><path transform="matrix(.001 0 0 -.001 -.013 -.174)" d="M318-174v-97H13v97h305z"/></symbol><symbol id="i"><path transform="matrix(.001 0 0 -.001 -.039 0)" d="M860-639v-47c-38 3-95 3-134 3-42 0-94 0-135-3v47h25c18 0 35 1 53 3 29 3 30 4 30 26v405L301-673c-11-12-12-13-33-13H39v47h108v563c0 22-1 23-29 26-24 3-26 3-54 3H39V0c38-3 95-3 134-3 42 0 94 0 135 3v-47h-25c-18 0-35-1-53-3-29-3-30-4-30-26v-523L698-13c10 12 11 13 27 13 27 0 27-9 27-32v-578c0-22 1-23 29-26 24-3 26-3 54-3h25z"/></symbol><symbol id="j"><path transform="matrix(.001 0 0 -.001 -.027 .006)" d="M553-24c0-23-13-23-26-23-61-1-61-14-61-37v-215c0-89-71-154-220-154-57 0-179 4-179 92 0 44 35 63 62 63 31 0 63-21 63-63 0-30-19-47-22-49 28-6 60-7 72-7 75 0 110 42 110 118v34c-71 3-325 12-325 157C27-12 151 6 220 6c80 0 127-41 149-83 0 31 0 77 104 77h48c20 0 32 0 32-24zM352-139c0 96-92 109-117 109-51 0-91-35-91-79 0-108 158-122 208-125v95z"/></symbol><symbol id="k"><path transform="matrix(.001 0 0 -.001 -.021 .006)" d="M382-124v-53h-47v51c0 68-32 92-60 92-58 0-58-64-58-87v-276h146v-47H217v-191h-47c-1 100-50 199-149 202v36h82v274C103-16 190 6 261 6c76 0 121-57 121-130z"/></symbol><symbol id="l"><path transform="matrix(.001 0 0 -.001 -.037 0)" d="M442-368c0-53-54-82-106-82-70 0-110 50-133 113v-113l-166 8v47c62 0 69 0 69 39v309H37V0l126-3c38 0 102 0 138 3v-47h-87v-175c0-70 25-192 125-192 0 0-19 17-19 46 0 41 32 61 61 61s61-21 61-61z"/></symbol><symbol id="m"><path transform="matrix(.001 0 0 -.001 -.047 0)" d="M293 0v-47h-69v-647l-177 8v47c62 0 69 0 69 39v553H47V0l123-3 123 3z"/></symbol><use xlink:href="#b" transform="matrix(8.25 0 0 -8.25 189.357 42.75)"/><use xlink:href="#c" transform="matrix(8.25 0 0 -8.25 195.833 42.8)"/><use xlink:href="#d" transform="matrix(8.25 0 0 -8.25 199.53 42.8)"/><use xlink:href="#e" transform="matrix(8.25 0 0 -8.25 203.984 42.8)"/><use xlink:href="#f" transform="matrix(8.25 0 0 -8.25 209.198 42.8)"/><use xlink:href="#g" transform="matrix(8.25 0 0 -8.25 214.42 42.8)"/><use xlink:href="#h" transform="matrix(8.25 0 0 -8.25 219.007 41.315)"/><use xlink:href="#i" transform="matrix(8.25 0 0 -8.25 222.382 42.75)"/><use xlink:href="#j" transform="matrix(8.25 0 0 -8.25 229.708 42.8)"/><use xlink:href="#k" transform="matrix(8.25 0 0 -8.25 234.27 42.8)"/><use xlink:href="#e" transform="matrix(8.25 0 0 -8.25 238.156 42.8)"/><use xlink:href="#l" transform="matrix(8.25 0 0 -8.25 243.361 42.75)"/><use xlink:href="#j" transform="matrix(8.25 0 0 -8.25 247.19 42.8)"/><use xlink:href="#m" transform="matrix(8.25 0 0 -8.25 251.966 42.75)"/><symbol id="n"><path transform="matrix(.001 0 0 -.001 -.039 0)" d="m675-439-31-241H39v47h108v586H39V0c38-3 139-3 183-3 49 0 158 0 202 3v-47H289v-270h50c96 0 105 43 105 117h47v-281h-47c0 74-8 117-105 117h-50v-269h140c161 0 184 77 199 194h47z"/></symbol><symbol id="o"><path transform="matrix(.001 0 0 -.001 -.032 0)" d="M462-202h-47c-9 101-25 162-157 162h-86l277-361c8-11 10-13 10-22 0-21-14-21-32-21H60L48-269h47c6-103 37-139 140-139h85L41-44c-9 11-9 13-9 22C32 0 45 0 64 0h380l18-202z"/></symbol><symbol id="p"><path transform="matrix(.001 0 0 -.001 -.022 .2)" d="M580-397v-47c-24 2-54 3-79 3l-91-3v47s47 0 47 12l-5 12-115 246-127-270h54v-47l-124 3-114-3v47h64L277 0l-23 48c-22 48-54 116-125 116-14 0-16-1-24-4 9-4 32-18 32-53 0-33-24-57-58-57-28 0-57 19-57 58 0 51 47 92 107 92 77 0 135-62 162-119l215-457c7-14 10-21 74-21z"/></symbol><symbol id="r"><path transform="matrix(.001 0 0 -.001 -.045 0)" d="M615 0v-47h-69v-259c0-105-54-144-154-144-96 0-149 57-175 108v-108l-172 8v47c62 0 69 0 69 39v309H45V0l126-3 126 3v-47h-69v-209c0-109 86-158 149-158 34 0 55 21 55 97v270h-69V0l126-3 126 3z"/></symbol><symbol id="s"><path transform="matrix(.001 0 0 -.001 -.032 .201)" d="M558-397c0-23-17-58-63-58-15 0-62 3-106 38-18-12-60-33-134-33-144 0-199 78-199 148 0 41 20 82 52 105-28 35-34 68-34 89 0 15 4 64 44 96-13 3-86 24-86 87 0 51 55 126 255 126 177 0 255-59 255-129 0-30-8-93-75-127-56-28-116-28-212-28-26 0-72 0-77-1-44-7-55-45-55-63 0-10 4-25 10-33 46 24 97 26 122 26 144 0 199-78 199-148 0-47-25-80-40-96 30-16 51-18 62-19-2 5-4 14-4 20 0 25 17 43 43 43s43-19 43-43zm-215 95c0 45 0 112-88 112s-88-67-88-112 0-112 88-112 88 67 88 112zM456 75c0 36-39 90-169 90-120 0-169-46-169-92 0-60 63-60 77-60h117c31 0 144 0 144 62z"/></symbol><use xlink:href="#n" transform="matrix(8.25 0 0 -8.25 190.294 53.25)"/><use xlink:href="#e" transform="matrix(8.25 0 0 -8.25 195.525 53.3)"/><use xlink:href="#o" transform="matrix(8.25 0 0 -8.25 200.69 53.25)"/><use xlink:href="#o" transform="matrix(8.25 0 0 -8.25 204.905 53.25)"/><use xlink:href="#p" transform="matrix(8.25 0 0 -8.25 209.038 54.9)"/><use xlink:href="#q" transform="matrix(8.25 0 0 -8.25 213.964 54.908)"/><use xlink:href="#m" transform="matrix(8.25 0 0 -8.25 217.412 53.25)"/><use xlink:href="#j" transform="matrix(8.25 0 0 -8.25 219.879 53.3)"/><use xlink:href="#r" transform="matrix(8.25 0 0 -8.25 224.64 53.25)"/><use xlink:href="#s" transform="matrix(8.25 0 0 -8.25 229.804 54.908)"/><use xlink:href="#e" transform="matrix(8.25 0 0 -8.25 234.655 53.3)"/><use xlink:href="#j" transform="matrix(8.25 0 0 -8.25 239.778 53.3)"/><use xlink:href="#s" transform="matrix(8.25 0 0 -8.25 244.43 54.908)"/><use xlink:href="#d" transform="matrix(8.25 0 0 -8.25 249.175 53.3)"/><path d="M252.375 75.375h51a4.489 4.489 0 0 1 2.5.758 4.49 4.49 0 0 1 1.914 2.864c.057.29.086.583.086.878v21a4.489 4.489 0 0 1-.758 2.5 4.49 4.49 0 0 1-2.864 1.914c-.29.057-.582.086-.878.086h-51a4.488 4.488 0 0 1-2.5-.758 4.488 4.488 0 0 1-1.657-2.02 4.49 4.49 0 0 1-.343-1.722v-21a4.487 4.487 0 0 1 .758-2.5 4.487 4.487 0 0 1 2.02-1.657 4.49 4.49 0 0 1 1.722-.343z" fill="#fff"/><path fill="none" stroke="#000" d="M252.375 75.375h51a4.489 4.489 0 0 1 2.5.758 4.49 4.49 0 0 1 1.914 2.864c.057.29.086.583.086.878v21a4.489 4.489 0 0 1-.758 2.5 4.49 4.49 0 0 1-2.864 1.914c-.29.057-.582.086-.878.086h-51a4.488 4.488 0 0 1-2.5-.758 4.488 4.488 0 0 1-1.657-2.02 4.49 4.49 0 0 1-.343-1.722v-21a4.487 4.487 0 0 1 .758-2.5 4.487 4.487 0 0 1 2.02-1.657 4.49 4.49 0 0 1 1.722-.343z" stroke-width=".75"/><symbol id="t"><path transform="matrix(.001 0 0 -.001 -.033 0)" d="M230-74v-527c0-13 1-21 3-26 5-11 34-17 87-17h36v-39c-26 2-82 3-169 3-77 0-128-1-154-3v39h28c35 0 56 2 63 7s11 17 11 35v521c0 18-4 29-11 34s-28 8-63 8H33V0h521l28-263h-32c-5 51-14 92-25 124-22 63-81 100-170 100h-81c-38 0-44 0-44-35z"/></symbol><symbol id="u"><path transform="matrix(.001 0 0 -.001 -.037 0)" d="M175-108v-514L407-24c6 16 14 24 23 24s16-7 22-21l237-609v549c0 18-4 30-11 35s-28 7-63 7h-28V0c27-2 76-3 146-3s119 1 146 3v-39h-28c-35 0-56-2-63-7s-11-17-11-35v-521c0-18 4-29 11-34s28-8 63-8h28v-39H708c-27 0-29 1-37 21L458-115 247-659c-9-20-12-24-39-24H37v39h28c35 0 56 3 63 8s11 16 11 34v494c0 17-4 31-12 44-11 17-41 25-90 25V0l120-3 120 3v-39c-73 0-102-12-102-69z"/></symbol><symbol id="w"><path transform="matrix(.001 0 0 -.001 -.099 .25)" d="M317 250c9 0 14-5 14-14 0-4-6-12-18-25C213 108 163-46 163-250s51-359 154-466c9-10 14-17 14-20 0-9-5-14-14-14-17 0-48 30-94 91C140-550 99-414 99-250c0 168 42 306 127 413 45 58 76 87 91 87z"/></symbol><symbol id="x"><path transform="matrix(.001 0 0 -.001 -.033 0)" d="M170-611v503c0 17 4 31 12 44 11 17 41 25 90 25V0L152-3 33 0v-39c49 0 79-8 90-25 8-13 12-27 12-44v-516c0-8-1-13-2-14-5-4-27-6-67-6H33v-39h172c15 0 25 5 32 15l342 502v-409c0-17-4-31-12-44-11-17-41-25-90-25v-39l119 3 120-3v39c-49 0-79 8-90 25-8 13-12 27-12 44v545c0 23-1 30-18 30-7 0-13-5-20-15L170-611z"/></symbol><symbol id="y"><path transform="matrix(.001 0 0 -.001 -.057 .25)" d="M165 159C248 50 289-86 289-250c0-168-42-306-127-413-45-58-76-87-91-87-9 0-14 5-14 14 0 3 6 12 19 26 99 102 149 255 149 460 0 204-51 359-154 466-9 10-14 17-14 20 0 9 5 14 14 14 17 0 48-30 94-91z"/></symbol><use xlink:href="#t" transform="matrix(9 0 0 -9 256.293 93.75)"/><use xlink:href="#t" transform="matrix(9 0 0 -9 261.918 93.75)"/><use xlink:href="#u" transform="matrix(9 0 0 -9 267.58 93.75)"/><use xlink:href="#v" transform="matrix(9 0 0 -9 275.661 96)"/><use xlink:href="#w" transform="matrix(9 0 0 -9 279.387 96)"/><use xlink:href="#x" transform="matrix(9 0 0 -9 282.294 93.75)"/><use xlink:href="#x" transform="matrix(9 0 0 -9 289.044 93.75)"/><use xlink:href="#y" transform="matrix(9 0 0 -9 296.01 96)"/><path stroke-miterlimit="10" fill="none" stroke="#000" d="M165.375 90.375h77.723" stroke-width=".75"/><path d="M247.035 90.375 241.785 93l1.313-2.625-1.313-2.625 5.25 2.625z"/><path stroke-miterlimit="10" fill="none" stroke="#000" d="M247.035 90.375 241.785 93l1.313-2.625-1.313-2.625 5.25 2.625z" stroke-width=".75"/><path d="M170.25 79.5h65.25v20.25h-65.25z" fill="#fff"/><symbol id="z"><path transform="matrix(.001 0 0 -.001 -.035 0)" d="M395-312c57 0 108-16 153-48 51-36 76-81 76-135 0-57-26-104-78-140-46-32-99-48-159-48H35v39h28c35 0 56 3 63 8s11 16 11 34v521c0 18-4 30-11 35s-28 7-63 7H35V0c26-2 76-3 149-3 74 0 124 1 150 3v-39h-28c-35 0-56-2-63-7s-11-17-11-35v-231h163zM274-644h88c29 0 54 4 75 11 57 21 77 63 77 138 0 28-3 52-10 72-17 50-71 77-142 77H229v-263c0-36 6-35 45-35z"/></symbol><symbol id="A"><path transform="matrix(.001 0 0 -.001 -.028 0)" d="M364-378c0-39-37-64-76-64-51 0-90 30-116 91v-91L28-431v38c35 0 56 3 64 9s12 19 12 42v263c0 19-3 31-10 35s-29 6-66 6V0l115-3c42-1 85 0 128 3v-38h-24c-33 0-54-3-61-8s-10-17-10-35v-151c0-43 8-82 23-115 20-43 49-65 88-66-10 10-15 22-15 36 0 31 15 46 46 46 27 0 46-21 46-47z"/></symbol><symbol id="B"><path transform="matrix(.001 0 0 -.001 -.028 .011)" d="M249 11c62 0 114-22 157-66s65-97 65-159c0-63-21-118-63-164s-95-70-158-70-115 24-158 70-64 101-64 164c0 62 21 115 64 159s96 66 157 66zm1-32c-48 0-84-21-109-64-16-28-24-74-24-137 0-61 8-105 23-133 24-43 60-64 109-64 47 0 83 21 108 62 17 28 25 73 25 135 0 116-34 201-132 201z"/></symbol><symbol id="C"><path transform="matrix(.001 0 0 -.001 -.034 .011)" d="M251-416c42 0 74 10 96 30-24 3-41 25-41 48 0 33 16 49 49 49s49-17 49-50c0-71-77-109-154-109-62 0-113 22-154 68S34-279 34-216c0 61 21 115 62 160s91 67 152 67c50 0 89-14 117-43 23-23 38-46 46-70 3-9 4-15 4-19 0-9-6-13-17-13-8 0-13 4-16 12-21 67-62 101-125 101-29 0-57-13-85-40-33-31-49-83-49-157 0-100 38-198 128-198z"/></symbol><symbol id="D"><path transform="matrix(.001 0 0 -.001 -.028 .011)" d="M415-251c0-115-67-197-179-197-60 0-110 23-151 70-38 44-57 97-57 158 0 63 21 117 63 163s94 68 156 68c57 0 101-20 131-59 25-33 37-57 37-73 0-10-6-15-17-15-8 0-13 5-16 16-22 66-65 99-129 99-45 0-80-21-107-64-19-31-28-78-29-142h270c22 0 28-2 28-24zm-89-98c11 33 16 65 16 94H118c3-66 20-111 50-134 25-20 47-30 68-30 45 0 75 23 90 70z"/></symbol><symbol id="E"><path transform="matrix(.001 0 0 -.001 -.033 .011)" d="M360-130c0-76-52-124-155-144-47-9-78-20-94-31s-23-27-23-46c0-47 35-70 105-70 68 0 105 38 110 115 1 8 6 12 16 12 11 0 17-9 17-27v-99c0-19-5-28-15-28-11 0-26 18-36 26-25-17-56-26-92-26-89 0-160 40-160 125 0 34 14 63 43 86 35 29 68 35 131 46 65 13 98 42 98 87 0 57-35 86-106 86-69 0-113-46-132-137-3-13-8-20-17-20-11 0-17 10-17 29v129c0 19 5 28 15 28 3 0 7-3 15-10 18-16 11-13 29-31 29 27 65 41 107 41 95 0 161-49 161-141z"/></symbol><symbol id="F"><path transform="matrix(.001 0 0 -.001 -.034 .011)" d="M374 11 527 0v-38c-36 0-57-2-65-8s-12-21-12-44v-604l-149 11v38c35 0 57 3 65 9s11 20 11 43v203c-32-37-72-55-120-55-62 0-115 22-158 67s-65 99-65 162c0 61 20 114 61 159s91 68 152 68c51 0 94-19 127-58v58zM261-415c43 0 78 19 103 57 7 11 10 22 10 35v202c0 13-3 24-10 35-28 45-66 67-113 67-41 0-74-20-100-61-18-30-27-75-27-135 0-109 37-200 137-200z"/></symbol><use xlink:href="#z" transform="matrix(8.25 0 0 -8.25 183.453 87.75)"/><use xlink:href="#A" transform="matrix(8.25 0 0 -8.25 189.013 87.75)"/><use xlink:href="#B" transform="matrix(8.25 0 0 -8.25 192.247 87.84)"/><use xlink:href="#C" transform="matrix(8.25 0 0 -8.25 196.653 87.84)"/><use xlink:href="#D" transform="matrix(8.25 0 0 -8.25 200.266 87.84)"/><use xlink:href="#E" transform="matrix(8.25 0 0 -8.25 203.97 87.84)"/><use xlink:href="#E" transform="matrix(8.25 0 0 -8.25 207.221 87.84)"/><use xlink:href="#D" transform="matrix(8.25 0 0 -8.25 210.43 87.84)"/><use xlink:href="#F" transform="matrix(8.25 0 0 -8.25 214.143 87.84)"/><use xlink:href="#G" transform="matrix(8.25 0 0 -8.25 218.598 89.813)"/><symbol id="H"><path transform="matrix(.001 0 0 -.001 -.032 .011)" d="M483-91v-59h-32v59c0 39-11 59-32 59-20 0-32-25-32-45v-197c0-35-4-61-11-79-24-59-93-95-163-95-77 0-153 43-153 115 0 33 17 50 50 50s49-16 49-49c0-29-15-46-46-49 22-25 55-38 98-38 62 0 100 57 100 122v33c-78 5-137 17-178 36C66-197 32-154 32-97c0 26 10 48 29 65 32 29 76 43 132 43 59 0 101-25 127-76 7 38 35 71 78 71 53 0 85-42 85-97zM200-18c-46 0-84-34-84-80 0-93 97-133 195-138v95c0 67-44 123-111 123z"/></symbol><symbol id="I"><path transform="matrix(.001 0 0 -.001 -.019 .011)" d="M332-126v-60h-32v58c0 50-18 106-62 106-41 0-61-34-61-102v-271h139v-38H177v-182h-32c-1 33-4 62-11 88-17 66-56 100-115 103v29h83v269c0 59 18 97 53 116 27 14 52 21 77 21 66 0 100-66 100-137z"/></symbol><symbol id="J"><path transform="matrix(.001 0 0 -.001 -.032 .011)" d="M267-18c-69 0-82-29-82-94v-330L32-431v38c39 0 62 4 68 11s9 32 9 76v147c0 39 3 69 10 92 15 52 70 78 143 78 54 0 95-25 123-76v76L535 0v-38c-36 0-57-2-65-8s-12-20-12-43v-353l-152 11v38c35 0 56 3 64 9s12 19 12 42v175c0 79-42 149-115 149z"/></symbol><symbol id="K"><path transform="matrix(.001 0 0 -.001 -.033 0)" d="m144-3 111 3v-39c-36 0-58-1-65-5s-10-16-10-35v-615L33-683v38c35 0 57 3 64 9s11 20 11 43v514c0 19-4 31-11 35s-28 5-64 5V0l111-3z"/></symbol><symbol id="L"><path transform="matrix(.001 0 0 -.001 -.032 0)" d="M314-413c45 0 68 35 68 106v228c0 19-3 31-10 35s-29 6-66 6V0l115-3 114 3v-38c-32 0-53-1-63-4s-14-10-14-22v-187c0-47-1-80-4-99-10-61-55-92-134-92-63 0-110 30-141 90v-90L32-431v38c36 0 58 3 66 9s11 19 11 42v263c0 19-4 31-11 35s-29 6-66 6V0l115-3 114 3v-38c-37 0-58-2-65-6s-11-16-11-35v-180c0-81 51-154 129-154z"/></symbol><symbol id="M"><path transform="matrix(.001 0 0 -.001 -.028 .206)" d="M431-453c-38 0-73 15-105 45-30-23-64-34-103-34-86 0-164 64-164 148 0 42 15 76 45 102-19 24-29 51-29 82 0 38 13 67 38 86C71-10 28 26 28 77c0 43 28 77 83 101 42 19 88 28 138 28 51 0 98-9 140-28 55-24 82-58 82-103 0-53-22-92-66-117-46-25-97-28-171-28-44 0-68 0-73-1-28-4-48-31-48-62 0-15 4-29 13-41 28 19 60 29 97 29 86 0 163-64 163-148 0-39-13-71-39-96 25-23 52-34 81-34-5 5-8 13-8 23 0 22 11 33 33 33 21 0 32-11 32-34 0-31-24-52-54-52zm-208 42c54 0 81 39 81 117 0 79-27 119-81 119-55 0-82-39-82-118s27-118 82-118zM164-4h58c52 0 94 3 126 10 43 9 64 33 64 71 0 32-20 57-60 76-31 15-65 22-102 22-36 0-70-7-102-22-41-19-61-44-61-76 0-42 36-81 77-81z"/></symbol><use xlink:href="#x" transform="matrix(8.25 0 0 -8.25 170.651 98.25)"/><use xlink:href="#H" transform="matrix(8.25 0 0 -8.25 176.83 98.34)"/><use xlink:href="#I" transform="matrix(8.25 0 0 -8.25 180.848 98.34)"/><use xlink:href="#J" transform="matrix(8.25 0 0 -8.25 184.165 98.34)"/><use xlink:href="#A" transform="matrix(8.25 0 0 -8.25 188.719 98.25)"/><use xlink:href="#H" transform="matrix(8.25 0 0 -8.25 191.986 98.34)"/><use xlink:href="#K" transform="matrix(8.25 0 0 -8.25 196.119 98.25)"/><use xlink:href="#v" transform="matrix(8.25 0 0 -8.25 198.289 100.313)"/><use xlink:href="#t" transform="matrix(8.25 0 0 -8.25 201.16 98.25)"/><use xlink:href="#H" transform="matrix(8.25 0 0 -8.25 206.308 98.34)"/><use xlink:href="#L" transform="matrix(8.25 0 0 -8.25 210.433 98.25)"/><use xlink:href="#M" transform="matrix(8.25 0 0 -8.25 214.987 99.95)"/><use xlink:href="#J" transform="matrix(8.25 0 0 -8.25 219.145 98.34)"/><use xlink:href="#H" transform="matrix(8.25 0 0 -8.25 223.732 98.34)"/><use xlink:href="#M" transform="matrix(8.25 0 0 -8.25 227.824 99.95)"/><use xlink:href="#D" transform="matrix(8.25 0 0 -8.25 231.949 98.34)"/><path d="M90.375 75.375h75v30h-75z" fill="#fff"/><path fill="none" stroke="#000" d="M90.375 75.375h75v30h-75z" stroke-width=".75"/><path stroke-miterlimit="10" fill="none" stroke="#000" d="M97.875 75.375v30m60-30v30" stroke-width=".75"/><symbol id="N"><path transform="matrix(.001 0 0 -.001 -.028 0)" d="M180-3c77 0 128 1 153 3v-39h-29c-36 0-58-2-65-7s-11-17-11-35v-521c0-18 4-29 11-34s29-8 65-8h29v-39c-25 2-76 3-152 3-77 0-128-1-153-3v39h29c36 0 58 3 65 8s11 16 11 34v521c0 18-4 30-11 35s-29 7-65 7H28V0c25-2 76-3 152-3z"/></symbol><symbol id="O"><path transform="matrix(.001 0 0 -.001 -.033 0)" d="M194-601c0-30-25-56-55-56s-56 26-56 56 25 57 55 57c31 0 56-26 56-57zM143-3l104 3v-39c-33 0-53-2-59-6s-8-15-8-33v-367L37-433v38c33 0 54 3 61 8s10 19 10 42v266c0 19-3 31-10 35s-29 5-65 5V0l110-3z"/></symbol><symbol id="P"><path transform="matrix(.001 0 0 -.001 -.019 .011)" d="M388-354c0 5-2 12-6 22L286-91 179-356c-4-9-6-14-6-15 0-15 19-22 57-22v-38l-112 3c-24 1-57 0-99-3v38c56 0 65-2 79 34L240-10c5 14 13 21 24 21s19-7 24-21l129-319c4-11 8-20 13-28 14-24 40-36 78-36v-38c-33 3-59 4-78 3l-89-3v38c29 1 47 13 47 39z"/></symbol><use xlink:href="#N" transform="matrix(9 0 0 -9 106.74 88.5)"/><use xlink:href="#L" transform="matrix(9 0 0 -9 110.025 88.5)"/><use xlink:href="#I" transform="matrix(9 0 0 -9 114.66 88.599)"/><use xlink:href="#D" transform="matrix(9 0 0 -9 118.242 88.599)"/><use xlink:href="#A" transform="matrix(9 0 0 -9 122.238 88.5)"/><use xlink:href="#H" transform="matrix(9 0 0 -9 125.802 88.599)"/><use xlink:href="#C" transform="matrix(9 0 0 -9 130.32 88.599)"/><use xlink:href="#I" transform="matrix(9 0 0 -9 134.181 88.599)"/><use xlink:href="#O" transform="matrix(9 0 0 -9 137.808 88.5)"/><use xlink:href="#P" transform="matrix(9 0 0 -9 140.184 88.599)"/><use xlink:href="#D" transform="matrix(9 0 0 -9 144.765 88.599)"/><symbol id="Q"><path transform="matrix(.001 0 0 -.001 -.032 0)" d="M315-413c46 0 69 35 69 106v228c0 19-3 31-10 35s-30 6-67 6V0l116-3 115 3v-38c-37 0-59-2-66-6s-11-16-11-35v-180c0-80 52-154 129-154 47 0 70 35 70 106v228c0 19-4 31-11 35s-30 6-67 6V0l116-3 115 3v-38c-32 0-52-1-62-4s-15-10-15-22v-187c0-47-2-80-5-99-10-61-55-92-134-92-63 0-110 29-142 88-14-59-58-88-133-88-63 0-111 30-143 90v-90L32-431v38c36 0 58 3 66 9s11 19 11 42v263c0 19-4 31-11 35s-29 6-66 6V0l116-3 115 3v-38c-37 0-60-2-67-6s-11-16-11-35v-180c0-81 53-154 130-154z"/></symbol><use xlink:href="#z" transform="matrix(9 0 0 -9 110.717 99.75)"/><use xlink:href="#A" transform="matrix(9 0 0 -9 116.783 99.75)"/><use xlink:href="#B" transform="matrix(9 0 0 -9 120.311 99.849)"/><use xlink:href="#M" transform="matrix(9 0 0 -9 124.811 101.604)"/><use xlink:href="#A" transform="matrix(9 0 0 -9 129.311 99.75)"/><use xlink:href="#H" transform="matrix(9 0 0 -9 132.875 99.849)"/><use xlink:href="#Q" transform="matrix(9 0 0 -9 137.375 99.75)"/><path stroke-miterlimit="10" fill="none" stroke="#000" d="M90.375 45.375h-71.25c-5 0-7.5 2.5-7.5 7.5v10.223" stroke-width=".75"/><path d="M11.625 67.035 9 61.785l2.625 1.313 2.625-1.313-2.625 5.25z"/><path stroke-miterlimit="10" fill="none" stroke="#000" d="M11.625 67.035 9 61.785l2.625 1.313 2.625-1.313-2.625 5.25z" stroke-width=".75"/><path d="M26.25 39.75H79.5v9.75H26.25z" fill="#fff"/><symbol id="R"><path transform="matrix(.001 0 0 -.001 -.032 0)" d="m583-3 134 3v-39h-22c-25 0-42-1-49-3-15-5-25-16-31-33L401-694c-4-13-11-22-26-22-13 0-22 7-27 22L143-102C129-61 92-39 32-38V0l105-3 117 3v-39c-49 0-74-15-74-46 0-7 1-11 2-13l45-127h238l51 148c2 6 3 10 3 13 0 17-27 25-82 25V0c42-3 91-4 146-3zM345-569l106 305H240l105-305z"/></symbol><symbol id="S"><path transform="matrix(.001 0 0 -.001 -.019 .205)" d="M113 205c55 0 99-38 130-115l173-422c17-40 47-60 92-60v-39c-33 3-59 4-78 3l-89-3v38c31 1 46 14 46 39 0 6-2 13-6 22L286-98 180-354c-3-8-5-14-6-17 0-14 19-21 56-21v-39l-112 3c-24 1-57 0-99-3v39c53 0 66-2 80 32L246-1l-24 56c-27 64-46 120-109 120-14 0-26-4-37-11 23-5 34-20 34-44 0-30-15-45-46-45-30 0-45 15-45 46 0 49 45 84 94 84z"/></symbol><symbol id="T"><path transform="matrix(.001 0 0 -.001 -.033 0)" d="M265-705c-89 0-155 72-155 161v110H33v38h77v317c0 19-3 31-10 35s-29 5-66 5V0l115-3c42-1 85 0 128 3v-39h-24c-33 0-54-2-61-7s-10-17-10-35v-315h112v-38H179v-111c0-60 31-130 86-130 8 0 15 1 22 3-15 8-23 22-23 41 0 31 15 47 46 47s47-16 47-48c0-45-47-73-92-73z"/></symbol><symbol id="U"><path transform="matrix(.001 0 0 -.001 -.033 0)" d="M275-641h118c71 0 117 15 140 44 32 39 36 76 45 147h33l-29-230H33v39h28c35 0 56 2 63 7s11 17 11 35v518c0 18-4 30-11 35s-28 7-63 7H33V0c26-2 77-3 154-3 87 0 143 1 170 3v-39h-37c-53 0-82-5-87-16-2-5-3-14-3-27v-239h81c43 0 71 8 83 23s18 45 18 92h32v-269h-32c0 46-6 77-18 92s-40 23-83 23h-81v-246c0-36 6-35 45-35z"/></symbol><use xlink:href="#R" transform="matrix(8.25 0 0 -8.25 26.373 48)"/><use xlink:href="#L" transform="matrix(8.25 0 0 -8.25 32.56 48)"/><use xlink:href="#S" transform="matrix(8.25 0 0 -8.25 36.81 49.691)"/><use xlink:href="#v" transform="matrix(8.25 0 0 -8.25 41.157 50.063)"/><use xlink:href="#N" transform="matrix(8.25 0 0 -8.25 43.987 48)"/><use xlink:href="#L" transform="matrix(8.25 0 0 -8.25 46.998 48)"/><use xlink:href="#T" transform="matrix(8.25 0 0 -8.25 51.594 48)"/><use xlink:href="#B" transform="matrix(8.25 0 0 -8.25 54.077 48.09)"/><use xlink:href="#v" transform="matrix(8.25 0 0 -8.25 58.12 50.063)"/><use xlink:href="#U" transform="matrix(8.25 0 0 -8.25 60.99 48)"/><use xlink:href="#B" transform="matrix(8.25 0 0 -8.25 65.652 48.09)"/><use xlink:href="#A" transform="matrix(8.25 0 0 -8.25 69.777 48)"/><use xlink:href="#Q" transform="matrix(8.25 0 0 -8.25 73.044 48)"/><path d="M127.523 30.375v-2.25h.75v2.25h-.75zm0-4.5v-2.25h.75v2.25h-.75zm0-4.5v-2.25h.75v2.25h-.75zm0-4.5v-2.25h.75v2.25h-.75zm0-4.5v-1.102l1.896-.003.002.75-1.523.003v-.375h.375v.727h-.75zm4.146-1.108 2.25-.003.002.75-2.25.003-.002-.75zm4.5-.007 1.928-.002.001.75-1.927.002-.002-.75z"/><path d="m142.035 11.625-5.242 2.633 1.305-2.625-1.313-2.625 5.25 2.617z"/><path stroke-miterlimit="10" fill="none" stroke="#000" d="m142.035 11.625-5.242 2.633 1.305-2.625-1.313-2.625 5.25 2.617z" stroke-width=".75"/><path d="M90.375 30.375h75v30h-75z" fill="#fde1dd"/><path fill="none" stroke="#36393d" d="M90.375 30.375h75v30h-75z" stroke-width=".75"/><path stroke-miterlimit="10" fill="none" stroke="#36393d" d="M97.875 30.375v30m60-30v30" stroke-width=".75"/><symbol id="V"><path transform="matrix(.001 0 0 -.001 -.041 0)" d="M827 0v-47h-97L474-672c-11-26-23-26-40-26-28 0-32 8-39 26L147-70c-6 15-9 23-85 23H41V0l117-3c39 0 95 0 132 3v-47s-89 0-89-13l4-12 50-121h268l60 146h-95V0c38-3 133-3 176-3 40 0 128 0 163 3zM503-240H275l114-278 114 278z"/></symbol><symbol id="W"><path transform="matrix(.001 0 0 -.001 -.037 .194)" d="M600-223c0-133-91-227-235-227-75 0-128 31-151 49v-49l-177 8v47c62 0 69 0 69 38v504H37v47l126-3 126 3v-47h-69V-39C263-4 307 6 348 6c150 0 252-90 252-229zm-128 0c0 141-70 193-135 193-14 0-61 0-106-54-11-13-11-14-11-33v-212c0-19 1-20 15-34 40-41 92-47 114-47 67 0 123 61 123 187z"/></symbol><symbol id="X"><path transform="matrix(.001 0 0 -.001 -.047 0)" d="M286 0v-47h-62v-403l-174 8v47c59 0 66 0 66 39v309H47V0l122-3 117 3zm-48-607c0-43-35-78-78-78s-78 35-78 78 35 78 78 78 78-35 78-78z"/></symbol><symbol id="Y"><path transform="matrix(.001 0 0 -.001 -.038 .006)" d="M478-117c0-14-14-14-24-14-18 0-19 2-24 15-26 63-74 82-125 82-139 0-139-147-139-193 0-56 0-186 129-186 35 0 52 3 65 6-18 16-20 37-20 46 0 44 35 63 62 63 31 0 63-21 63-63 0-86-116-92-174-92-179 0-253 115-253 231C38-89 132 6 286 6c162 0 192-116 192-123z"/></symbol><use xlink:href="#V" transform="matrix(9 0 0 -9 101.607 48.75)"/><use xlink:href="#W" transform="matrix(9 0 0 -9 109.392 50.496)"/><use xlink:href="#W" transform="matrix(9 0 0 -9 115.143 50.496)"/><use xlink:href="#m" transform="matrix(9 0 0 -9 120.984 48.75)"/><use xlink:href="#X" transform="matrix(9 0 0 -9 123.855 48.75)"/><use xlink:href="#Y" transform="matrix(9 0 0 -9 126.645 48.804)"/><use xlink:href="#j" transform="matrix(9 0 0 -9 131.145 48.804)"/><use xlink:href="#k" transform="matrix(9 0 0 -9 136.122 48.804)"/><use xlink:href="#X" transform="matrix(9 0 0 -9 140.38 48.75)"/><use xlink:href="#g" transform="matrix(9 0 0 -9 143.115 48.804)"/><use xlink:href="#r" transform="matrix(9 0 0 -9 148.407 48.75)"/><path stroke-miterlimit="10" fill="none" stroke="#000" d="M22.875 90.375h62.723" stroke-width=".75"/><path d="M89.535 90.375 84.285 93l1.313-2.625-1.313-2.625 5.25 2.625z"/><path stroke-miterlimit="10" fill="none" stroke="#000" d="M89.535 90.375 84.285 93l1.313-2.625-1.313-2.625 5.25 2.625z" stroke-width=".75"/><path d="M45 84.75h15.75v9.75H45z" fill="#fff"/><symbol id="Z"><path transform="matrix(.001 0 0 -.001 -.033 0)" d="M566-3c74 0 124 1 150 3v-39h-28c-35 0-56-2-63-7s-11-17-11-35v-521c0-18 4-29 11-34s28-8 63-8h28v-39c-26 2-76 3-149 3-75 0-125-1-150-3v39h27c35 0 56 3 63 8s11 16 11 34v227H231v-227c0-18 4-29 11-34s28-8 63-8h27v-39c-25 2-75 3-149 3s-124-1-150-3v39h28c35 0 56 3 63 8s11 16 11 34v521c0 18-4 30-11 35s-28 7-63 7H33V0c26-2 76-3 149-3 75 0 125 1 150 3v-39h-27c-35 0-56-2-63-7s-11-17-11-35v-255h287v255c0 18-4 30-11 35s-28 7-63 7h-27V0c25-2 75-3 149-3z"/></symbol><symbol id="aa"><path transform="matrix(.001 0 0 -.001 -.056 .022)" d="M665-443v-234c0-19-5-28-15-28-7 0-13 5-19 14l-47 69c-30-31-62-53-97-67-26-11-54-16-84-16-97 0-180 35-247 107S56-441 56-342s33 184 99 255C222-14 305 22 403 22c71 0 133-25 185-75s77-110 77-181c0-14-6-21-17-21-10 0-15 4-15 13 0 1 0 3-1 6-6 120-92 219-217 219-37 0-74-10-113-30-92-50-136-146-136-294 0-140 49-248 136-295 39-20 76-30 112-30 124 0 195 113 212 231 1 13 8 20 19 20 20 0 20-8 20-28z"/></symbol><use xlink:href="#Z" transform="matrix(8.25 0 0 -8.25 45.589 93)"/><use xlink:href="#aa" transform="matrix(8.25 0 0 -8.25 51.966 93.182)"/><use xlink:href="#N" transform="matrix(8.25 0 0 -8.25 57.691 93)"/><path d="M17.25 73.5a5.611 5.611 0 0 1-.948 3.125 5.611 5.611 0 0 1-2.524 2.072 5.612 5.612 0 0 1-3.25.32 5.612 5.612 0 0 1-2.88-1.54 5.611 5.611 0 0 1-1.54-2.88 5.611 5.611 0 0 1 .32-3.25A5.612 5.612 0 0 1 8.5 68.823a5.611 5.611 0 0 1 3.125-.948 5.612 5.612 0 0 1 3.125.948 5.612 5.612 0 0 1 2.072 2.524 5.611 5.611 0 0 1 .428 2.153z" fill="#fff"/><path fill="none" stroke="#000" d="M17.25 73.5a5.611 5.611 0 0 1-.948 3.125 5.611 5.611 0 0 1-2.524 2.072 5.612 5.612 0 0 1-3.25.32 5.612 5.612 0 0 1-2.88-1.54 5.611 5.611 0 0 1-1.54-2.88 5.611 5.611 0 0 1 .32-3.25A5.612 5.612 0 0 1 8.5 68.823a5.611 5.611 0 0 1 3.125-.948 5.612 5.612 0 0 1 3.125.948 5.612 5.612 0 0 1 2.072 2.524 5.611 5.611 0 0 1 .428 2.153z" stroke-width=".75"/><path stroke-miterlimit="10" fill="none" stroke="#000" d="M11.625 79.125v18.75m0-15H.375m11.25 0h11.25m-11.25 15-11.25 15m11.25-15 11.25 15" stroke-width=".75"/><symbol id="ab"><path transform="matrix(.001 0 0 -.001 -.033 .022)" d="M716-644v-39l-120 3-122-3v39c49 0 79 8 90 25 8 13 12 27 12 44v343c0 57-16 107-49 148-35 45-81 67-137 67-31 0-63-11-96-34-42-30-63-88-63-174v-377c0-18 4-29 11-34s28-8 63-8h27v-39c-25 2-75 3-149 3s-124-1-150-3v39h28c35 0 56 3 63 8s11 16 11 34v373c0 70 25 129 74 178s109 73 179 73c120 0 207-99 223-208 2-13 3-36 3-69v-316c0-60 25-73 102-73z"/></symbol><use xlink:href="#ab" transform="matrix(9 0 0 -9 3.016 126.948)"/><use xlink:href="#E" transform="matrix(9 0 0 -9 9.766 126.849)"/><use xlink:href="#D" transform="matrix(9 0 0 -9 13.267 126.849)"/><use xlink:href="#A" transform="matrix(9 0 0 -9 17.263 126.75)"/><symbol id="ac"><path transform="matrix(.001 0 0 -.001 -.039 0)" d="M817-337c0-220-150-349-348-349H39v47h108v592H39V0h431c197 0 347-123 347-337zm-147-1c0 109-12 162-44 207-48 68-136 84-197 84H283v-592h146c66 0 149 19 198 89 35 51 43 119 43 212z"/></symbol><use xlink:href="#ac" transform="matrix(9 0 0 -9 146.87 9.75)"/><use xlink:href="#X" transform="matrix(9 0 0 -9 154.88 9.75)"/><symbol id="ad"><path transform="matrix(.001 0 0 -.001 -.031 0)" d="M920 0v-47h-69v-407l-176 6-1 4H527v-98c0-84 68-122 160-122 29 0 50 5 73 18-17 6-44 23-44 63 0 39 29 65 65 65 37 0 66-25 66-66 0-52-44-116-154-116-67 0-140 10-199 44-45-44-102-44-123-44-115 0-265 35-265 156v100H31v47h75v350H37V0l123-3 123 3v-47h-69v-350h211v350h-69V0l123-3 123 3v-47h-69v-350h180c24 0 30 0 30 35v315h-69V0l123-3 123 3zM437-646c-37 13-45 44-45 63 0 11 3 40 33 57v82H208v-98c0-90 77-122 157-122 21 0 45 3 72 18z"/></symbol><use xlink:href="#ad" transform="matrix(9 0 0 -9 157.608 9.75)"/><symbol id="ae"><path transform="matrix(.001 0 0 -.001 -.026 .004)" d="M580-397v-47c-25 2-54 3-79 3l-91-3v47c19 0 48 3 48 11 0 0 0 2-5 12L337-124 210-397h54v-47l-124 3-114-3v47h64L265-21c12 25 25 25 38 25 17 0 27-3 37-24l166-356c6-14 10-21 74-21z"/></symbol><symbol id="af"><path transform="matrix(.001 0 0 -.001 -.081 .194)" d="M250-31c0-68-34-125-92-125-46 0-77 35-77 78 0 40 27 78 78 78 32 0 52-17 55-20-8 109-73 162-94 180-6 5-9 8-9 14 0 10 11 20 19 20 15 0 120-86 120-225z"/></symbol><use xlink:href="#Y" transform="matrix(9 0 0 -9 166.293 9.804)"/><use xlink:href="#e" transform="matrix(9 0 0 -9 170.955 9.804)"/><use xlink:href="#m" transform="matrix(9 0 0 -9 176.724 9.75)"/><use xlink:href="#k" transform="matrix(9 0 0 -9 179.36 9.804)"/><use xlink:href="#q" transform="matrix(9 0 0 -9 183.303 11.559)"/><use xlink:href="#k" transform="matrix(9 0 0 -9 186.83 9.804)"/><use xlink:href="#g" transform="matrix(9 0 0 -9 190.952 9.804)"/><use xlink:href="#q" transform="matrix(9 0 0 -9 195.948 11.559)"/><use xlink:href="#f" transform="matrix(9 0 0 -9 199.629 9.804)"/><use xlink:href="#d" transform="matrix(9 0 0 -9 205.326 9.804)"/><use xlink:href="#ae" transform="matrix(9 0 0 -9 210.015 9.786)"/><use xlink:href="#d" transform="matrix(9 0 0 -9 215.244 9.804)"/><use xlink:href="#m" transform="matrix(9 0 0 -9 220.122 9.75)"/><use xlink:href="#g" transform="matrix(9 0 0 -9 222.858 9.804)"/><use xlink:href="#W" transform="matrix(9 0 0 -9 228.078 11.496)"/><use xlink:href="#af" transform="matrix(9 0 0 -9 234.225 11.496)"/><use xlink:href="#q" transform="matrix(9 0 0 -9 236.475 11.559)"/><use xlink:href="#d" transform="matrix(9 0 0 -9 240.102 9.804)"/><use xlink:href="#l" transform="matrix(9 0 0 -9 244.89 9.75)"/><use xlink:href="#l" transform="matrix(9 0 0 -9 249.155 9.75)"/><use xlink:href="#g" transform="matrix(9 0 0 -9 253.376 9.804)"/><use xlink:href="#l" transform="matrix(9 0 0 -9 258.596 9.75)"/><use xlink:href="#h" transform="matrix(9 0 0 -9 262.646 8.184)"/><symbol id="ag"><path transform="matrix(.001 0 0 -.001 -.045 0)" d="M615 0v-47h-69v-259c0-105-54-144-154-144-96 0-147 58-169 96h-1v-340l-177 8v47c62 0 69 0 69 39v553H45V0l126-3 126 3v-47h-69v-209c0-109 86-158 149-158 34 0 55 21 55 97v270h-69V0l126-3 126 3z"/></symbol><use xlink:href="#W" transform="matrix(9 0 0 -9 148.024 22.746)"/><use xlink:href="#l" transform="matrix(9 0 0 -9 153.775 21)"/><use xlink:href="#g" transform="matrix(9 0 0 -9 157.996 21.054)"/><use xlink:href="#r" transform="matrix(9 0 0 -9 163.288 21)"/><use xlink:href="#d" transform="matrix(9 0 0 -9 168.922 21.054)"/><use xlink:href="#af" transform="matrix(9 0 0 -9 174.106 22.746)"/><use xlink:href="#q" transform="matrix(9 0 0 -9 176.356 22.809)"/><use xlink:href="#j" transform="matrix(9 0 0 -9 179.938 21.054)"/><use xlink:href="#r" transform="matrix(9 0 0 -9 185.131 21)"/><use xlink:href="#f" transform="matrix(9 0 0 -9 190.82 21.054)"/><use xlink:href="#q" transform="matrix(9 0 0 -9 196.336 22.809)"/><use xlink:href="#d" transform="matrix(9 0 0 -9 199.963 21.054)"/><use xlink:href="#l" transform="matrix(9 0 0 -9 204.751 21)"/><use xlink:href="#l" transform="matrix(9 0 0 -9 209.017 21)"/><use xlink:href="#g" transform="matrix(9 0 0 -9 213.238 21.054)"/><use xlink:href="#l" transform="matrix(9 0 0 -9 218.458 21)"/><use xlink:href="#h" transform="matrix(9 0 0 -9 222.508 19.434)"/><use xlink:href="#ag" transform="matrix(9 0 0 -9 226.243 21)"/><use xlink:href="#j" transform="matrix(9 0 0 -9 231.832 21.054)"/><use xlink:href="#r" transform="matrix(9 0 0 -9 237.025 21)"/><use xlink:href="#f" transform="matrix(9 0 0 -9 242.713 21.054)"/><use xlink:href="#m" transform="matrix(9 0 0 -9 248.545 21)"/><use xlink:href="#X" transform="matrix(9 0 0 -9 251.416 21)"/><use xlink:href="#r" transform="matrix(9 0 0 -9 254.27 21)"/><use xlink:href="#s" transform="matrix(9 0 0 -9 259.903 22.809)"/></g></svg>