<svg xmlns="http://www.w3.org/2000/svg" xmlns:xlink="http://www.w3.org/1999/xlink" width="341.44" height="382.72" viewBox="0 0 256.08 287.04"><defs><symbol overflow="visible" id="prefix__a"><path d="M5.133-4.793c.129-.34.426-.512.89-.52v-.32a8.316 8.316 0 01-.824.024l-.969-.024v.313c.407.008.606.14.606.379 0 .03-.02.082-.043.148L3.332-.941 1.797-4.977c-.024-.082-.04-.128-.04-.136 0-.133.223-.2.669-.2v-.32c-.348.024-.742.031-1.196.024L.156-5.633v.32c.305 0 .504.016.594.04.09.027.156.109.207.25L2.855-.016c.047.133.122.196.23.196.106 0 .18-.055.224-.172zm0 0"/></symbol><symbol overflow="visible" id="prefix__b"><path d="M2.055.09c.511 0 .941-.18 1.293-.543.355-.363.539-.8.539-1.313 0-.52-.176-.972-.52-1.351a1.71 1.71 0 00-1.304-.578c-.52 0-.95.199-1.305.578A1.907 1.907 0 00.23-1.766c0 .512.172.95.528 1.313.355.363.793.543 1.297.543zm.007-.262c-.394 0-.69-.176-.898-.531-.133-.23-.2-.61-.2-1.129 0-.504.067-.867.192-1.098.196-.355.492-.527.899-.527.386 0 .683.172.89.512.14.23.207.601.207 1.113 0 .957-.28 1.66-1.09 1.66zm0 0"/></symbol><symbol overflow="visible" id="prefix__c"><path d="M2.07-3.434c.348 0 .61.086.793.25a.399.399 0 00-.34.395c0 .273.133.406.407.406.27 0 .402-.14.402-.414 0-.586-.633-.898-1.27-.898-.511 0-.933.18-1.269.558A1.98 1.98 0 00.281-1.78c0 .504.172.949.512 1.32.336.371.75.55 1.254.55.41 0 .734-.112.965-.355A1.51 1.51 0 003.39-.84.553.553 0 003.42-1c0-.074-.046-.105-.136-.105-.066 0-.11.03-.133.097-.175.555-.511.836-1.03.836-.24 0-.474-.11-.704-.332-.27-.254-.402-.683-.402-1.293 0-.828.312-1.637 1.054-1.637zm0 0"/></symbol><symbol overflow="visible" id="prefix__d"><path d="M3.984-.75v-.488h-.261v.488c0 .32-.094.484-.266.484-.164 0-.266-.203-.266-.37v-1.626c0-.289-.03-.504-.09-.652-.199-.484-.765-.781-1.343-.781-.637 0-1.262.355-1.262.949 0 .27.14.41.41.41.274 0 .406-.129.406-.402 0-.239-.125-.38-.378-.407.18-.203.453-.312.808-.312.512 0 .824.469.824 1.008v.27c-.644.042-1.132.14-1.468.296C.543-1.625.266-1.27.266-.8c0 .215.082.399.238.535.262.243.625.356 1.09.356.484 0 .832-.207 1.047-.625.058.312.289.586.644.586.438 0 .7-.348.7-.801zm-2.336.602c-.378 0-.691-.282-.691-.66 0-.766.8-1.098 1.61-1.137v.78c0 .556-.364 1.017-.919 1.017zm0 0"/></symbol><symbol overflow="visible" id="prefix__e"><path d="M2.457.09c.512 0 .95-.18 1.305-.55.355-.372.535-.81.535-1.33 0-.503-.164-.948-.5-1.32a1.636 1.636 0 00-1.258-.562c-.402 0-.766.156-1.07.48v-2.535L.23-5.633v.313c.297 0 .48.023.547.074.063.047.09.164.09.355V0h.254l.274-.477c.265.38.617.567 1.062.567zm-.031-.246c-.34 0-.617-.157-.824-.48a.578.578 0 01-.11-.329V-2.64c0-.105.028-.199.082-.28.242-.337.547-.5.934-.5.34 0 .61.163.824.5.148.25.223.62.223 1.124 0 .89-.313 1.64-1.13 1.64zm0 0"/></symbol><symbol overflow="visible" id="prefix__g"><path d="M1.898-.61v-4.347a.64.64 0 01.024-.215c.043-.09.281-.14.719-.14h.296v-.32c-.214.015-.675.023-1.394.023-.637 0-1.055-.008-1.27-.024v.32h.23c.29 0 .462.016.52.06.059.038.09.14.09.288v4.297c0 .148-.031.238-.09.281-.058.04-.23.067-.52.067h-.23V0H4.57l.23-2.168h-.26a4.648 4.648 0 01-.208 1.02c-.184.52-.668.828-1.402.828h-.668c-.317 0-.364 0-.364-.29zm0 0"/></symbol><symbol overflow="visible" id="prefix__h"><path d="M3.555-3.738c-.313 0-.602.125-.864.37a1.377 1.377 0 00-.851-.28c-.711 0-1.352.53-1.352 1.222 0 .348.121.63.371.84-.156.2-.242.422-.242.68 0 .312.11.55.317.707C.586-.082.23.215.23.637c0 .351.23.633.684.832.348.156.727.23 1.14.23.423 0 .81-.074 1.157-.23.453-.2.676-.48.676-.852 0-.437-.184-.758-.547-.965-.38-.207-.8-.23-1.41-.23-.364 0-.559 0-.602-.008-.23-.031-.394-.254-.394-.512 0-.125.03-.238.105-.336.23.157.496.239.8.239.712 0 1.345-.528 1.345-1.223 0-.32-.106-.586-.32-.793a.975.975 0 01.667-.277c-.043.039-.066.105-.066.187 0 .184.09.274.273.274.172 0 .262-.09.262-.282 0-.253-.195-.43-.445-.43zm-1.715.347c.445 0 .668.32.668.965 0 .653-.223.98-.668.98-.453 0-.676-.32-.676-.972 0-.652.223-.973.676-.973zM1.352-.03h.48c.43 0 .773.023 1.04.082.355.074.526.27.526.586 0 .261-.164.468-.496.625a1.877 1.877 0 01-.84.183c-.296 0-.578-.058-.84-.183C.883 1.105.72.898.72.637c0-.348.297-.668.633-.668zm0 0"/></symbol><symbol overflow="visible" id="prefix__i"><path d="M1.602-4.957a.466.466 0 00-.454-.465.474.474 0 00-.464.465c0 .246.207.469.453.469a.47.47 0 00.465-.469zM1.18-.023L2.04 0v-.32c-.274 0-.438-.02-.49-.051-.05-.031-.066-.125-.066-.274v-3.027l-1.18.102v.312c.274 0 .446.024.505.067.058.039.082.156.082.343v2.196c0 .156-.024.257-.082.289C.75-.328.57-.32.273-.32V0zm0 0"/></symbol><symbol overflow="visible" id="prefix__j"><path d="M2.738-1.04v-.495h-.261v.48c0 .41-.149.875-.512.875-.34 0-.504-.28-.504-.843v-2.235h1.144v-.312H1.461v-1.504h-.266a3.104 3.104 0 01-.09.726c-.14.543-.46.825-.949.852v.238H.84v2.219c0 .484.148.8.437.957.223.113.43.172.637.172.543 0 .824-.543.824-1.13zm0 0"/></symbol><symbol overflow="visible" id="prefix__k"><path d="M2.969-1.074c0-.625-.43-1.02-1.278-1.188-.386-.074-.644-.164-.777-.254a.438.438 0 01-.187-.379c0-.39.289-.578.867-.578.558 0 .863.313.906.95.008.066.05.097.133.097.09 0 .14-.074.14-.222v-.817c0-.156-.043-.23-.125-.23-.09 0-.214.148-.296.215a1.322 1.322 0 00-.758-.215c-.735 0-1.32.328-1.32 1.03 0 .282.113.52.355.708.285.242.558.289 1.078.383.535.105.809.344.809.715 0 .472-.29.71-.875.71-.567 0-.93-.378-1.086-1.128-.028-.11-.067-.168-.14-.168-.095 0-.142.086-.142.242v1.062c0 .157.04.23.122.23C.422.09.453.067.52.009c.148-.133.09-.106.238-.254.242.223.539.336.883.336.785 0 1.328-.402 1.328-1.164zm0 0"/></symbol><symbol overflow="visible" id="prefix__w"><path d="M1.402-5.04v4.15c0 .14.032.253.098.363.094.14.34.207.742.207V0l-.988-.023L.274 0v-.32c.402 0 .652-.067.742-.207a.666.666 0 00.097-.364v-4.257c0-.067-.008-.106-.015-.114-.043-.035-.223-.05-.555-.05h-.27v-.32h1.418c.125 0 .207.038.266.12l2.82 4.14v-3.37a.691.691 0 00-.097-.363c-.094-.141-.34-.207-.746-.207v-.32l.984.023.988-.024v.32c-.402 0-.652.067-.742.208a.657.657 0 00-.098.363v4.496c0 .187-.007.246-.148.246-.059 0-.11-.043-.164-.125zm0 0"/></symbol><symbol overflow="visible" id="prefix__x"><path d="M3.422-2.07c0-.95-.55-1.625-1.477-1.625-.492 0-.906.187-1.242.578a1.92 1.92 0 00-.473 1.3c0 .52.172.965.52 1.348A1.67 1.67 0 002.04.09c.468 0 .831-.164 1.077-.485.207-.273.305-.472.305-.605 0-.082-.047-.121-.137-.121-.066 0-.11.039-.133.133-.183.543-.535.816-1.066.816-.371 0-.66-.176-.883-.531-.156-.254-.23-.64-.238-1.168H3.19c.184 0 .23-.02.23-.2zm-.73-.809c.09.274.128.535.128.774H.973c.027-.543.164-.915.414-1.106.207-.164.386-.246.558-.246.371 0 .621.191.746.578zm0 0"/></symbol><symbol overflow="visible" id="prefix__y"><path d="M5.113-2.738c.117-.325.348-.496.688-.504v-.313c-.258.024-.473.032-.63.024l-.792-.024v.313c.316.008.473.133.473.363a.474.474 0 01-.036.156L4.102-.734l-.778-2.18a.522.522 0 01-.031-.137c0-.125.156-.191.477-.191v-.313l-.883.024c-.164.008-.422 0-.758-.024v.313c.289 0 .46.043.52.117.023.023.09.164.18.418L2.16-.84l-.742-2.082c-.023-.074-.04-.113-.04-.129 0-.125.165-.191.485-.191v-.313l-.922.024-.793-.024v.313c.407 0 .512-.008.602.265L1.781-.105c.051.128.117.195.2.195.09 0 .156-.059.199-.18l.789-2.21.8 2.218c.043.113.11.172.2.172.058-.008.125-.067.187-.172zm0 0"/></symbol><symbol overflow="visible" id="prefix__J"><path d="M3.258-2.574c.472 0 .89-.133 1.262-.395.421-.297.628-.668.628-1.113 0-.473-.214-.86-.644-1.156a2.226 2.226 0 00-1.313-.395H.29v.32h.23c.29 0 .461.024.52.067.059.039.09.133.09.281v4.297c0 .148-.031.246-.09.29C.98-.34.81-.32.52-.32H.29V0c.215-.016.625-.023 1.23-.023.61 0 1.02.007 1.235.023v-.32h-.23c-.29 0-.462-.02-.52-.059-.059-.043-.09-.14-.09-.289v-1.906zm-.996-2.739h.726c.239 0 .446.032.617.09.47.172.637.52.637 1.141 0 .23-.027.426-.086.594-.136.41-.586.633-1.168.633H1.891v-2.168c0-.297.046-.29.37-.29zm0 0"/></symbol><symbol overflow="visible" id="prefix__K"><path d="M3.004-3.117c0-.324-.305-.531-.629-.531-.418 0-.742.25-.957.753v-.753L.23-3.555v.313c.29 0 .461.023.528.074.066.05.101.156.101.348v2.168c0 .156-.027.257-.082.289-.058.035-.242.05-.547.05V0l.95-.023c.347-.008.703 0 1.054.023v-.313H2.04c-.273 0-.445-.027-.504-.066-.058-.043-.082-.14-.082-.289v-1.246c0-.356.067-.676.188-.95.168-.355.406-.534.726-.542a.404.404 0 00-.125.297c0 .254.125.379.383.379a.374.374 0 00.379-.387zm0 0"/></symbol><symbol overflow="visible" id="prefix__O"><path d="M2.203-.148c-.57 0-.676-.239-.676-.778v-2.722l-1.261.093v.313c.32 0 .511.031.558.09.051.058.074.265.074.629v1.21c0 .325.028.57.082.758.125.43.579.645 1.18.645.445 0 .785-.207 1.016-.625V.09L4.414 0v-.313c-.297 0-.469-.015-.535-.066-.067-.05-.102-.164-.102-.355v-2.914l-1.254.093v.313c.29 0 .465.023.528.074.066.05.101.156.101.348v1.441c0 .652-.347 1.23-.949 1.23zm0 0"/></symbol><symbol overflow="visible" id="prefix__P"><path d="M2.457.105c.512 0 .95-.18 1.305-.55.355-.371.535-.809.535-1.328 0-.504-.164-.934-.484-1.297-.34-.387-.75-.578-1.247-.578-.421 0-.785.168-1.097.488v-.488L.23-3.555v.313c.305 0 .489.015.547.058.055.04.09.149.09.32V.95c0 .156-.035.246-.09.281-.058.032-.242.047-.547.047v.325l.942-.028.95.028v-.325c-.306 0-.481-.015-.536-.047-.059-.035-.094-.125-.094-.28V-.364c.184.258.54.468.965.468zm.05-3.48c.34 0 .602.191.81.57.156.32.238.66.238 1.032 0 .386-.09.742-.27 1.062-.215.39-.504.578-.86.578-.347 0-.616-.164-.823-.484a.567.567 0 01-.11-.324v-1.805c.242-.422.578-.629 1.016-.629zm0 0"/></symbol><symbol overflow="visible" id="prefix__Q"><path d="M3.086.09L4.348 0v-.313c-.297 0-.47-.015-.535-.066-.067-.05-.102-.176-.102-.363v-4.985l-1.227.094v.313c.29 0 .47.023.536.074.066.047.09.164.09.355v1.672a1.248 1.248 0 00-.989-.453c-.512 0-.95.184-1.305.555a1.865 1.865 0 00-.535 1.336c0 .504.164.941.504 1.312.336.371.75.559 1.254.559a1.32 1.32 0 001.047-.477zm-.934-3.512c.356 0 .645.156.852.469a.5.5 0 01.082.289V-1a.5.5 0 01-.082.29c-.23.37-.547.554-.934.554-.336 0-.61-.164-.824-.504-.148-.246-.223-.617-.223-1.113 0-.899.305-1.649 1.13-1.649zm0 0"/></symbol><symbol overflow="visible" id="prefix__R"><path d="M2.617 2.063c.074 0 .113-.043.113-.118 0-.03-.05-.097-.148-.203-.824-.851-1.238-2.12-1.238-3.804 0-1.684.422-2.961 1.273-3.844.074-.082.113-.14.113-.164 0-.075-.039-.117-.113-.117-.14 0-.398.246-.777.75C1.156-4.54.816-3.414.816-2.063c0 1.386.348 2.523 1.047 3.406.371.48.63.718.754.718zm0 0"/></symbol><symbol overflow="visible" id="prefix__S"><path d="M3.45-.023c.187-.008.46 0 .808.023v-.313c-.438 0-.602-.007-.778-.242L2.41-1.937c.356-.438.594-.735.727-.891.23-.266.55-.406.972-.414v-.313c-.23.016-.46.024-.695.024-.305 0-.574-.008-.816-.024v.313c.156.015.242.09.242.222 0 .075-.043.165-.117.266l-.48.594-.61-.785c-.04-.059-.067-.098-.067-.125 0-.106.102-.164.29-.172v-.313L.94-3.53c-.214.008-.48 0-.8-.024v.313c.296 0 .488.023.57.066.082.04.215.18.394.422l.786 1.02c-.407.523-.653.836-.743.941-.265.324-.613.48-1.05.48V0a6.16 6.16 0 01.71-.023L1.61 0v-.313c-.156-.027-.23-.101-.23-.222 0-.035.008-.074.023-.117.051-.106.274-.387.668-.856l.594.774c.09.117.14.199.164.246 0 .11-.098.168-.297.175V0zm0 0"/></symbol><symbol overflow="visible" id="prefix__T"><path d="M5.387-3.688h.265l-.156-1.898H.453L.297-3.687h.266c.054-.543.09-1.032.32-1.305.215-.246.61-.27 1.113-.27.238 0 .387 0 .438.008.148.031.148.106.148.277v4.301a.475.475 0 01-.031.215c-.051.09-.317.14-.793.14h-.363V0a32.19 32.19 0 011.574-.023c.808 0 1.336.007 1.586.023v-.32H4.19c-.48 0-.742-.051-.793-.14a.475.475 0 01-.03-.216v-4.3c0-.09.015-.165.03-.212.016-.05.2-.074.555-.074.5 0 .906.024 1.121.27.23.273.254.762.313 1.304zm0 0"/></symbol><symbol overflow="visible" id="prefix__U"><path d="M3.48-.023c.168-.008.415 0 .735.023v-.32c-.195 0-.344-.028-.445-.067-.098-.043-.215-.156-.348-.347L2.39-2.195c-.024-.075-.04-.098-.04-.075 0-.007.083-.082.254-.23.29-.254.504-.422.645-.512.258-.156.512-.238.777-.254v-.316c-.175.02-.37.027-.593.027-.383 0-.696-.007-.95-.027v.316c.157.008.239.067.239.172 0 .098-.059.2-.164.297l-1.09.95v-3.88L.23-5.633v.313c.297 0 .48.015.547.066.063.047.09.172.09.363v4.239c0 .156-.035.25-.09.28C.72-.34.535-.32.23-.32V0l.918-.023L2.07 0v-.32c-.304 0-.476-.02-.535-.051-.058-.031-.09-.125-.09-.281v-.825l.477-.421.133.199c.535.742.808 1.156.808 1.23 0 .098-.097.149-.297.149V0zm0 0"/></symbol><symbol overflow="visible" id="prefix__V"><path d="M2.59-3.406c.37 0 .562.289.562.875v1.879c0 .156-.027.257-.082.289-.058.035-.242.05-.547.05V0l.95-.023.941.023v-.313c-.266 0-.437-.007-.52-.035-.082-.023-.117-.082-.117-.18V-2.07c0-.387-.007-.66-.03-.817-.083-.504-.454-.761-1.106-.761-.52 0-.907.25-1.164.746v-.746l-1.211.093v.313c.296 0 .476.023.543.074.066.05.09.156.09.348v2.168c0 .156-.032.257-.09.289-.059.035-.239.05-.543.05V0l.945-.023.941.023v-.313c-.304 0-.476-.015-.535-.05-.058-.032-.09-.133-.09-.29v-1.484c0-.668.418-1.27 1.063-1.27zm0 0"/></symbol><symbol overflow="visible" id="prefix__W"><path d="M1.36 1.313C2.046.413 2.382-.712 2.382-2.063c0-1.387-.344-2.524-1.047-3.407-.371-.48-.625-.718-.75-.718-.074 0-.117.042-.117.117 0 .023.05.097.16.21.816.844 1.226 2.106 1.226 3.798 0 1.683-.421 2.96-1.27 3.843-.073.082-.116.14-.116.164 0 .075.043.117.117.117.14 0 .394-.246.773-.75zm0 0"/></symbol><symbol overflow="visible" id="prefix__Y"><path d="M1.445-.89v-4.243L3.36-.199c.047.133.114.199.188.199s.133-.059.183-.172l1.954-5.027v4.531c0 .148-.032.246-.09.29-.059.038-.23.058-.52.058h-.23V0c.222-.016.625-.023 1.203-.023.578 0 .98.007 1.203.023v-.32h-.23c-.29 0-.461-.02-.52-.059-.059-.043-.09-.14-.09-.289v-4.297c0-.148.031-.242.09-.281.059-.043.23-.066.52-.066h.23v-.32H5.84c-.223 0-.238.007-.305.171L3.777-.949 2.04-5.438c-.074-.164-.102-.195-.324-.195H.305v.32h.23c.29 0 .465.024.52.067.058.039.093.133.093.281V-.89c0 .141-.035.254-.101.364-.09.14-.336.207-.742.207V0l.992-.023.988.023v-.32c-.601 0-.84-.102-.84-.57zm0 0"/></symbol><symbol overflow="visible" id="prefix__ab"><path d="M1.188-.023L2.104 0v-.32c-.296 0-.48-.008-.539-.043-.058-.032-.082-.133-.082-.29v-5.074l-1.21.094v.313c.288 0 .468.023.527.074.058.047.09.164.09.355v4.239c0 .156-.032.257-.09.289C.742-.328.57-.32.273-.32V0zm0 0"/></symbol><symbol overflow="visible" id="prefix__ac"><path d="M2.188-5.816c-.735 0-1.282.593-1.282 1.328v.906H.273v.316h.633v2.614c0 .156-.023.257-.082.289C.766-.328.586-.32.281-.32V0l.95-.023c.343-.008.699 0 1.054.023v-.32h-.2c-.269 0-.444-.02-.5-.059-.058-.043-.085-.14-.085-.289v-2.598h.926v-.316h-.95v-.914c0-.496.258-1.074.712-1.074.066 0 .12.011.18.027-.126.066-.188.18-.188.336 0 .258.12.39.379.39.253 0 .386-.132.386-.398 0-.37-.386-.601-.757-.601zm0 0"/></symbol><symbol overflow="visible" id="prefix__am"><path d="M1.484-.023c.637 0 1.055.007 1.262.023v-.32h-.238c-.297 0-.477-.02-.535-.059-.059-.043-.09-.14-.09-.289v-4.297c0-.148.031-.242.09-.281.058-.043.238-.066.535-.066h.238v-.32c-.207.015-.625.023-1.254.023C.86-5.61.438-5.617.23-5.633v.32H.47c.297 0 .48.024.539.067.054.039.09.133.09.281v4.297c0 .148-.036.246-.09.29C.949-.34.766-.32.468-.32H.23V0c.207-.016.63-.023 1.254-.023zm0 0"/></symbol><symbol overflow="visible" id="prefix__an"><path d="M3.309 0c.734 0 1.336-.281 1.824-.852.469-.535.699-1.18.699-1.921 0-.758-.23-1.418-.684-1.97-.488-.593-1.105-.89-1.84-.89H.29v.32h.23c.29 0 .461.024.52.067.059.039.09.133.09.281v4.297c0 .148-.031.246-.09.29C.98-.34.81-.32.52-.32H.29V0zm-.223-.32h-.824c-.325 0-.364.008-.364-.29v-4.413c0-.297.04-.29.364-.29h.816c.61 0 1.098.247 1.461.743.27.386.41.98.41 1.797 0 1.445-.543 2.453-1.863 2.453zm0 0"/></symbol><symbol overflow="visible" id="prefix__ao"><path d="M2.078-5.52c.883 0 1.402.563 1.55 1.676.009.082.06.121.134.121.09 0 .133-.074.133-.222v-1.64c0-.157-.043-.231-.118-.231-.047 0-.097.043-.148.125l-.262.43c-.363-.348-.695-.555-1.297-.555-.898 0-1.61.726-1.61 1.617 0 .758.497 1.32 1.083 1.527l1.074.262c.551.14.914.52.914 1.14 0 .618-.43 1.13-1.047 1.13C1.402-.14.766-.75.727-1.798c0-.074-.043-.117-.125-.117-.09 0-.141.074-.141.23V-.05c0 .156.043.23.125.23.05 0 .098-.038.148-.12L1-.371c.352.371.848.55 1.492.55.469 0 .856-.171 1.164-.507.305-.34.461-.746.461-1.223a1.85 1.85 0 00-.34-1.066 1.485 1.485 0 00-.898-.61l-1.04-.253a1.022 1.022 0 01-.792-1.008A1.02 1.02 0 012.078-5.52zm0 0"/></symbol><symbol overflow="visible" id="prefix__l"><path d="M2.07-.664V-5.41c0-.117.008-.188.028-.235.043-.097.304-.152.78-.152h.325v-.351c-.234.02-.738.027-1.52.027-.695 0-1.152-.008-1.386-.027v.351H.55c.312 0 .504.02.566.063.063.046.098.156.098.316V-.73c0 .164-.035.261-.098.308-.062.043-.254.07-.566.07H.297V0h4.687l.254-2.367H4.95c-.043.46-.125.828-.222 1.117-.2.566-.73.898-1.532.898h-.73c-.34 0-.395 0-.395-.312zm0 0"/></symbol><symbol overflow="visible" id="prefix__m"><path d="M4.348-.82v-.532h-.29v.532c0 .351-.097.53-.288.53-.18 0-.286-.222-.286-.401v-1.774c0-.316-.039-.55-.101-.71-.215-.532-.836-.856-1.465-.856-.695 0-1.379.386-1.379 1.035 0 .297.152.45.45.45.296 0 .44-.145.44-.442 0-.262-.132-.414-.413-.442.199-.222.496-.34.882-.34.559 0 .903.512.903 1.098v.297c-.703.043-1.235.152-1.606.324C.594-1.773.29-1.387.29-.87c0 .23.09.43.262.582.285.262.683.387 1.187.387.532 0 .907-.223 1.14-.684.063.344.317.64.704.64.477 0 .766-.378.766-.874zM1.8-.16c-.414 0-.758-.309-.758-.723 0-.836.875-1.195 1.758-1.242v.855c0 .606-.399 1.11-1 1.11zm0 0"/></symbol><symbol overflow="visible" id="prefix__n"><path d="M2.824-3.719c.406 0 .614.317.614.957V-.71c0 .172-.028.277-.09.316-.063.036-.262.051-.594.051V0l1.035-.027L4.816 0v-.344c-.289 0-.476-.008-.57-.035-.09-.027-.125-.09-.125-.195v-1.684c0-.426-.008-.722-.035-.89-.09-.551-.496-.829-1.207-.829-.567 0-.988.27-1.27.809v-.809l-1.32.098v.344c.324 0 .52.023.594.078.07.055.097.172.097.379v2.367c0 .172-.035.277-.097.316C.82-.359.62-.344.289-.344V0l1.035-.027L2.348 0v-.344c-.332 0-.52-.015-.582-.05-.067-.04-.102-.145-.102-.317v-1.621c0-.727.461-1.387 1.16-1.387zm0 0"/></symbol><symbol overflow="visible" id="prefix__o"><path d="M3.879-4.078c-.344 0-.656.137-.945.406a1.466 1.466 0 00-.926-.305c-.774 0-1.477.575-1.477 1.332 0 .375.133.684.406.918a1.145 1.145 0 00-.261.739c0 .34.117.601.34.773C.64-.09.254.235.254.691c0 .387.25.696.746.91.379.172.79.254 1.242.254.457 0 .88-.082 1.258-.253.496-.215.738-.524.738-.926 0-.477-.199-.828-.593-1.055-.415-.223-.872-.25-1.54-.25-.394 0-.613 0-.656-.012-.254-.035-.433-.277-.433-.554 0-.137.039-.262.117-.371.254.171.543.261.875.261.773 0 1.465-.578 1.465-1.332 0-.351-.118-.64-.352-.863.227-.207.469-.309.73-.309a.3.3 0 00-.07.207c0 .2.098.297.297.297.188 0 .285-.097.285-.304 0-.278-.215-.47-.484-.47zM2.008-3.7c.484 0 .726.351.726 1.054 0 .711-.242 1.07-.726 1.07-.496 0-.738-.35-.738-1.062 0-.71.242-1.062.738-1.062zM1.477-.035h.52c.468 0 .847.027 1.136.09.387.082.574.297.574.636 0 .29-.18.516-.539.688a2.104 2.104 0 01-.918.195c-.324 0-.629-.062-.918-.195C.965 1.207.782.98.782.69c0-.375.323-.726.695-.726zm0 0"/></symbol><symbol overflow="visible" id="prefix__p"><path d="M2.402-.16c-.62 0-.738-.262-.738-.848v-2.969L.29-3.879v.344c.352 0 .559.035.61.098.054.062.081.289.081.683v1.324c0 .352.028.621.09.828.137.465.63.7 1.29.7.484 0 .855-.223 1.105-.684v.684L4.816 0v-.344c-.324 0-.515-.015-.586-.07-.074-.055-.109-.18-.109-.387v-3.176l-1.367.098v.344c.316 0 .504.023.574.078.074.055.11.172.11.379v1.574c0 .711-.38 1.344-1.036 1.344zm0 0"/></symbol><symbol overflow="visible" id="prefix__q"><path d="M3.734-2.258c0-1.035-.601-1.773-1.609-1.773-.54 0-.992.207-1.36.629-.343.394-.511.875-.511 1.422A2.1 2.1 0 00.82-.512c.375.414.844.61 1.403.61.511 0 .91-.18 1.18-.532.226-.296.331-.511.331-.656 0-.09-.054-.133-.152-.133-.07 0-.117.043-.144.145-.2.594-.586.89-1.16.89-.407 0-.72-.19-.966-.578-.167-.277-.25-.703-.257-1.277h2.43c.195 0 .25-.02.25-.215zm-.8-.883c.097.297.144.586.144.844H1.063c.027-.594.18-.996.449-1.203.226-.18.422-.27.613-.27.402 0 .676.208.809.63zm0 0"/></symbol><symbol overflow="visible" id="prefix__s"><path d="M1.574-.973v-4.625l2.09 5.383C3.72-.07 3.79 0 3.871 0c.078 0 .145-.063.195-.188L6.2-5.671V-.73c0 .164-.035.27-.097.316-.063.047-.25.062-.567.062h-.254V0c.246-.02.688-.027 1.317-.027S7.668-.02 7.91 0v-.352h-.25c-.316 0-.504-.015-.566-.062-.067-.047-.102-.152-.102-.316v-4.688c0-.16.035-.262.102-.305.062-.047.25-.074.566-.074h.25v-.351H6.371c-.242 0-.262.011-.332.191L4.121-1.035 2.223-5.93c-.082-.18-.11-.218-.352-.218H.332v.351h.254c.312 0 .504.027.566.074.063.043.098.145.098.305v4.445a.75.75 0 01-.105.399c-.102.152-.372.222-.813.222V0l1.082-.027L2.492 0v-.352c-.656 0-.918-.109-.918-.62zm0 0"/></symbol><symbol overflow="visible" id="prefix__t"><path d="M2.242.098a1.88 1.88 0 001.41-.594c.387-.395.586-.871.586-1.43 0-.566-.187-1.062-.566-1.476a1.858 1.858 0 00-1.422-.63c-.566 0-1.035.216-1.422.63a2.09 2.09 0 00-.574 1.476c0 .559.187 1.035.574 1.43a1.9 1.9 0 001.414.594zm.008-.286c-.434 0-.758-.19-.98-.578-.145-.25-.215-.664-.215-1.23 0-.55.07-.945.207-1.2.215-.386.539-.574.98-.574.422 0 .746.188.973.555.152.254.223.66.223 1.219 0 1.043-.305 1.808-1.188 1.808zm0 0"/></symbol><symbol overflow="visible" id="prefix__u"><path d="M3.367.098L4.742 0v-.344c-.324 0-.512-.015-.586-.07-.07-.055-.105-.188-.105-.395v-5.437l-1.34.098v.343c.312 0 .512.028.582.082.074.051.102.18.102.387v1.824a1.369 1.369 0 00-1.083-.492c-.558 0-1.035.195-1.421.602-.387.406-.586.89-.586 1.457 0 .55.18 1.027.55 1.433.368.403.82.61 1.368.61.46 0 .847-.168 1.144-.52zm-1.02-3.832c.387 0 .704.171.93.511.063.102.09.2.09.317v1.816a.563.563 0 01-.09.317c-.254.406-.593.601-1.02.601-.366 0-.663-.18-.898-.547-.164-.27-.242-.676-.242-1.215 0-.98.332-1.8 1.23-1.8zm0 0"/></symbol><symbol overflow="visible" id="prefix__v"><path d="M1.297-.027l1 .027v-.352c-.324 0-.524-.007-.586-.043-.063-.039-.09-.144-.09-.316v-5.535l-1.324.098v.343c.316 0 .512.028.574.082.067.051.102.18.102.387V-.71c0 .172-.035.277-.102.316-.062.036-.25.043-.574.043V0zm0 0"/></symbol><symbol overflow="visible" id="prefix__z"><path d="M3.555-2.809c.511 0 .972-.144 1.379-.43.457-.324.683-.73.683-1.214 0-.516-.234-.938-.703-1.262a2.436 2.436 0 00-1.43-.433H.316v.351h.25c.317 0 .504.027.567.074.062.043.101.145.101.305V-.73c0 .164-.039.27-.101.316-.063.047-.25.062-.567.062h-.25V0a20.1 20.1 0 011.34-.027c.664 0 1.117.007 1.352.027v-.352h-.254c-.317 0-.504-.015-.567-.062-.062-.047-.097-.152-.097-.316V-2.81zm-1.09-2.988h.793c.262 0 .484.035.676.102.511.187.691.566.691 1.242 0 .25-.027.465-.09.644-.152.454-.637.696-1.277.696H2.062V-5.48c0-.325.051-.317.403-.317zm0 0"/></symbol><symbol overflow="visible" id="prefix__A"><path d="M3.238-1.172c0-.683-.465-1.113-1.394-1.293-.422-.082-.7-.18-.844-.281a.47.47 0 01-.207-.414c0-.422.312-.63.945-.63.61 0 .946.345.989 1.036.007.07.054.11.144.11.098 0 .152-.083.152-.247v-.89c0-.168-.043-.25-.132-.25-.102 0-.235.16-.325.234a1.455 1.455 0 00-.828-.234c-.8 0-1.441.36-1.441 1.125 0 .304.125.566.387.773.316.262.613.317 1.18.414.585.117.882.38.882.782 0 .515-.316.777-.957.777C1.172-.16.773-.574.602-1.395c-.028-.117-.07-.18-.153-.18-.097 0-.152.09-.152.262v1.16c0 .173.047.25.137.25C.46.098.496.07.566.008.73-.136.664-.108.828-.27c.262.243.586.368.961.368.856 0 1.45-.442 1.45-1.27zm0 0"/></symbol><symbol overflow="visible" id="prefix__B"><path d="M2.988-1.133v-.543H2.7v.524c0 .449-.16.953-.558.953-.368 0-.547-.305-.547-.918v-2.438h1.25v-.343h-1.25v-1.637h-.29a3.439 3.439 0 01-.097.793c-.152.594-.504.898-1.035.926v.261h.746v2.422c0 .531.16.871.477 1.043a1.5 1.5 0 00.695.188c.594 0 .898-.594.898-1.23zm0 0"/></symbol><symbol overflow="visible" id="prefix__C"><path d="M.098-1.684h2.386v-.52H.098zm0 0"/></symbol><symbol overflow="visible" id="prefix__D"><path d="M2.684.117c.554 0 1.035-.199 1.421-.601a2.02 2.02 0 00.582-1.45c0-.55-.18-1.02-.53-1.414-.368-.422-.817-.629-1.356-.629-.461 0-.856.18-1.2.532v-.532l-1.347.098v.344c.332 0 .527.015.594.062.062.043.097.16.097.352v4.156c0 .172-.035.27-.097.305-.067.039-.262.055-.594.055v.351l1.023-.027 1.036.027v-.351c-.333 0-.524-.016-.586-.055-.063-.035-.098-.133-.098-.305v-1.43c.2.278.586.512 1.055.512zm.05-3.797c.371 0 .66.207.883.621.172.348.262.72.262 1.125 0 .422-.098.809-.297 1.16-.234.422-.55.63-.937.63-.375 0-.672-.18-.899-.532a.601.601 0 01-.117-.351v-1.97c.262-.46.629-.683 1.105-.683zm0 0"/></symbol><symbol overflow="visible" id="prefix__E"><path d="M3.277-3.402c0-.352-.336-.575-.683-.575-.461 0-.813.27-1.047.817v-.817l-1.293.098v.344c.312 0 .504.023.574.078.07.055.11.172.11.379v2.367c0 .172-.028.277-.09.316-.067.036-.262.051-.594.051V0l1.031-.027c.38-.008.766 0 1.153.027v-.344h-.215c-.297 0-.485-.023-.547-.07-.067-.047-.09-.152-.09-.316v-1.36c0-.387.07-.734.203-1.031.184-.39.441-.586.793-.598-.09.09-.133.2-.133.324 0 .282.133.415.414.415a.409.409 0 00.414-.422zm0 0"/></symbol><symbol overflow="visible" id="prefix__F"><path d="M2.258-3.742c.379 0 .668.09.863.27a.433.433 0 00-.367.429c0 .297.144.441.441.441.297 0 .442-.152.442-.449 0-.64-.696-.98-1.387-.98-.559 0-1.016.195-1.387.61-.367.413-.558.91-.558 1.476 0 .55.191 1.035.558 1.441.371.406.82.602 1.367.602.454 0 .801-.125 1.055-.387.207-.207.344-.414.414-.629a.565.565 0 00.035-.172c0-.082-.054-.117-.152-.117-.07 0-.117.035-.144.11-.188.6-.56.91-1.126.91-.261 0-.511-.118-.765-.364-.297-.277-.442-.746-.442-1.41 0-.902.344-1.781 1.153-1.781zm0 0"/></symbol><symbol overflow="visible" id="prefix__G"><path d="M2.852 2.25c.082 0 .128-.047.128-.125 0-.035-.054-.11-.164-.227C1.918.973 1.47-.414 1.47-2.25c0-1.836.457-3.23 1.383-4.195.082-.09.128-.153.128-.18 0-.078-.046-.125-.128-.125-.153 0-.43.27-.844.82C1.262-4.95.89-3.727.89-2.25c0 1.512.379 2.754 1.144 3.719.402.52.684.781.817.781zm0 0"/></symbol><symbol overflow="visible" id="prefix__H"><path d="M1.484 1.43C2.23.45 2.602-.773 2.602-2.25c0-1.512-.38-2.754-1.145-3.719-.402-.52-.684-.781-.816-.781-.082 0-.13.047-.13.125 0 .027.055.11.173.234.89.918 1.34 2.297 1.34 4.141C2.023-.414 1.565.98.64 1.945c-.082.09-.13.153-.13.18 0 .078.048.125.13.125.152 0 .43-.27.843-.82zm0 0"/></symbol><symbol overflow="visible" id="prefix__M"><path d="M2.836-3.719c.414 0 .621.317.621.957V-.71c0 .172-.027.277-.09.316-.062.036-.27.051-.605.051V0l1.047-.027L4.844 0v-.344c-.336 0-.532-.015-.598-.05-.062-.04-.098-.145-.098-.317v-1.621c0-.719.47-1.387 1.16-1.387.426 0 .633.317.633.957V-.71c0 .172-.039.277-.101.316-.063.036-.27.051-.602.051V0l1.043-.027L7.316 0v-.344c-.289 0-.468-.008-.558-.035-.09-.027-.133-.09-.133-.195v-1.684c0-.426-.02-.722-.047-.89-.09-.551-.492-.829-1.207-.829-.566 0-.988.258-1.277.79-.125-.532-.52-.79-1.196-.79-.566 0-1 .27-1.289.809v-.809l-1.32.098v.344c.324 0 .52.023.594.078.07.055.097.172.097.379v2.367c0 .172-.035.277-.097.316C.82-.359.62-.344.289-.344V0l1.043-.027L2.367 0v-.344c-.332 0-.539-.015-.601-.05-.067-.04-.102-.145-.102-.317v-1.621c0-.727.477-1.387 1.172-1.387zm0 0"/></symbol><symbol overflow="visible" id="prefix__N"><path d="M3.762-.027c.207-.008.504 0 .883.027v-.344c-.477 0-.657-.008-.848-.258L2.629-2.113c.387-.48.648-.801.793-.973.25-.289.601-.441 1.058-.45v-.343a12.17 12.17 0 01-1.645 0v.344c.173.015.263.098.263.242 0 .078-.047.18-.13.285l-.519.649-.668-.856c-.043-.062-.07-.105-.07-.133 0-.117.105-.18.312-.187v-.344l-.996.027c-.234.008-.523 0-.875-.027v.344c.325 0 .532.023.621.07.09.043.235.2.434.457l.855 1.117c-.44.567-.71.91-.812 1.028-.285.351-.664.52-1.14.52V0C.44-.027.69-.035.882-.027l.87.027v-.344c-.167-.023-.25-.105-.25-.242a.33.33 0 01.028-.125c.055-.117.297-.422.727-.937l.648.847c.102.125.153.215.18.27 0 .117-.106.18-.324.187V0zm0 0"/></symbol><symbol overflow="visible" id="prefix__X"><path d="M3.61 0c.8 0 1.456-.305 1.988-.926.511-.586.765-1.289.765-2.097 0-.829-.254-1.547-.746-2.153-.531-.648-1.207-.972-2.008-.972H.316v.351h.25c.317 0 .504.027.567.074.062.043.101.145.101.305V-.73c0 .164-.039.27-.101.316-.063.047-.25.062-.567.062h-.25V0zm-.243-.352h-.902c-.352 0-.395.008-.395-.312V-5.48c0-.325.043-.317.395-.317h.89c.668 0 1.2.27 1.594.813.297.421.45 1.07.45 1.96 0 1.575-.594 2.672-2.032 2.672zm0 0"/></symbol><symbol overflow="visible" id="prefix__ap"><path d="M5.246-.027L6.453 0v-.352h-.2c-.222 0-.374-.007-.44-.027-.133-.043-.223-.144-.278-.297L3.61-6.246c-.035-.117-.097-.2-.234-.2-.117 0-.2.063-.242.2L1.285-.918C1.16-.551.828-.352.29-.344V0l.945-.027L2.285 0v-.352c-.441 0-.664-.132-.664-.414 0-.062.008-.097.016-.117l.406-1.14h2.14l.462 1.332c.015.05.027.09.027.117 0 .152-.242.222-.738.222V0c.378-.027.82-.035 1.312-.027zm-2.14-5.094l.953 2.746H2.16zm0 0"/></symbol><symbol overflow="visible" id="prefix__aq"><path d="M1.016 1.844c.496 0 .89-.34 1.171-1.035l1.555-3.797c.156-.36.426-.54.828-.54v-.35c-.297.026-.53.034-.699.026l-.8-.027v.344c.277.008.413.125.413.348a.53.53 0 01-.054.199L2.574-.883l-.953-2.304a2.153 2.153 0 01-.055-.153c0-.125.172-.187.504-.187v-.352l-1.007.027c-.215.008-.512 0-.891-.027v.352c.476 0 .594-.02.719.289l1.324 3.23-.219.504c-.242.574-.41 1.078-.98 1.078a.602.602 0 01-.332-.097c.207-.047.304-.18.304-.399C.988.808.855.676.574.676c-.27 0-.402.133-.402.414 0 .441.402.754.844.754zm0 0"/></symbol><symbol overflow="visible" id="prefix__ar"><path d="M2.824-3.734c.406 0 .614.312.614.953v2.07c0 .172-.028.277-.09.316-.063.036-.262.043-.594.043V0l1.035-.027L4.816 0v-.352c-.289 0-.476-.007-.57-.035-.09-.027-.125-.09-.125-.187v-1.703c0-.434-.008-.73-.035-.899-.09-.55-.496-.828-1.207-.828-.547 0-.961.25-1.242.754v-2.996l-1.348.098v.343c.324 0 .52.028.594.082.07.051.097.18.097.387V-.71c0 .172-.035.277-.097.316C.82-.359.62-.352.289-.352V0l1.035-.027L2.348 0v-.352c-.332 0-.52-.007-.582-.043-.067-.039-.102-.144-.102-.316v-1.637c0-.73.461-1.386 1.16-1.386zm0 0"/></symbol><symbol overflow="visible" id="prefix__as"><path d="M2.27-6.02c.96 0 1.527.61 1.69 1.825.009.09.063.136.145.136.098 0 .141-.082.141-.242v-1.793c0-.172-.043-.25-.125-.25-.055 0-.105.043-.16.133l-.29.469c-.394-.38-.757-.602-1.413-.602-.98 0-1.754.79-1.754 1.762 0 .828.539 1.441 1.18 1.668l1.168.285c.605.152 1 .567 1 1.242 0 .676-.47 1.235-1.141 1.235C1.53-.152.836-.82.793-1.961c0-.082-.047-.129-.137-.129-.097 0-.152.082-.152.254v1.781C.504.117.55.2.64.2.69.2.746.152.8.062l.289-.468c.387.406.926.605 1.629.605.511 0 .933-.191 1.27-.558a1.93 1.93 0 00.503-1.332 2 2 0 00-.37-1.16 1.61 1.61 0 00-.981-.669l-1.133-.277a1.111 1.111 0 01-.863-1.098A1.11 1.11 0 012.27-6.02zm0 0"/></symbol><symbol overflow="visible" id="prefix__at"><path d="M6.004-3.988v-2.106c0-.172-.047-.25-.137-.25-.062 0-.117.043-.172.125l-.422.621a3.9 3.9 0 00-.558-.46c-.297-.188-.656-.286-1.078-.286-.883 0-1.63.313-2.235.961a3.267 3.267 0 00-.898 2.305c0 .89.305 1.664.91 2.312C2.016-.117 2.762.2 3.652.2c.801 0 1.36-.246 1.668-.73.07.117.43.523.567.523.082 0 .117-.082.117-.234v-1.559c0-.16.027-.262.082-.297.05-.035.23-.054.527-.054v-.352l-1.125.027c-.566.02-1.058.012-1.465-.027v.352h.325c.367 0 .593.027.675.074.079.043.118.152.118.312v.579c0 .44-.2.738-.586.882-.29.098-.54.153-.758.153-.352 0-.711-.09-1.063-.282-.843-.437-1.242-1.304-1.242-2.644 0-1.27.442-2.223 1.235-2.645.351-.18.683-.27 1.015-.27 1.11 0 1.758 1.016 1.903 2.079.015.117.078.18.18.18.179 0 .179-.075.179-.254zm0 0"/></symbol><symbol overflow="visible" id="prefix__au"><path d="M5.984-3.988v-2.106c0-.172-.043-.25-.132-.25-.067 0-.118.043-.172.125l-.422.621a2.48 2.48 0 00-.875-.601 1.866 1.866 0 00-.754-.145c-.875 0-1.621.313-2.227.961a3.267 3.267 0 00-.898 2.305c0 .89.297 1.656.89 2.297.602.656 1.352.98 2.235.98.637 0 1.195-.226 1.664-.676.469-.449.691-.992.691-1.628 0-.125-.054-.192-.152-.192-.09 0-.137.04-.137.117 0 .012 0 .028-.008.055C5.633-1.043 4.86-.152 3.734-.152c-.332 0-.664-.09-1.015-.27-.828-.45-1.227-1.316-1.227-2.648 0-1.258.442-2.23 1.227-2.653.351-.18.683-.27 1.008-.27 1.117 0 1.753 1.016 1.906 2.079.012.117.074.18.172.18.18 0 .18-.075.18-.254zm0 0"/></symbol><symbol overflow="visible" id="prefix__aw"><path d="M5.879-4.023h.285l-.172-2.07H.496l-.172 2.07h.29c.062-.594.097-1.125.35-1.422.231-.27.665-.297 1.216-.297.257 0 .422 0 .476.008.16.039.16.117.16.308v4.688c0 .117-.007.187-.035.234-.054.098-.344.152-.863.152H1.52V0c.27-.02.847-.027 1.718-.027.883 0 1.461.007 1.73.027v-.352H4.57c-.52 0-.808-.054-.863-.152-.027-.047-.035-.117-.035-.234v-4.688c0-.101.02-.18.035-.234.02-.055.219-.082.606-.082.546 0 .988.027 1.222.297.25.297.277.828.344 1.422zm0 0"/></symbol><symbol overflow="visible" id="prefix__ax"><path d="M3.797-.027c.18-.008.45 0 .8.027v-.352c-.214 0-.374-.027-.484-.07-.11-.047-.234-.172-.379-.379L2.61-2.395c-.027-.082-.043-.109-.043-.082 0-.007.09-.09.278-.25.316-.28.55-.46.703-.558.277-.172.558-.262.844-.277v-.344c-.188.02-.403.027-.649.027-.414 0-.754-.008-1.031-.027v.344c.168.007.258.07.258.187 0 .11-.063.215-.18.324L1.602-2.016v-4.23l-1.348.098v.343c.32 0 .52.02.594.07.07.055.097.192.097.4v4.624c0 .172-.035.27-.097.305-.067.039-.262.054-.594.054V0l.996-.027L2.258 0v-.352c-.332 0-.52-.015-.582-.054-.067-.035-.102-.133-.102-.305v-.898l.524-.461.144.215c.582.812.88 1.261.88 1.343 0 .106-.106.16-.321.16V0zm0 0"/></symbol><symbol overflow="visible" id="prefix__ay"><path d="M1.746-5.41a.509.509 0 00-.496-.504.516.516 0 00-.504.504c0 .27.227.515.496.515a.513.513 0 00.504-.515zm-.46 5.383L2.222 0v-.352c-.297 0-.477-.015-.532-.054-.054-.035-.07-.133-.07-.297v-3.3l-1.289.105v.343c.297 0 .488.028.55.07.063.047.09.172.09.38v2.394c0 .172-.027.277-.09.316-.062.036-.26.043-.585.043V0zm0 0"/></symbol><symbol overflow="visible" id="prefix__az"><path d="M.512 0h2.945l.152-1.719H3.32c-.043.559-.144.938-.304 1.133-.164.2-.47.297-.946.297h-.972L3.5-3.555c.063-.082.09-.136.09-.172 0-.097-.09-.152-.262-.152H.477l-.11 1.492h.297c.027-.492.117-.816.262-.98.144-.16.441-.25.89-.25h.938L.344-.344c-.067.082-.09.137-.09.184 0 .152.062.16.258.16zm0 0"/></symbol><symbol overflow="visible" id="prefix__aA"><path d="M2.297-3.977c-.559 0-1.027.207-1.414.61a2.012 2.012 0 00-.578 1.441c0 .547.191 1.028.558 1.43.371.406.82.613 1.367.613.442 0 .82-.187 1.137-.578v1.496c0 .172-.027.278-.09.317-.062.035-.261.043-.593.043v.351l1.023-.027 1.035.027v-.351c-.332 0-.531-.008-.594-.043-.062-.04-.097-.145-.097-.317v-5.012h-.254l-.313.754c-.207-.386-.605-.754-1.187-.754zm-.04 3.832c-.366 0-.663-.214-.878-.648a2.48 2.48 0 01-.262-1.133c0-.422.098-.8.297-1.144.234-.403.547-.61.934-.61.586 0 1.047.602 1.047 1.203v1.254c0 .547-.594 1.078-1.137 1.078zm0 0"/></symbol><symbol overflow="visible" id="prefix__L"><path d="M4.742.098c.309 0 .54-.118.696-.368.152-.253.222-.539.222-.863v-.55h-.297v.53c0 .227-.035.434-.105.602-.102.235-.246.352-.453.352-.367 0-.559-.305-.559-.918v-2.438h1.27v-.351h-1.27v-1.637h-.285c0 .43-.082.8-.234 1.106-.172.351-.477.53-.918.53h-1.18v-1c0-.277.062-.538.2-.788.132-.254.323-.38.581-.38.067 0 .137.009.2.028-.133.07-.208.195-.208.367 0 .282.145.422.422.422.281 0 .414-.14.414-.43 0-.199-.078-.359-.25-.476a1.022 1.022 0 00-.578-.18 1.36 1.36 0 00-1.008.422C1.132-5.645 1-5.3 1-4.895v.989H.297v.351H1V-.71c0 .172-.035.277-.102.316-.062.036-.257.051-.593.051V0l1.047-.027c.386-.008.773 0 1.168.027v-.344h-.223c-.3 0-.488-.023-.55-.07-.063-.047-.09-.152-.09-.316v-2.825h1.905v2.422c0 .531.165.871.489 1.043.242.125.469.188.691.188zm0 0"/></symbol><symbol overflow="visible" id="prefix__Z"><path d="M2.605-5.57c.274 0 .48.066.63.207-.223.035-.34.164-.34.406 0 .23.167.402.398.402.23 0 .402-.172.402-.402 0-.547-.504-.86-1.078-.86-.273 0-.539.051-.793.141-.48.164-.957.586-.957 1.196v.898H.223v.316h.644v2.614c0 .156-.035.257-.09.289C.72-.328.535-.32.23-.32V0l.934-.023.93.023v-.32c-.305 0-.485-.008-.543-.043-.059-.032-.082-.133-.082-.29v-2.613h1.246c.336 0 .394.075.394.41v2.204c0 .156-.03.257-.09.289-.058.035-.23.043-.535.043V0l.93-.023.934.023v-.32c-.305 0-.489-.008-.543-.043-.059-.032-.094-.133-.094-.29V-3.68l-1.055.075c-.222.015-.289.023-.289.023h-.922v-.89c0-.653.512-1.098 1.16-1.098zm0 0"/></symbol><symbol overflow="visible" id="prefix__ad"><path d="M6.895-2.043c0-.18-.063-.187-.215-.187-.117 0-.2 0-.207.152C6.406-.871 5.32-.324 4.41-.324c-.703 0-1.457-.215-1.926-.766-.421-.512-.53-1.187-.53-1.996 0-.504.026-1.477.593-2.07.586-.594 1.367-.696 1.836-.696.972 0 1.828.688 2.023 1.829.028.171.04.187.246.187.235 0 .243-.016.243-.25V-6.02c0-.171 0-.253-.165-.253-.078 0-.097.02-.168.082l-.593.53a2.74 2.74 0 00-1.774-.612c-2.242 0-3.62 1.34-3.62 3.187 0 1.844 1.378 3.184 3.62 3.184 1.684 0 2.7-1.106 2.7-2.141zm0 0"/></symbol><symbol overflow="visible" id="prefix__ae"><path d="M4.879-1.96c0-1.208-.828-2.118-2.297-2.118-1.477 0-2.293.918-2.293 2.117C.29-.848 1.08.055 2.582.055c1.512 0 2.297-.91 2.297-2.016zm-1.152-.103c0 .786 0 1.758-1.145 1.758-1.14 0-1.14-.972-1.14-1.758 0-.402 0-.863.152-1.167.172-.333.547-.524.988-.524.379 0 .758.145.953.461.192.305.192.8.192 1.23zm0 0"/></symbol><symbol overflow="visible" id="prefix__af"><path d="M5.535 0v-.422h-.62v-2.332c0-.945-.485-1.297-1.388-1.297-.863 0-1.34.516-1.574.973v-.973l-1.547.074v.422c.559 0 .621 0 .621.352v2.781h-.62V0l1.132-.027L2.672 0v-.422H2.05v-1.883c0-.98.773-1.422 1.344-1.422.304 0 .492.192.492.875v2.43h-.621V0l1.136-.027zm0 0"/></symbol><symbol overflow="visible" id="prefix__ag"><path d="M3.734-1.262c0-.386-.18-.699-.496-.953-.347-.262-.636-.312-1.34-.43C1.566-2.71.98-2.809.98-3.23c0-.56.836-.56 1.008-.56.676 0 1.02.263 1.063.759.008.133.02.18.207.18.215 0 .215-.047.215-.254v-.72c0-.171 0-.253-.16-.253-.036 0-.055 0-.407.172-.234-.117-.547-.172-.91-.172-.27 0-1.652 0-1.652 1.18 0 .359.18.601.36.757.359.313.698.368 1.394.493.324.054 1 .171 1 .703 0 .675-.828.675-1.028.675C1.117-.27.883-.926.773-1.312c-.043-.13-.09-.13-.214-.13-.215 0-.215.055-.215.262v.98c0 .173 0 .255.16.255.062 0 .082 0 .27-.137l.234-.152c.414.289.883.289 1.062.289.278 0 1.664 0 1.664-1.317zm0 0"/></symbol><symbol overflow="visible" id="prefix__ah"><path d="M3.438-1.117v-.477h-.422v.461c0 .61-.29.828-.54.828-.523 0-.523-.578-.523-.785v-2.484h1.313v-.422H1.953v-1.719h-.422c-.011.899-.453 1.79-1.343 1.817v.324h.738v2.469c0 .96.785 1.16 1.422 1.16.683 0 1.09-.516 1.09-1.172zm0 0"/></symbol><symbol overflow="visible" id="prefix__ai"><path d="M3.977-3.313c0-.476-.485-.738-.954-.738-.628 0-.988.45-1.195 1.02v-1.02l-1.496.074v.422c.559 0 .621 0 .621.352v2.781H.332V0l1.137-.027c.34 0 .918 0 1.242.027v-.422h-.785v-1.574c0-.633.226-1.73 1.125-1.73 0 0-.172.152-.172.413 0 .372.289.551.55.551a.538.538 0 00.548-.55zm0 0"/></symbol><symbol overflow="visible" id="prefix__aj"><path d="M4.977-.215c0-.207-.118-.207-.235-.207-.547-.012-.547-.129-.547-.336V-2.69c0-.801-.64-1.387-1.98-1.387-.516 0-1.613.039-1.613.828 0 .398.316.566.558.566.281 0 .567-.187.567-.566a.575.575 0 00-.196-.441c.25-.051.54-.063.649-.063.672 0 .988.379.988 1.063v.304c-.64.028-2.926.11-2.926 1.414C.242-.109 1.36.055 1.98.055c.72 0 1.141-.371 1.34-.746 0 .277 0 .691.938.691h.43c.18 0 .289 0 .289-.215zM3.168-1.25c0 .863-.828.98-1.055.98-.457 0-.816-.316-.816-.71 0-.973 1.422-1.098 1.871-1.125zm0 0"/></symbol><symbol overflow="visible" id="prefix__ak"><path d="M2.574 0v-.422h-.558V-4.05l-1.567.074v.422c.531 0 .594 0 .594.352v2.781H.422V0L1.52-.027zm-.433-5.465a.702.702 0 10-.7.703.7.7 0 00.7-.703zm0 0"/></symbol><symbol overflow="visible" id="prefix__al"><path d="M4.445-1.055c0-.16-.172-.16-.215-.16-.152 0-.171.043-.226.188-.188.433-.7.722-1.285.722-1.27 0-1.278-1.199-1.278-1.656h2.715c.2 0 .29 0 .29-.242 0-.281-.055-.938-.505-1.387-.332-.324-.808-.488-1.43-.488-1.44 0-2.222.93-2.222 2.055C.29-.82 1.188.055 2.637.055c1.422 0 1.808-.953 1.808-1.11zM3.59-2.258H1.44c.016-.351.028-.73.215-1.027.235-.36.594-.469.856-.469 1.05 0 1.07 1.18 1.078 1.496zm0 0"/></symbol><clipPath id="prefix__I"><path d="M155 260h28v26.5h-28zm0 0"/></clipPath><clipPath id="prefix__av"><path d="M195 120h60.75v31H195zm0 0"/></clipPath></defs><path d="M127.875 150.375v25.223" fill="none" stroke="#000" stroke-miterlimit="10" stroke-width=".75"/><path d="M127.875 179.535l-2.625-5.25 2.625 1.313 2.625-1.313zm0 0" stroke="#000" stroke-miterlimit="10" stroke-width=".75"/><path d="M104.25 159h47.25v9.75h-47.25zm0 0" fill="#fff"/><use xlink:href="#prefix__a" x="104.309" y="167.25"/><use xlink:href="#prefix__b" x="109.811" y="167.25"/><use xlink:href="#prefix__c" x="114.167" y="167.25"/><use xlink:href="#prefix__d" x="117.83" y="167.25"/><use xlink:href="#prefix__e" x="121.955" y="167.25"/><use xlink:href="#prefix__f" x="126.542" y="167.25"/><use xlink:href="#prefix__g" x="129.29" y="167.25"/><use xlink:href="#prefix__b" x="134.446" y="167.25"/><use xlink:href="#prefix__h" x="138.571" y="167.25"/><use xlink:href="#prefix__i" x="142.696" y="167.25"/><use xlink:href="#prefix__j" x="144.989" y="167.25"/><use xlink:href="#prefix__k" x="148.199" y="167.25"/><path d="M165.375 135.375h25.223" fill="none" stroke="#000" stroke-miterlimit="10" stroke-width=".75"/><path d="M194.535 135.375l-5.25 2.625 1.313-2.625-1.313-2.625zm0 0" stroke="#000" stroke-miterlimit="10" stroke-width=".75"/><path d="M94.875 120.375h66a4.411 4.411 0 011.723.344 4.494 4.494 0 012.02 1.656 4.573 4.573 0 01.672 1.621c.058.29.085.582.085.879v21a4.411 4.411 0 01-.344 1.723 4.494 4.494 0 01-1.656 2.02 4.573 4.573 0 01-1.621.672c-.29.058-.582.085-.879.085h-66a4.411 4.411 0 01-1.723-.344 4.494 4.494 0 01-2.02-1.656 4.573 4.573 0 01-.672-1.621 4.411 4.411 0 01-.085-.879v-21a4.411 4.411 0 01.344-1.723 4.494 4.494 0 011.656-2.02 4.573 4.573 0 011.621-.672c.29-.058.582-.085.879-.085zm0 0" fill="#fff" stroke="#000" stroke-width=".75"/><use xlink:href="#prefix__l" x="94.922" y="138.75"/><use xlink:href="#prefix__m" x="100.547" y="138.75"/><use xlink:href="#prefix__n" x="105.047" y="138.75"/><use xlink:href="#prefix__o" x="110.051" y="138.75"/><use xlink:href="#prefix__p" x="114.551" y="138.75"/><use xlink:href="#prefix__m" x="119.555" y="138.75"/><use xlink:href="#prefix__o" x="124.055" y="138.75"/><use xlink:href="#prefix__q" x="128.555" y="138.75"/><use xlink:href="#prefix__r" x="132.551" y="138.75"/><use xlink:href="#prefix__s" x="135.548" y="138.75"/><use xlink:href="#prefix__t" x="143.801" y="138.75"/><use xlink:href="#prefix__u" x="148.553" y="138.75"/><use xlink:href="#prefix__q" x="153.557" y="138.75"/><use xlink:href="#prefix__v" x="157.553" y="138.75"/><path d="M127.875 210.375v25.223" fill="none" stroke="#000" stroke-miterlimit="10" stroke-width=".75"/><path d="M127.875 239.535l-2.625-5.25 2.625 1.313 2.625-1.313zm0 0" stroke="#000" stroke-miterlimit="10" stroke-width=".75"/><path d="M95.25 219h65.25v9.75H95.25zm0 0" fill="#fff"/><use xlink:href="#prefix__w" x="95.027" y="227.25"/><use xlink:href="#prefix__x" x="101.215" y="227.25"/><use xlink:href="#prefix__y" x="104.878" y="227.25"/><use xlink:href="#prefix__f" x="110.834" y="227.25"/><use xlink:href="#prefix__a" x="113.582" y="227.25"/><use xlink:href="#prefix__b" x="119.084" y="227.25"/><use xlink:href="#prefix__c" x="123.44" y="227.25"/><use xlink:href="#prefix__d" x="127.103" y="227.25"/><use xlink:href="#prefix__e" x="131.228" y="227.25"/><use xlink:href="#prefix__f" x="135.815" y="227.25"/><use xlink:href="#prefix__g" x="138.563" y="227.25"/><use xlink:href="#prefix__b" x="143.719" y="227.25"/><use xlink:href="#prefix__h" x="147.844" y="227.25"/><use xlink:href="#prefix__i" x="151.969" y="227.25"/><use xlink:href="#prefix__j" x="154.262" y="227.25"/><use xlink:href="#prefix__k" x="157.472" y="227.25"/><path d="M90.375 180.375h75v30h-75zm0 0" fill="#fff" stroke="#000" stroke-width=".75"/><use xlink:href="#prefix__z" x="103.102" y="193.5"/><use xlink:href="#prefix__t" x="108.979" y="193.5"/><use xlink:href="#prefix__A" x="113.479" y="193.5"/><use xlink:href="#prefix__B" x="117.025" y="193.5"/><use xlink:href="#prefix__C" x="120.526" y="193.5"/><use xlink:href="#prefix__D" x="123.523" y="193.5"/><use xlink:href="#prefix__E" x="128.527" y="193.5"/><use xlink:href="#prefix__t" x="132.055" y="193.5"/><use xlink:href="#prefix__F" x="136.807" y="193.5"/><use xlink:href="#prefix__q" x="140.803" y="193.5"/><use xlink:href="#prefix__A" x="144.799" y="193.5"/><use xlink:href="#prefix__A" x="148.345" y="193.5"/><use xlink:href="#prefix__G" x="105.234" y="204.75"/><use xlink:href="#prefix__z" x="108.735" y="204.75"/><use xlink:href="#prefix__E" x="114.864" y="204.75"/><use xlink:href="#prefix__t" x="118.392" y="204.75"/><use xlink:href="#prefix__F" x="123.144" y="204.75"/><use xlink:href="#prefix__q" x="127.14" y="204.75"/><use xlink:href="#prefix__A" x="131.136" y="204.75"/><use xlink:href="#prefix__A" x="134.682" y="204.75"/><use xlink:href="#prefix__t" x="138.228" y="204.75"/><use xlink:href="#prefix__E" x="142.728" y="204.75"/><use xlink:href="#prefix__H" x="146.256" y="204.75"/><path d="M165.375 251.648h7.523c5 0 7.5 2.5 7.5 7.5v7.5c0 5-1.707 7.497-5.125 7.493l-5.12-.008" fill="none" stroke="#000" stroke-miterlimit="10" stroke-width=".75"/><path d="M166.215 274.125l5.25-2.617-1.313 2.625 1.305 2.625zm0 0"/><g clip-path="url(#prefix__I)"><path d="M166.215 274.125l5.25-2.617-1.313 2.625 1.305 2.625zm0 0" fill="none" stroke="#000" stroke-miterlimit="10" stroke-width=".75"/></g><path d="M170.25 258h20.25v9.75h-20.25zm0 0" fill="#fff"/><use xlink:href="#prefix__J" x="169.969" y="266.25"/><use xlink:href="#prefix__K" x="175.587" y="266.25"/><use xlink:href="#prefix__b" x="178.821" y="266.25"/><use xlink:href="#prefix__e" x="182.946" y="266.25"/><use xlink:href="#prefix__k" x="187.533" y="266.25"/><path d="M127.875 240.375h37.5v22.5h-37.5zm0 0" fill="#fff" stroke="#000" stroke-width=".75"/><use xlink:href="#prefix__A" x="130.758" y="255"/><use xlink:href="#prefix__t" x="134.304" y="255"/><use xlink:href="#prefix__L" x="138.804" y="255"/><use xlink:href="#prefix__M" x="144.978" y="255"/><use xlink:href="#prefix__m" x="152.475" y="255"/><use xlink:href="#prefix__N" x="156.975" y="255"/><path d="M127.875 262.875h37.5v22.5h-37.5zm0 0" fill="#fff" stroke="#000" stroke-width=".75"/><use xlink:href="#prefix__A" x="130.957" y="277.5"/><use xlink:href="#prefix__m" x="134.503" y="277.5"/><use xlink:href="#prefix__M" x="139.003" y="277.5"/><use xlink:href="#prefix__D" x="146.5" y="277.5"/><use xlink:href="#prefix__v" x="151.504" y="277.5"/><use xlink:href="#prefix__q" x="154.006" y="277.5"/><use xlink:href="#prefix__E" x="158.002" y="277.5"/><path d="M90.375 262.875H37.898c-5 0-7.5-2.5-7.5-7.5l-.023-100.223" fill="none" stroke="#000" stroke-miterlimit="10" stroke-width=".75"/><path d="M30.375 151.215l2.625 5.25-2.625-1.313-2.625 1.313zm0 0" stroke="#000" stroke-miterlimit="10" stroke-width=".75"/><path d="M4.5 185.25h51.75v20.25H4.5zm0 0" fill="#fff"/><use xlink:href="#prefix__O" x="17.871" y="193.5"/><use xlink:href="#prefix__P" x="22.458" y="193.5"/><use xlink:href="#prefix__Q" x="27.276" y="193.5"/><use xlink:href="#prefix__d" x="31.863" y="193.5"/><use xlink:href="#prefix__j" x="35.988" y="193.5"/><use xlink:href="#prefix__x" x="39.197" y="193.5"/><use xlink:href="#prefix__R" x="4.57" y="204"/><use xlink:href="#prefix__w" x="7.78" y="204"/><use xlink:href="#prefix__x" x="13.967" y="204"/><use xlink:href="#prefix__S" x="17.63" y="204"/><use xlink:href="#prefix__j" x="21.986" y="204"/><use xlink:href="#prefix__T" x="27.943" y="204"/><use xlink:href="#prefix__b" x="33.214" y="204"/><use xlink:href="#prefix__U" x="37.339" y="204"/><use xlink:href="#prefix__x" x="41.464" y="204"/><use xlink:href="#prefix__V" x="45.127" y="204"/><use xlink:href="#prefix__k" x="49.714" y="204"/><use xlink:href="#prefix__W" x="52.965" y="204"/><path d="M90.375 240.375h37.5v45h-37.5zm0 0" fill="#fff" stroke="#000" stroke-width=".75"/><use xlink:href="#prefix__X" x="92.672" y="266.25"/><use xlink:href="#prefix__q" x="99.548" y="266.25"/><use xlink:href="#prefix__F" x="103.544" y="266.25"/><use xlink:href="#prefix__t" x="107.54" y="266.25"/><use xlink:href="#prefix__u" x="112.292" y="266.25"/><use xlink:href="#prefix__q" x="117.296" y="266.25"/><use xlink:href="#prefix__E" x="121.292" y="266.25"/><path d="M128.25 90.375v2.25h-.75v-2.25m.75 4.5v2.25h-.75v-2.25m.75 4.5v2.25h-.75v-2.25m.75 4.5v2.25h-.75v-2.25m.75 4.5v2.25h-.75v-2.25m.75 4.5v2.25h-.75v-2.25"/><path d="M127.875 119.535l-2.625-5.25 2.625 1.313 2.625-1.313zm0 0" stroke="#000" stroke-miterlimit="10" stroke-width=".75"/><path d="M92.25 97.5H165v11.25H92.25zm0 0" fill="#fff"/><use xlink:href="#prefix__Y" x="91.98" y="106.5"/><use xlink:href="#prefix__b" x="99.546" y="106.5"/><use xlink:href="#prefix__Q" x="103.902" y="106.5"/><use xlink:href="#prefix__i" x="108.489" y="106.5"/><use xlink:href="#prefix__Z" x="110.782" y="106.5"/><use xlink:href="#prefix__x" x="115.369" y="106.5"/><use xlink:href="#prefix__Q" x="119.032" y="106.5"/><use xlink:href="#prefix__aa" x="123.619" y="106.5"/><path d="M127.5 96H165v12.75h-37.5zm0 0" fill="#fff"/><use xlink:href="#prefix__z" x="127.746" y="106.5"/><use xlink:href="#prefix__E" x="133.875" y="106.5"/><use xlink:href="#prefix__t" x="137.403" y="106.5"/><use xlink:href="#prefix__F" x="142.155" y="106.5"/><use xlink:href="#prefix__q" x="146.151" y="106.5"/><use xlink:href="#prefix__A" x="150.147" y="106.5"/><use xlink:href="#prefix__A" x="153.693" y="106.5"/><use xlink:href="#prefix__t" x="157.239" y="106.5"/><use xlink:href="#prefix__E" x="161.739" y="106.5"/><path d="M165.375 75.375h52.523c5 0 7.5 2.5 7.5 7.5l-.023 32.723" fill="none" stroke="#000" stroke-miterlimit="10" stroke-width=".75"/><path d="M225.375 119.535l-2.625-5.25 2.625 1.313 2.625-1.313zm0 0" stroke="#000" stroke-miterlimit="10" stroke-width=".75"/><path d="M203.25 87h44.25v20.25h-44.25zm0 0" fill="#fff"/><use xlink:href="#prefix__w" x="207.035" y="95.25"/><use xlink:href="#prefix__x" x="213.223" y="95.25"/><use xlink:href="#prefix__S" x="216.886" y="95.25"/><use xlink:href="#prefix__j" x="221.242" y="95.25"/><use xlink:href="#prefix__f" x="224.451" y="95.25"/><use xlink:href="#prefix__ab" x="227.198" y="95.25"/><use xlink:href="#prefix__x" x="229.492" y="95.25"/><use xlink:href="#prefix__h" x="233.155" y="95.25"/><use xlink:href="#prefix__d" x="237.28" y="95.25"/><use xlink:href="#prefix__ab" x="241.405" y="95.25"/><use xlink:href="#prefix__k" x="203.355" y="105.75"/><use xlink:href="#prefix__x" x="206.606" y="105.75"/><use xlink:href="#prefix__j" x="210.269" y="105.75"/><use xlink:href="#prefix__f" x="213.478" y="105.75"/><use xlink:href="#prefix__b" x="216.225" y="105.75"/><use xlink:href="#prefix__ac" x="220.35" y="105.75"/><use xlink:href="#prefix__f" x="222.875" y="105.75"/><use xlink:href="#prefix__T" x="225.622" y="105.75"/><use xlink:href="#prefix__b" x="230.894" y="105.75"/><use xlink:href="#prefix__U" x="235.019" y="105.75"/><use xlink:href="#prefix__x" x="239.144" y="105.75"/><use xlink:href="#prefix__V" x="242.807" y="105.75"/><path d="M90.375 60.375h75v30h-75zm0 0" fill="#fff" stroke="#000" stroke-width=".75"/><use xlink:href="#prefix__l" x="94.922" y="73.5"/><use xlink:href="#prefix__m" x="100.547" y="73.5"/><use xlink:href="#prefix__n" x="105.047" y="73.5"/><use xlink:href="#prefix__o" x="110.051" y="73.5"/><use xlink:href="#prefix__p" x="114.551" y="73.5"/><use xlink:href="#prefix__m" x="119.555" y="73.5"/><use xlink:href="#prefix__o" x="124.055" y="73.5"/><use xlink:href="#prefix__q" x="128.555" y="73.5"/><use xlink:href="#prefix__r" x="132.551" y="73.5"/><use xlink:href="#prefix__s" x="135.548" y="73.5"/><use xlink:href="#prefix__t" x="143.801" y="73.5"/><use xlink:href="#prefix__u" x="148.553" y="73.5"/><use xlink:href="#prefix__q" x="153.557" y="73.5"/><use xlink:href="#prefix__v" x="157.553" y="73.5"/><use xlink:href="#prefix__ad" x="100.77" y="84.75"/><use xlink:href="#prefix__ae" x="108.249" y="84.75"/><use xlink:href="#prefix__af" x="113.424" y="84.75"/><use xlink:href="#prefix__ag" x="119.175" y="84.75"/><use xlink:href="#prefix__ah" x="123.261" y="84.75"/><use xlink:href="#prefix__ai" x="127.284" y="84.75"/><use xlink:href="#prefix__aj" x="131.55" y="84.75"/><use xlink:href="#prefix__ak" x="136.581" y="84.75"/><use xlink:href="#prefix__af" x="139.451" y="84.75"/><use xlink:href="#prefix__al" x="145.202" y="84.75"/><use xlink:href="#prefix__ai" x="149.945" y="84.75"/><path d="M127.875 30.375v25.223" fill="none" stroke="#000" stroke-miterlimit="10" stroke-width=".75"/><path d="M127.875 59.535l-2.625-5.25 2.625 1.313 2.625-1.313zm0 0" stroke="#000" stroke-miterlimit="10" stroke-width=".75"/><path d="M98.25 39h59.25v9.75H98.25zm0 0" fill="#fff"/><use xlink:href="#prefix__am" x="98.613" y="47.25"/><use xlink:href="#prefix__V" x="101.592" y="47.25"/><use xlink:href="#prefix__k" x="106.179" y="47.25"/><use xlink:href="#prefix__j" x="109.429" y="47.25"/><use xlink:href="#prefix__K" x="112.638" y="47.25"/><use xlink:href="#prefix__O" x="115.872" y="47.25"/><use xlink:href="#prefix__c" x="120.459" y="47.25"/><use xlink:href="#prefix__j" x="124.122" y="47.25"/><use xlink:href="#prefix__i" x="127.331" y="47.25"/><use xlink:href="#prefix__b" x="129.625" y="47.25"/><use xlink:href="#prefix__V" x="133.75" y="47.25"/><use xlink:href="#prefix__f" x="138.337" y="47.25"/><use xlink:href="#prefix__an" x="141.084" y="47.25"/><use xlink:href="#prefix__ao" x="147.387" y="47.25"/><use xlink:href="#prefix__g" x="151.974" y="47.25"/><path d="M90.375.375h75v30h-75zm0 0" fill="#fff" stroke="#000" stroke-width=".75"/><use xlink:href="#prefix__ap" x="100.055" y="13.5"/><use xlink:href="#prefix__A" x="106.805" y="13.5"/><use xlink:href="#prefix__aq" x="110.351" y="13.5"/><use xlink:href="#prefix__n" x="115.103" y="13.5"/><use xlink:href="#prefix__F" x="120.107" y="13.5"/><use xlink:href="#prefix__ar" x="123.851" y="13.5"/><use xlink:href="#prefix__E" x="128.855" y="13.5"/><use xlink:href="#prefix__t" x="132.383" y="13.5"/><use xlink:href="#prefix__n" x="136.883" y="13.5"/><use xlink:href="#prefix__t" x="141.887" y="13.5"/><use xlink:href="#prefix__p" x="146.387" y="13.5"/><use xlink:href="#prefix__A" x="151.391" y="13.5"/><use xlink:href="#prefix__X" x="97.43" y="24.75"/><use xlink:href="#prefix__as" x="104.306" y="24.75"/><use xlink:href="#prefix__l" x="109.31" y="24.75"/><use xlink:href="#prefix__r" x="114.935" y="24.75"/><use xlink:href="#prefix__at" x="117.932" y="24.75"/><use xlink:href="#prefix__q" x="124.997" y="24.75"/><use xlink:href="#prefix__n" x="128.993" y="24.75"/><use xlink:href="#prefix__q" x="133.997" y="24.75"/><use xlink:href="#prefix__E" x="137.993" y="24.75"/><use xlink:href="#prefix__m" x="141.521" y="24.75"/><use xlink:href="#prefix__B" x="146.021" y="24.75"/><use xlink:href="#prefix__t" x="149.522" y="24.75"/><use xlink:href="#prefix__E" x="154.022" y="24.75"/><path d="M60.375 135.375h25.223" fill="none" stroke="#000" stroke-miterlimit="10" stroke-width=".75"/><path d="M89.535 135.375L84.285 138l1.313-2.625-1.313-2.625zm0 0" stroke="#000" stroke-miterlimit="10" stroke-width=".75"/><path d="M30.398 120.375v-97.5c0-5 2.5-7.5 7.5-7.5h47.7" fill="none" stroke="#000" stroke-miterlimit="10" stroke-width=".75"/><path d="M89.535 15.375L84.285 18l1.313-2.625-1.313-2.625zm0 0" stroke="#000" stroke-miterlimit="10" stroke-width=".75"/><path d="M6 65.25h48.75V85.5H6zm0 0" fill="#fff"/><use xlink:href="#prefix__k" x="22.336" y="73.5"/><use xlink:href="#prefix__x" x="25.586" y="73.5"/><use xlink:href="#prefix__V" x="29.249" y="73.5"/><use xlink:href="#prefix__Q" x="33.836" y="73.5"/><use xlink:href="#prefix__R" x="6.199" y="84"/><use xlink:href="#prefix__w" x="9.408" y="84"/><use xlink:href="#prefix__x" x="15.596" y="84"/><use xlink:href="#prefix__S" x="19.259" y="84"/><use xlink:href="#prefix__j" x="23.615" y="84"/><use xlink:href="#prefix__T" x="29.571" y="84"/><use xlink:href="#prefix__b" x="34.843" y="84"/><use xlink:href="#prefix__U" x="38.968" y="84"/><use xlink:href="#prefix__x" x="43.093" y="84"/><use xlink:href="#prefix__V" x="46.756" y="84"/><use xlink:href="#prefix__W" x="51.343" y="84"/><path d="M.375 120.375h60v30h-60zm0 0" fill="#fff" stroke="#000" stroke-width=".75"/><use xlink:href="#prefix__au" x="14.25" y="133.5"/><use xlink:href="#prefix__t" x="20.748" y="133.5"/><use xlink:href="#prefix__n" x="25.248" y="133.5"/><use xlink:href="#prefix__B" x="30" y="133.5"/><use xlink:href="#prefix__q" x="33.501" y="133.5"/><use xlink:href="#prefix__N" x="37.497" y="133.5"/><use xlink:href="#prefix__B" x="42.249" y="133.5"/><g><use xlink:href="#prefix__G" x="10.23" y="144.75"/></g><g><use xlink:href="#prefix__s" x="13.731" y="144.75"/></g><g><use xlink:href="#prefix__q" x="21.984" y="144.75"/></g><g><use xlink:href="#prefix__M" x="25.98" y="144.75"/></g><g><use xlink:href="#prefix__t" x="33.477" y="144.75"/><use xlink:href="#prefix__E" x="37.977" y="144.75"/></g><g><use xlink:href="#prefix__aq" x="41.505" y="144.75"/></g><g><use xlink:href="#prefix__H" x="46.257" y="144.75"/></g><path d="M225.398 150.375v37.5c0 5-2.5 7.5-7.5 7.5h-47.746" fill="none" stroke="#000" stroke-miterlimit="10" stroke-width=".75"/><path d="M166.215 195.375l5.25-2.625-1.313 2.625 1.313 2.625zm0 0" stroke="#000" stroke-miterlimit="10" stroke-width=".75"/><path d="M198.75 159H252v20.25h-53.25zm0 0" fill="#fff"/><g><use xlink:href="#prefix__g" x="198.727" y="167.25"/><use xlink:href="#prefix__x" x="203.883" y="167.25"/></g><g><use xlink:href="#prefix__h" x="207.546" y="167.25"/><use xlink:href="#prefix__d" x="211.671" y="167.25"/><use xlink:href="#prefix__ab" x="215.796" y="167.25"/></g><g><use xlink:href="#prefix__f" x="218.089" y="167.25"/></g><g><use xlink:href="#prefix__b" x="220.837" y="167.25"/><use xlink:href="#prefix__K" x="224.962" y="167.25"/></g><g><use xlink:href="#prefix__f" x="228.196" y="167.25"/></g><g><use xlink:href="#prefix__i" x="230.943" y="167.25"/></g><g><use xlink:href="#prefix__ab" x="233.236" y="167.25"/></g><g><use xlink:href="#prefix__ab" x="235.53" y="167.25"/></g><g><use xlink:href="#prefix__x" x="237.823" y="167.25"/></g><g><use xlink:href="#prefix__h" x="241.486" y="167.25"/><use xlink:href="#prefix__d" x="245.611" y="167.25"/><use xlink:href="#prefix__ab" x="249.736" y="167.25"/></g><g><use xlink:href="#prefix__T" x="206.848" y="177.75"/></g><g><use xlink:href="#prefix__b" x="212.119" y="177.75"/><use xlink:href="#prefix__U" x="216.244" y="177.75"/></g><g><use xlink:href="#prefix__x" x="220.369" y="177.75"/></g><g><use xlink:href="#prefix__V" x="224.032" y="177.75"/></g><g><use xlink:href="#prefix__f" x="228.619" y="177.75"/></g><g><use xlink:href="#prefix__am" x="231.367" y="177.75"/></g><g><use xlink:href="#prefix__an" x="234.345" y="177.75"/></g><g><use xlink:href="#prefix__k" x="240.648" y="177.75"/></g><g clip-path="url(#prefix__av)"><path d="M195.375 120.375h60v30h-60zm0 0" fill="#fff" stroke="#000" stroke-width=".75"/></g><g><use xlink:href="#prefix__aw" x="206.109" y="138.75"/></g><g><use xlink:href="#prefix__t" x="211.86" y="138.75"/><use xlink:href="#prefix__ax" x="216.36" y="138.75"/></g><g><use xlink:href="#prefix__q" x="220.86" y="138.75"/></g><g><use xlink:href="#prefix__n" x="224.856" y="138.75"/></g><g><use xlink:href="#prefix__ay" x="229.86" y="138.75"/></g><g><use xlink:href="#prefix__az" x="232.362" y="138.75"/></g><g><use xlink:href="#prefix__q" x="236.358" y="138.75"/></g><g><use xlink:href="#prefix__E" x="240.354" y="138.75"/></g><g><use xlink:href="#prefix__X" x="168.562" y="132.75"/></g><g><use xlink:href="#prefix__ay" x="175.438" y="132.75"/></g><g><use xlink:href="#prefix__F" x="177.94" y="132.75"/></g><g><use xlink:href="#prefix__B" x="181.936" y="132.75"/></g><g><use xlink:href="#prefix__as" x="65.121" y="132.75"/></g><g><use xlink:href="#prefix__q" x="70.125" y="132.75"/></g><g><use xlink:href="#prefix__aA" x="74.121" y="132.75"/></g></svg>